<svg width="6358" height="2858" viewBox="0 0 6358 2858" fill="none" xmlns="http://www.w3.org/2000/svg">
    <g clip-path="url(#clip0_278_3)">
        <path fill-rule="evenodd" clip-rule="evenodd" d="M314.802 2854.52C316.445 2846.59 316.832 2838.09 320.118 2830.94C330.074 2809.38 341.286 2788.5 351.724 2767.14C366.126 2737.56 378.691 2706.92 394.832 2678.31C411.553 2648.73 425.665 2618.19 438.036 2586.68C440.453 2580.59 446.542 2575.95 450.988 2570.73C472.155 2545.41 492.936 2519.79 514.586 2494.95C546.772 2457.93 580.021 2421.78 612.11 2384.66C636.564 2356.34 658.408 2325.51 684.214 2298.54C717.173 2264.23 753.418 2233.01 787.634 2199.85C803.002 2184.97 817.113 2168.82 831.515 2152.97C852.779 2129.68 874.139 2106.48 894.92 2082.89C923.82 2050.03 952.912 2017.46 986.935 1989.43C1013.51 1967.58 1039.03 1944.38 1064.64 1921.28C1083.78 1903.98 1102.05 1885.61 1121.09 1868.22C1151.63 1840.38 1182.66 1813.02 1213.11 1785.09C1224.32 1774.75 1234.37 1763.05 1245.19 1752.13C1276.51 1720.52 1308.12 1689.3 1339.14 1657.4C1346.58 1649.77 1352 1640.2 1358.57 1631.69C1367.94 1619.61 1377.51 1607.62 1387.08 1595.64C1397.52 1582.49 1407.77 1569.06 1418.69 1556.2C1434.06 1538.03 1449.13 1519.57 1465.66 1502.46C1498.23 1468.82 1521.82 1429.48 1541.15 1387.34C1542.79 1383.86 1543.95 1379.99 1546.27 1377C1568.21 1347.9 1570.82 1314.65 1567.05 1280.15C1565.02 1261.2 1566.47 1241.29 1553.04 1225.15C1546.17 1217.03 1540.67 1207.36 1532.74 1200.69C1507.03 1179.04 1482 1156.04 1453.87 1138.06C1432.22 1124.24 1406.12 1117.47 1382.35 1106.84C1340.88 1088.28 1297.97 1075.42 1253.89 1064.31C1230.02 1058.22 1205.86 1055.61 1182.18 1050.19C1157.63 1044.69 1133.85 1035.7 1109.4 1029.51C1078.18 1021.58 1046.67 1015.11 1015.35 1007.76C975.819 998.386 936.385 988.527 896.853 979.537C888.734 977.701 879.939 979.248 871.53 978.184C849.396 975.478 827.455 971.612 805.322 969.485C753.998 964.459 702.482 960.592 651.159 955.47C625.932 952.956 600.995 947.447 575.768 945.707C557.501 944.45 538.846 946.867 520.386 947.833C465.776 950.83 410.973 953.246 356.46 957.403C336.743 958.949 317.315 964.652 297.791 968.615C280.49 972.095 263.286 977.508 245.791 978.764C220.758 980.601 197.368 986.11 175.331 997.999C171.948 999.836 168.082 1001.77 164.505 1001.77C129.13 1002.35 107.383 1029.8 80.3196 1045.94C69.2044 1052.51 60.7955 1063.73 46.8773 1068.17C40.5948 1070.2 36.7287 1079.29 31.316 1084.7C24.6469 1091.27 17.4945 1098.23 7.15251 1091.76C-1.93297 1086.06 -2.22293 1075.62 5.21943 1063.15C24.7436 1030.67 50.7435 1003.32 77.3234 977.121C104.58 950.347 135.026 926.665 164.892 902.694C190.022 882.589 216.892 864.611 241.925 844.506C279.234 814.638 319.828 790.377 362.549 769.595C411.36 745.817 459.397 720.203 512.17 704.931C533.337 698.841 552.185 685.212 572.965 677.673C627.188 658.051 682.474 641.716 738.727 628.28C779.418 618.614 820.4 614.265 861.574 608.659C897.433 603.729 933.195 605.566 968.957 603.922C1011 601.989 1053.24 606.146 1095.38 608.079C1152.41 610.688 1209.43 612.525 1266.26 617.165C1303.67 620.258 1340.79 625.864 1377.03 638.139C1411.15 649.642 1447.3 654.668 1482.48 663.174C1512.25 670.423 1542.12 677.866 1571.4 686.855C1603.59 696.715 1635.29 708.507 1667.19 719.526C1683.71 725.229 1700.43 730.448 1716.67 736.828C1755.33 751.907 1794.09 766.985 1832.27 783.224C1845.42 788.83 1856.82 798.399 1869.48 805.455C1882.24 812.512 1895.39 818.794 1908.53 825.174C1914.04 827.784 1920.81 828.364 1925.54 831.94C1968.84 864.031 2011.08 897.184 2043.75 940.777C2045.59 943.194 2047.13 946.48 2049.65 947.737C2085.12 965.522 2097.2 1003.32 2120.49 1031.44C2128.23 1040.82 2133.25 1056.09 2132.48 1068.17C2130.84 1094.17 2145.04 1117.08 2143.5 1142.79C2142.92 1151.69 2146.88 1160.77 2148.43 1169.86C2154.52 1206.01 2162.05 1241.77 2175.68 1276.18C2179.74 1286.24 2177.23 1298.99 2177.42 1310.59C2177.62 1327.51 2181.39 1343.36 2186.02 1359.79C2195.01 1391.4 2210.57 1422.43 2200.43 1457.71C2192.4 1485.55 2182.93 1512.42 2165.53 1535.81C2143.5 1565.29 2121.36 1594.67 2098.65 1623.57C2085.31 1640.49 2070.04 1655.86 2056.99 1673.06C2032.34 1705.44 1999.1 1729.8 1975.8 1763.73C1952.8 1797.17 1923.61 1825.49 1890.75 1849.75C1888.91 1851.11 1886.88 1852.27 1885.24 1853.91C1830.92 1907.17 1770.51 1953.47 1713.97 2004.21C1712.81 2005.28 1711.45 2006.15 1710.58 2007.4C1688.93 2038.34 1657.23 2058.34 1627.56 2079.61C1587.16 2108.7 1543.76 2133.54 1501.71 2160.32C1489.05 2168.34 1476.78 2176.94 1464.41 2185.26C1462.47 2186.51 1460.64 2188.35 1458.51 2188.64C1433.09 2192.7 1415.69 2211.45 1394.52 2223.24C1364.47 2239.96 1335.86 2258.43 1301.16 2266.93C1270.52 2274.47 1241.71 2290.42 1213.01 2304.44C1187.49 2316.91 1163.91 2333.24 1138.2 2345.23C1109.01 2358.76 1077.89 2368.04 1048.6 2381.47C1016.32 2396.26 980.749 2397.91 948.08 2409.89C912.221 2423.13 877.136 2438.41 841.664 2452.61C831.708 2456.58 821.173 2459.19 811.798 2464.21C790.92 2475.52 770.526 2487.8 750.132 2499.88C738.244 2506.84 727.419 2516.12 714.757 2520.95C683.731 2532.84 661.307 2556.62 635.501 2575.66C613.947 2591.51 592.489 2607.94 572.965 2626.21C530.921 2665.46 489.746 2705.57 449.055 2746.17C430.111 2765.01 413.486 2786.09 395.219 2805.61C390.096 2811.02 383.33 2814.99 377.048 2819.24C366.319 2826.39 356.267 2833.64 347.858 2844.18C341.962 2851.52 329.494 2853.46 319.925 2857.9C318.185 2856.74 316.445 2855.58 314.609 2854.42L314.802 2854.52ZM1218.9 924.345C1219.77 925.119 1217.84 923.862 1216.39 922.122C1201.12 903.854 1203.15 897.474 1226.64 891.868C1266.26 882.396 1305.8 875.823 1346.87 884.136C1386.7 892.158 1427 896.121 1466.34 909.073C1509.35 923.282 1551.59 938.844 1592.86 957.306C1609 964.555 1626.11 970.355 1640.61 980.117C1668.15 998.773 1699.37 1005.73 1730.88 1012.59C1737.36 1013.95 1744.7 1013.66 1745.09 1005.54C1745.28 1001.67 1740.26 994.616 1736.49 993.843C1711.74 988.72 1694.06 970.258 1671.73 960.979C1645.63 950.153 1622.53 934.011 1595.47 924.056C1561.93 911.683 1532.06 889.548 1495.82 882.879C1477.26 864.417 1452.71 859.971 1428.64 854.848C1414.53 851.852 1400.32 849.435 1386.12 846.922C1382.35 846.245 1378.19 846.922 1374.71 845.665C1330.54 829.427 1283.28 835.033 1237.85 826.817C1195.9 819.181 1152.99 817.151 1110.65 812.222C1075.57 808.065 1040.58 802.556 1005.4 798.883C968.087 795.016 930.875 798.109 893.76 803.716C871.143 807.195 848.139 804.972 825.232 810.578C808.608 814.735 789.277 819.568 771.203 805.842C771.783 801.686 770.72 795.113 773.523 791.73C781.738 781.871 790.437 772.205 804.355 769.305C815.567 766.985 826.296 762.442 837.411 759.833C845.53 757.899 853.939 756.643 862.251 756.45C880.712 755.966 899.173 756.45 917.634 756.16C942.281 755.676 966.541 756.45 991.187 759.253C1023.18 762.926 1055.95 758.866 1088.23 760.413C1133.56 762.442 1178.89 766.405 1224.22 769.885C1244.13 771.432 1264.53 771.432 1283.66 776.265C1313.43 783.901 1343.3 790.183 1373.65 794.63C1398.58 798.303 1423.42 802.749 1448.46 806.422C1468.18 809.225 1488.09 810.675 1507.71 813.865C1543.86 819.761 1579.71 827.59 1616.06 832.617C1649.5 837.256 1681.97 844.506 1714.35 853.978C1731.85 859.101 1751.76 859.778 1770.61 854.365C1766.26 835.806 1766.84 834.743 1752.92 827.494C1728.46 814.735 1703.53 802.652 1678.11 791.73C1658.58 783.321 1638.38 776.265 1617.99 769.885C1594.5 762.539 1570.53 756.933 1546.95 750.07C1527.81 744.561 1509.16 736.731 1489.83 732.768C1473.39 729.385 1456 728.419 1439.18 729.385C1422.26 730.352 1409.6 717.593 1391.72 719.623C1376.55 721.363 1360.5 712.373 1344.65 711.213C1297.87 707.927 1251.09 704.834 1204.21 704.254C1165.84 703.771 1127.37 707.444 1088.9 708.12C1041.83 708.99 994.764 709.087 947.79 708.894C877.039 708.7 806.192 705.414 737.084 725.616C706.541 734.508 675.225 740.694 644.973 750.263C622.452 757.32 600.995 767.952 578.958 776.555C569.292 780.324 556.824 780.518 549.962 786.897C536.72 799.269 520.482 804.199 504.824 807.872C473.412 815.218 448.958 835.226 421.412 849.435C417.546 851.465 416.482 858.908 413.873 864.321C418.705 866.447 420.639 867.704 422.765 868.187C462.586 877.273 503.084 870.797 543.196 873.213C569.872 874.856 596.742 873.31 623.612 873.213C625.932 873.213 628.251 872.827 630.571 872.827C653.478 872.827 676.482 871.183 699.196 873.116C720.556 874.953 741.433 881.429 762.794 883.942C788.697 887.132 814.987 887.422 840.89 890.805C852.876 892.352 864.184 898.248 875.879 901.921C881.678 903.757 888.154 907.527 893.374 906.27C908.258 902.791 921.693 908.01 933.485 914.003C950.013 922.316 967.411 922.122 984.518 925.505C995.537 927.632 1006.36 931.208 1017.28 933.915C1021.73 934.978 1026.37 935.558 1030.91 936.234C1046.76 938.748 1062.71 941.067 1078.56 943.581C1100.41 947.06 1122.35 947.35 1143.9 954.986C1172.41 965.232 1203.05 969.485 1231.37 980.021C1260.85 990.943 1289.56 1004.09 1320.97 1009.02C1330.06 1010.47 1338.85 1013.46 1347.94 1014.43C1362.82 1015.98 1375.77 1021 1388.24 1029.51C1403.22 1039.76 1419.27 1048.65 1435.51 1056.86C1452.42 1065.47 1470.59 1071.46 1487.22 1080.55C1515.63 1096.01 1543.18 1112.93 1571.01 1129.26C1574.78 1131.48 1579.62 1133.8 1581.36 1137.28C1592.18 1158.94 1609.58 1175.17 1624.75 1193.44C1635.1 1205.91 1642.15 1222.73 1645.54 1238.78C1649.69 1258.98 1649.3 1280.24 1649.59 1301.02C1649.98 1326.64 1641.38 1351.38 1630.07 1372.74C1606.2 1417.5 1577.3 1459.54 1550.52 1502.85C1542.89 1515.22 1536.41 1528.56 1527.81 1540.16C1512.44 1560.84 1495.53 1580.46 1479.68 1600.86C1456.58 1630.53 1434.35 1660.88 1410.76 1690.17C1399.26 1704.38 1384.09 1715.5 1372.68 1729.7C1340.11 1770.49 1307.15 1810.8 1271.48 1849.17C1245.77 1876.82 1217.26 1901.08 1189.13 1925.73C1162.17 1949.41 1133.27 1970.87 1105.24 1993.29C1098.09 1999 1091.32 2005.37 1083.78 2010.59C1044.44 2037.76 1012.84 2073.71 977.366 2105.22C951.173 2128.52 929.522 2156.84 905.069 2182.07C868.244 2220.15 830.162 2256.98 793.53 2295.25C777.099 2312.36 764.147 2332.76 747.619 2349.67C721.233 2376.83 696.489 2404.96 677.545 2437.92C673.292 2445.27 661.79 2452.32 671.359 2461.51C680.541 2470.4 688.177 2459.38 695.813 2455.32C716.11 2444.49 735.054 2430.58 756.318 2422.55C773.619 2416.08 789.374 2408.63 805.418 2399.06C834.705 2381.57 867.18 2369.39 898.593 2355.47C918.6 2346.58 940.347 2340.78 958.615 2329.37C971.76 2321.16 985.195 2317 999.403 2314.78C1024.44 2310.82 1045.99 2300.38 1066.58 2286.26C1077.11 2279.02 1088.71 2271.38 1100.79 2269.06C1120.32 2265.29 1137.14 2258.14 1152.5 2245.86C1156.37 2242.77 1161.49 2241.22 1166.23 2239.29C1171.74 2237.07 1177.83 2236 1183.05 2233.2C1195.13 2226.82 1206.24 2215.7 1218.9 2213.87C1243.07 2210.29 1257.76 2189.12 1280.86 2185.06C1306.18 2161.38 1336.24 2144.66 1365.43 2126.58C1389.4 2111.7 1411.63 2094.01 1434.64 2077.58C1448.94 2067.33 1463.63 2057.76 1477.26 2046.74C1499.2 2029.06 1520.85 2010.98 1541.83 1992.23C1581.07 1957.05 1626.2 1928.82 1662.55 1890.45C1669.6 1883.01 1674.82 1874.02 1681.2 1865.41C1671.73 1858.84 1664 1856.42 1655.59 1861.64C1631.42 1876.63 1606.68 1890.74 1583.39 1906.88C1560.09 1923.02 1538.35 1941.58 1515.54 1958.4C1482.87 1982.56 1449.71 2006.05 1417.05 2030.12C1397.42 2044.52 1379.06 2060.76 1358.67 2074C1309.66 2105.71 1257.95 2133.64 1210.88 2167.95C1183.92 2187.67 1152.02 2193.67 1124.96 2211.06C1115.39 2217.15 1104.95 2222.37 1094.22 2225.95C1062.32 2236.58 1028.88 2242.77 1000.08 2261.42C996.89 2263.45 992.927 2264.52 989.254 2265.39C966.251 2271.09 943.344 2276.41 922.66 2289.16C914.058 2294.58 906.422 2291.87 904.005 2279.11C936.385 2257.36 968.087 2234.46 1001.43 2214.35C1019.51 2203.43 1040.58 2197.44 1060.3 2189.12C1063.77 2187.67 1067.35 2186.22 1070.64 2184.19C1126.31 2148.82 1182.76 2114.7 1237.27 2077.58C1292.46 2039.98 1346.39 2000.45 1395.88 1955.02C1420.14 1932.78 1445.46 1911.62 1475.04 1896.25C1484.41 1891.41 1493.79 1886 1502.39 1879.91C1521.14 1866.67 1538.64 1851.3 1558.16 1839.32C1613.06 1805.39 1667.19 1770.49 1716.87 1729.03C1761.81 1691.52 1799.8 1647.25 1838.46 1603.76C1855.37 1584.81 1865.04 1562.87 1872.19 1539.67C1863.68 1527.69 1852.86 1531.26 1844.93 1536.58C1815.74 1556.2 1786.36 1575.73 1759.1 1597.86C1727.01 1623.96 1697.54 1653.34 1666.12 1680.31C1635.77 1706.41 1604.46 1731.35 1573.43 1756.58C1561.54 1766.24 1549.17 1775.42 1536.9 1784.61C1509.35 1805.29 1481.71 1826.07 1454.06 1846.56C1430.77 1863.87 1407.38 1881.17 1383.89 1898.28C1379.54 1901.47 1372.1 1902.82 1370.55 1906.78C1364.66 1922.15 1350.35 1923.41 1338.47 1928.92C1332.96 1931.43 1327.64 1934.43 1322.71 1937.81C1302.9 1951.44 1280.96 1960.62 1258.24 1967.68C1253.41 1969.13 1247.51 1967 1240.55 1966.42C1242.2 1960.24 1242.39 1957.05 1243.84 1954.63C1253.02 1939.55 1262.5 1924.57 1271.87 1909.59C1289.75 1880.78 1311.11 1854.97 1336.73 1832.65C1351.03 1820.18 1366.79 1809.06 1375.39 1791.08C1376.55 1788.57 1379.25 1785.67 1381.67 1785.19C1399.94 1781.71 1409.41 1766.63 1422.07 1755.71C1425.36 1752.9 1428.84 1747.78 1432.12 1747.88C1441.21 1748.07 1445.65 1742.17 1451.65 1737.53C1464.89 1727.48 1477.94 1716.46 1492.82 1709.5C1511.77 1700.71 1528.1 1688.91 1545.31 1677.8C1571.98 1660.69 1596.15 1640.88 1620.79 1621.45C1664.96 1586.46 1702.37 1545.18 1733.88 1498.4C1753.11 1469.89 1771.77 1440.79 1792.55 1413.34C1817 1380.96 1830.53 1345.78 1829.56 1305.08C1829.18 1290.49 1828.21 1275.8 1829.18 1261.2C1831.98 1219.06 1817.97 1184.65 1785.2 1157.68C1778.14 1151.88 1771.96 1144.92 1765.29 1138.54C1758.33 1131.77 1752.24 1123.56 1744.22 1118.34C1705.75 1093.01 1667.09 1067.79 1627.75 1044.01C1602.91 1029.03 1576.72 1016.07 1550.81 1002.93C1534.48 994.616 1517.47 987.947 1500.94 980.021C1471.07 965.715 1440.92 952.57 1407.28 950.057C1403.51 949.767 1399.84 948.703 1396.17 947.64C1369.3 940.101 1342.72 931.112 1315.46 925.409C1300 922.122 1283.37 923.862 1267.23 923.669C1252.25 923.476 1237.17 923.669 1219.19 923.669L1218.9 924.345Z" fill="white"/>
        <path fill-rule="evenodd" clip-rule="evenodd" d="M4390.61 2434.44C4402.69 2419.85 4413.03 2405.44 4425.4 2393.07C4439.32 2379.06 4454.98 2366.68 4470.15 2353.93C4479.43 2346.19 4489.48 2340.1 4496.93 2329.47C4504.08 2319.32 4517.13 2313.23 4527.37 2305.21C4537.71 2297.19 4547.77 2288.87 4558.01 2280.76C4565.74 2274.67 4573.77 2268.87 4581.4 2262.58C4594.45 2251.85 4607.21 2240.84 4619.97 2229.91C4627.51 2223.44 4634.95 2216.77 4642.39 2210.1C4666.94 2188.16 4691.3 2165.92 4716.14 2144.27C4730.06 2132.19 4744.65 2120.88 4759.25 2109.57C4778 2095.07 4797.33 2081.25 4815.88 2066.46C4851.55 2038.05 4886.06 2008.18 4919.4 1976.96C4950.04 1948.15 4982.81 1921.19 5011.03 1890.25C5050.85 1846.66 5089.13 1801.52 5116.09 1747.78C5132.23 1715.59 5150.79 1684.76 5165.77 1651.7C5181.91 1616.23 5199.7 1581.72 5210.43 1544.02C5219.03 1513.67 5230.05 1484 5238.17 1453.45C5243.68 1432.87 5247.83 1411.6 5249.28 1390.43C5251.41 1358.15 5258.66 1326.83 5262.62 1295.03C5269.58 1240.13 5273.06 1184.74 5259.91 1129.75C5256.05 1113.6 5257.69 1095.91 5252.47 1080.35C5246.19 1061.7 5251.21 1042.37 5244.93 1024C5241.36 1013.47 5239.42 1002.35 5236.62 991.62C5226.76 953.827 5224.44 914.1 5207.33 878.336C5190.61 843.346 5185.3 804.973 5172.73 768.822C5169.45 759.253 5162.58 750.844 5159.78 741.178C5148.76 702.708 5138.71 663.948 5128.27 625.381C5127.88 623.931 5127.88 622.288 5127.5 620.838C5118.9 591.551 5110.97 561.973 5101.4 532.975C5085.36 484.066 5067.38 435.93 5060.03 384.411C5055.78 354.737 5048.43 325.256 5039.83 296.549C5032.1 270.934 5020.31 246.576 5011.03 221.445C5006.78 209.942 5005.23 197.474 5000.69 186.068C4989.28 157.747 4977.78 129.426 4964.64 101.878C4952.17 75.6838 4942.79 47.8461 4921.62 26.1946C4916.98 21.4583 4918.72 10.5359 4917.37 1.16003C4945.79 -2.31968 4970.24 2.02996 4993.73 16.0454C5027.85 36.4404 5063.32 54.4189 5097.15 75.2005C5131.75 96.3687 5165.1 119.663 5199.02 141.992C5217 153.881 5235.07 165.576 5253.05 177.465C5259.43 181.718 5265.91 185.875 5271.8 190.901C5291.52 207.816 5311.72 224.345 5330.47 242.323C5366.43 276.83 5401.99 311.627 5436.69 347.391C5453.7 364.886 5466.08 387.794 5485.02 402.583C5512.86 424.235 5531.12 453.619 5554.61 478.557C5591.34 517.607 5626.14 558.59 5659 600.83C5688.19 638.333 5716.51 677.093 5739.8 718.367C5750.82 737.892 5762.03 757.997 5773.24 777.522C5792.38 810.965 5814.8 842.573 5835.68 875.05C5843.51 887.326 5850.76 899.988 5858.59 912.264C5894.35 968.519 5933.79 1022.45 5964.71 1081.8C5972.35 1096.4 5983.66 1108.96 5992.55 1122.88C6000.67 1135.64 6010.63 1146.95 6014.2 1163C6016.91 1175.08 6026.38 1185.71 6032.86 1196.92C6045.03 1218.28 6057.21 1239.74 6069.39 1261.1C6070.55 1263.13 6071.71 1265.16 6072.19 1267.39C6081.86 1307.31 6108.44 1339.49 6122.74 1377.09C6140.24 1422.91 6172.71 1461.09 6186.73 1508.65C6189.63 1518.51 6198.13 1526.53 6203.64 1535.71C6222.68 1568 6240.57 1601.05 6260.67 1632.66C6282.9 1667.65 6307.45 1701.29 6330.45 1735.79C6339.73 1749.81 6348.53 1764.31 6356.07 1779.29C6361.48 1790.12 6355.29 1800.46 6343.6 1803.84C6318.76 1811.09 6294.21 1820.08 6268.89 1825.4C6248.01 1829.75 6226.16 1829.65 6204.8 1832.07C6163.73 1836.61 6122.74 1841.73 6081.67 1846.37C6048.03 1850.14 6014.49 1854.01 5980.76 1857C5964.14 1858.45 5957.85 1859.81 5940.55 1872.66C5952.34 1897.12 5973.03 1914.32 5992.84 1931.62C6026.86 1961.4 6062.72 1989.14 6096.55 2019.1C6106.41 2027.9 6113.47 2040.85 6119.17 2053.12C6125.64 2067.24 6119.17 2079.8 6104.09 2079.61C6080.8 2079.22 6060.79 2088.02 6039.43 2094.3C6019.52 2100.2 5998.06 2100.49 5977.47 2104.06C5963.94 2106.38 5950.8 2110.25 5937.36 2113.44C5885.84 2125.52 5833.94 2132.38 5780.78 2134.22C5755.07 2135.09 5728.01 2134.99 5702.11 2145.34C5685 2152.1 5664.02 2148.82 5644.98 2151.62C5618.4 2155.58 5591.44 2159.16 5565.53 2166.21C5536.34 2174.24 5506.48 2174.04 5477 2178.3C5447.42 2182.65 5418.33 2189.32 5388.75 2193.86C5344.78 2200.53 5306.98 2224.98 5264.75 2236.39C5212.17 2250.6 5159.78 2265.19 5107.49 2280.27C5089.8 2285.39 5072.89 2293.03 5055.3 2298.44C5038.38 2303.57 5020.89 2306.76 5003.97 2311.69C4958.45 2324.93 4912.06 2334.59 4867.4 2351.51C4834.06 2364.17 4798.29 2370.26 4763.69 2379.73C4739.33 2386.4 4715.46 2394.52 4691.01 2400.42C4649.25 2410.47 4607.31 2419.65 4565.26 2428.55C4541.29 2433.67 4517.13 2436.09 4492.48 2437.15C4472.18 2438.02 4452.18 2445.36 4432.17 2450.49C4413.9 2455.22 4401.43 2447.78 4390.8 2434.35L4390.61 2434.44ZM5210.62 439.12C5212.17 438.25 5213.62 437.38 5215.07 436.51C5230.72 451.879 5248.31 465.894 5261.65 483.1C5279.05 505.524 5296.93 528.916 5307.56 554.82C5321.39 588.457 5328.92 624.898 5338.11 660.371C5346.52 693.139 5350.67 726.582 5351.64 760.51C5351.93 772.399 5351.73 788.347 5358.79 795.113C5374.45 809.999 5377.44 828.074 5380.63 846.826C5382.57 858.135 5379.18 871.184 5383.63 881.043C5396.58 909.557 5394.84 940.101 5396 969.485C5398.52 1034.25 5396.39 1099.1 5396.39 1163.96C5396.39 1169.76 5398.23 1175.46 5399.09 1180.39C5411.08 1184.36 5414.75 1178.56 5417.75 1170.34C5424.42 1151.69 5432.05 1133.42 5438.53 1114.67C5450.23 1080.64 5450.61 1045.07 5451.87 1009.7C5452.74 985.241 5450.32 960.689 5452.06 936.428C5452.93 923.186 5455.35 910.62 5449.55 897.958C5444.33 886.552 5449.26 879.206 5462.21 872.15C5469.36 888.969 5479.22 904.338 5482.22 920.866C5488.6 955.567 5492.95 990.847 5495.27 1026.03C5497.59 1060.34 5498.94 1094.75 5498.94 1129.26C5498.94 1159.32 5505.41 1189.48 5510.44 1219.35C5517.69 1262.07 5526.29 1304.5 5534.6 1348.77C5549.68 1334.66 5557.7 1324.13 5560.6 1308.95C5566.31 1279.57 5570.85 1249.89 5575.1 1220.22C5577.52 1203.98 5578.49 1187.45 5580.42 1166.96C5588.73 1173.63 5595.59 1176.43 5597.43 1181.17C5602.07 1193.15 5607.48 1206.11 5607.19 1218.48C5606.51 1244.48 5610.57 1270.19 5609.32 1296.48C5608.16 1319.68 5605.26 1341.91 5599.65 1364.14C5593.85 1387.34 5590.28 1409.77 5595.01 1434.51C5599.56 1458.58 5604.87 1482.07 5611.15 1505.75C5623.43 1551.76 5645.85 1592.35 5669.82 1632.37C5675.53 1641.84 5678.62 1650.06 5677.46 1659.92C5676.78 1665.52 5674.56 1674.13 5670.98 1675.29C5665.57 1677.12 5657.93 1674.61 5652.04 1672C5648.27 1670.36 5644.69 1665.91 5643.34 1661.95C5638.22 1646.29 5624.59 1644.84 5611.83 1642.62C5602.94 1641.07 5593.47 1642.71 5584.67 1640.88C5553.64 1634.21 5528.9 1647.16 5505.7 1665.04C5474.97 1688.62 5462.69 1724.1 5447.71 1757.64C5441.14 1772.33 5434.37 1786.83 5427.51 1801.33C5424.23 1808.29 5420.94 1815.25 5416.88 1821.72C5398.42 1850.91 5390.3 1885.33 5369.13 1913.36C5360.53 1924.76 5357.34 1940.52 5348.35 1951.44C5326.02 1978.31 5306.21 2007.79 5276.73 2028.09C5271.61 2031.57 5266.49 2037.56 5261.07 2031.09C5259.04 2028.67 5260.78 2021.23 5263.01 2017.26C5277.7 1991.26 5293.07 1965.65 5307.85 1939.74C5314.23 1928.72 5320.23 1917.42 5325.64 1905.82C5331.82 1892.77 5337.62 1879.62 5342.84 1866.19C5345.55 1859.03 5345.94 1851.01 5348.55 1843.86C5356.18 1823.08 5365.27 1802.88 5372.32 1781.9C5377.35 1767.02 5379.96 1751.26 5384.6 1732.02C5367.49 1739.37 5359.47 1749.91 5351.44 1761.22C5342.26 1774.36 5331.82 1786.64 5321.87 1799.2C5318 1804.04 5313.17 1808.19 5310.27 1813.51C5292.2 1846.76 5264.17 1871.89 5239.71 1899.92C5231.69 1909.1 5222.12 1916.93 5212.75 1924.76C5209.65 1927.37 5204.92 1927.95 5198.54 1930.46C5199.12 1924.38 5198.63 1920.51 5199.99 1917.32C5212.46 1887.07 5224.54 1856.52 5248.22 1832.55C5256.53 1824.14 5263.1 1815.25 5255.66 1800.56C5243.48 1817.37 5232.95 1833.61 5220.67 1848.5C5193.8 1880.98 5166.16 1912.87 5138.71 1944.87C5130.78 1954.15 5122.08 1962.94 5114.64 1972.7C5092.9 2001.22 5072.5 2030.7 5049.98 2058.54C5017.41 2098.55 4978.46 2132.38 4940.08 2166.5C4924.62 2180.23 4908.96 2193.96 4892.14 2206.13C4879.87 2215.03 4863.25 2218.99 4852.71 2229.33C4834.06 2247.79 4807.86 2248.57 4787.18 2261.62C4784.57 2263.26 4779.16 2260.75 4772 2259.59C4777.9 2251.76 4781.38 2245.76 4786.12 2241.03C4807.19 2219.76 4828.55 2198.79 4849.91 2177.91C4878.9 2149.59 4908.87 2122.24 4937.19 2093.24C4970.72 2058.83 5002.91 2023.16 5035.39 1987.78C5040.7 1982.08 5044.28 1974.73 5048.63 1968.16C5047.37 1966.52 5046.11 1964.88 5044.95 1963.14C5038.38 1965.26 5030.75 1965.94 5025.33 1969.71C5014.12 1977.63 5004.26 1987.4 4993.53 1996.1C4976.91 2009.53 4959.71 2022.48 4943.18 2036.11C4916.6 2058.05 4890.79 2080.87 4863.83 2102.42C4846.52 2116.24 4826.9 2127.26 4810.28 2141.76C4785.54 2163.22 4763.21 2187.48 4738.37 2208.84C4697.1 2244.41 4654.47 2278.53 4612.62 2313.43C4598.61 2325.12 4582.27 2334.69 4572.03 2353.35C4579.18 2354.02 4585.27 2355.86 4590.87 2354.99C4627.8 2349.48 4664.81 2344.07 4701.54 2337.11C4725.71 2332.56 4749.19 2324.83 4773.26 2319.9C4793.56 2315.75 4814.43 2314.78 4834.54 2310.33C4862.09 2304.24 4889.25 2296.32 4916.6 2288.97C4934.38 2284.23 4952.46 2280.18 4969.66 2273.99C4991.89 2266.06 5013.35 2255.72 5035.48 2247.5C5059.07 2238.81 5083.13 2231.36 5107.01 2223.34C5145.48 2210.39 5183.94 2197.34 5222.41 2184.68C5231.98 2181.49 5241.65 2178.39 5251.5 2176.85C5276.05 2173.08 5298.86 2164.86 5321.97 2155.97C5345.94 2146.79 5371.16 2140.12 5396.39 2134.9C5439.88 2125.91 5484.63 2125.62 5528.61 2118.66C5554.51 2114.5 5578.87 2105.71 5604.39 2101.07C5642.76 2094.11 5680.26 2082.99 5719.5 2080.29C5759.9 2077.48 5800.31 2074.29 5840.61 2070.62C5871.93 2067.72 5903.24 2064.53 5934.37 2059.99C5956.6 2056.7 5978.44 2050.9 6002.99 2045.68C5998.54 2040.27 5997.19 2036.6 5994.87 2036.02C5971.19 2029.15 5957.76 2009.14 5941.23 1993.49C5915.71 1969.22 5893 1941.87 5867.09 1918.09C5833.27 1887.07 5809.3 1848.3 5781.17 1812.93C5778.17 1809.16 5780.78 1800.94 5780.78 1797.27C5805.24 1799.69 5827.27 1803.55 5849.21 1803.55C5892.42 1803.55 5935.53 1799.69 5978.73 1800.36C6024.74 1801.04 6069.87 1794.76 6115.4 1790.21C6157.35 1785.96 6199.29 1781.61 6241.24 1777.16C6246.46 1776.58 6251.58 1775.33 6259.99 1773.68C6255.64 1765.66 6250.91 1759.77 6248.97 1753.1C6240.76 1723.91 6224.81 1698.77 6209.44 1673.16C6199.58 1656.63 6189.44 1640.2 6181.03 1622.9C6157.06 1573.6 6134.25 1523.82 6106.6 1476.17C6085.63 1439.92 6069.87 1400.87 6046.97 1365.21C6020.58 1324.13 5998.25 1280.34 5974.77 1237.52C5956.69 1204.66 5940.94 1170.44 5921.7 1138.35C5895.03 1093.79 5866.03 1050.58 5838.1 1006.8C5823.6 984.178 5808.91 961.656 5794.8 938.748C5780.78 916.033 5767.64 892.642 5753.53 869.927C5740.96 849.725 5727.91 829.91 5714.77 810.095C5700.37 788.347 5686.25 766.309 5670.89 745.141C5647.5 713.05 5622.95 681.733 5599.17 649.932C5585.06 631.084 5572.59 610.882 5557.41 593C5534.89 566.516 5510.63 541.385 5486.76 516.06C5465.11 493.055 5443.65 469.857 5420.75 448.206C5400.06 428.777 5376.96 411.959 5355.99 392.82C5319.65 359.763 5284.17 325.643 5248.12 292.296C5220.67 266.874 5194.09 240.68 5162.1 220.382C5131.75 201.147 5102.46 180.075 5072.5 160.163C5065.83 155.717 5059.26 148.951 5048.92 154.171C5051.43 162.58 5054.04 170.409 5056.17 178.432C5064.77 210.329 5072.79 242.323 5081.97 274.124C5092.12 309.501 5103.14 344.685 5114.16 379.868C5122.08 405.289 5128.46 431.387 5139.39 455.455C5154.08 487.933 5164.13 521.57 5171.77 555.98C5184.04 610.786 5196.6 665.398 5217.48 717.787C5220 724.166 5220.67 731.222 5222.89 737.795C5228.5 754.517 5232.66 772.109 5240.97 787.477C5249.09 802.363 5255.27 817.248 5258.66 833.68C5267.55 878.046 5276.92 922.219 5286.2 966.489C5287.75 974.028 5291.52 979.441 5300.41 978.281C5308.72 977.218 5315.97 973.932 5315.78 964.266C5315.49 946.674 5316.55 928.696 5313.36 911.587C5304.57 864.998 5302.44 817.538 5294.03 770.949C5288.91 742.338 5294.71 713.534 5284.56 684.439C5275.38 658.342 5278.08 628.184 5273.54 600.25C5270.16 579.275 5266 557.72 5257.79 538.195C5243.77 504.558 5226.37 472.274 5210.33 439.41L5210.62 439.12ZM5282.92 1757.64C5278.76 1768.66 5265.42 1775.04 5266.49 1790.02C5287.85 1775.04 5289.97 1771.07 5282.92 1757.64Z" fill="white"/>
        <path fill-rule="evenodd" clip-rule="evenodd" d="M5250.15 1221.96C5245.8 1248.83 5239.91 1285.37 5233.82 1321.81C5231.79 1333.89 5227.44 1345.87 5226.76 1357.96C5225.79 1377.48 5216.81 1394.4 5206.46 1408.8C5197.76 1420.88 5182.2 1428.71 5168.38 1436.15C5164.61 1438.18 5155.82 1432.87 5150.31 1429.29C5125.76 1413.53 5102.08 1396.62 5077.14 1381.44C5063.51 1373.13 5047.95 1367.91 5033.55 1360.76C5001.94 1345.2 4970.92 1328.19 4938.73 1313.78C4915.63 1303.44 4891.08 1296.48 4867.3 1287.88C4856.67 1284.01 4846.33 1279.08 4835.6 1275.8C4786.02 1260.72 4734.5 1255.69 4683.86 1245.93C4642.39 1237.91 4601.8 1226.02 4560.62 1216.35C4541.29 1211.81 4521.77 1208.33 4502.34 1204.75C4469.09 1198.57 4435.65 1193.06 4402.4 1186.39C4372.24 1180.39 4342.47 1172.85 4312.32 1166.67C4288.35 1161.74 4263.6 1159.9 4240.41 1152.75C4215.18 1144.92 4188.79 1145.31 4163.76 1138.44C4132.83 1130.04 4101.13 1131.49 4069.81 1128.39C4028.44 1124.43 3987.46 1116.79 3946.19 1111.19C3934.01 1109.54 3921.64 1109.35 3909.37 1108.58C3865.49 1105.97 3821.6 1103.94 3777.72 1100.84C3738.77 1098.14 3699.92 1094.17 3660.97 1091.37C3628.01 1088.96 3594.95 1087.41 3561.99 1085.67C3532.51 1084.12 3503.03 1082.48 3473.55 1081.51C3466.21 1081.22 3458.77 1084.22 3451.32 1084.41C3382.02 1086.15 3312.82 1087.51 3243.52 1089.34C3214.33 1090.12 3184.65 1088.96 3156.24 1094.08C3106.17 1103.07 3055.43 1101.42 3005.26 1107.61C2984.68 1110.22 2964.19 1113.99 2943.5 1116.21C2898.37 1121.14 2853.03 1123.95 2808.19 1130.62C2777.93 1135.16 2748.36 1144.73 2718.49 1152.17C2698.39 1157.2 2678.38 1162.32 2658.28 1167.25C2619.61 1176.82 2580.76 1185.61 2542.29 1196.05C2496.48 1208.52 2452.31 1225.92 2408.72 1244.67C2379.82 1257.04 2350.14 1268.06 2325.3 1287.88C2312.83 1297.83 2301.33 1309.24 2290.6 1321.13C2267.21 1347.23 2261.22 1347.81 2239.18 1319.97C2227.3 1304.89 2217.05 1288.56 2206.52 1272.51C2203.62 1268.06 2201.68 1262.65 2200.81 1257.53C2195.69 1227.27 2190.86 1196.92 2186.31 1166.48C2183.42 1147.63 2180.9 1128.68 2178.58 1109.64C2177.81 1102.78 2178.1 1095.72 2178.1 1088.86C2178.1 1079.58 2184.09 1076.97 2191.92 1077.94C2215.41 1080.74 2238.89 1083.93 2262.38 1086.64C2268.37 1087.31 2274.66 1086.93 2280.75 1086.64C2310.52 1085.09 2340.19 1083.06 2369.96 1081.9C2400.5 1080.64 2431.04 1080.74 2461.59 1079C2504.6 1076.49 2547.61 1072.72 2590.62 1069.62C2617.3 1067.69 2644.07 1066.24 2670.74 1063.73C2686.69 1062.28 2702.35 1058.6 2718.3 1057.25C2741.98 1055.22 2765.85 1053.87 2789.63 1053.19C2834.38 1052.03 2879.13 1052.03 2923.88 1050.39C2935.77 1050 2947.47 1044.88 2959.45 1043.14C2990.48 1038.69 3021.5 1032.8 3053.21 1036.66C3059.29 1037.44 3066.54 1038.98 3071.57 1036.66C3102.31 1021.87 3136.23 1034.34 3167.35 1024.58C3168.13 1024.39 3168.9 1024.29 3169.67 1024.29C3217.32 1023.81 3265.07 1022.65 3312.72 1022.94C3359.6 1023.13 3406.38 1024.87 3453.26 1025.64C3518.69 1026.8 3584.13 1027.87 3649.46 1028.83C3658.65 1028.93 3668.12 1029.12 3677.11 1027.29C3723.31 1018.3 3769.22 1031.44 3815.42 1028.35C3828.56 1027.48 3842 1034.54 3855.43 1035.89C3873.8 1037.73 3892.36 1037.53 3910.82 1038.31C3936.91 1039.37 3963.11 1040.43 3989.2 1041.4C4015.4 1042.37 4041.49 1043.04 4067.69 1043.91C4075.42 1044.2 4083.63 1042.95 4090.69 1045.27C4126.93 1057.44 4165.21 1054.45 4202.13 1060.73C4207.83 1061.7 4214.31 1059.57 4220.21 1058.22C4240.89 1053.67 4259.35 1063.73 4278.87 1067.01C4321.4 1074.07 4363.45 1084.22 4406.07 1090.5C4456.33 1097.94 4507.07 1102.68 4557.53 1108.48C4612.62 1114.76 4667.81 1120.95 4722.9 1127.33C4757.22 1131.29 4791.33 1136.12 4825.65 1139.8C4872.91 1144.92 4920.17 1150.33 4967.54 1153.81C5038.38 1158.94 5109.33 1163.58 5180.27 1154.97C5184.14 1154.49 5188 1154.68 5191.77 1154.01C5240.49 1145.98 5249.67 1177.78 5250.44 1222.15L5250.15 1221.96Z" fill="white"/>
        <path fill-rule="evenodd" clip-rule="evenodd" d="M2725.16 203.756C2739.56 197.763 2754.45 192.06 2768.95 185.294C2793.79 173.502 2818.24 160.936 2842.98 149.047C2847.24 147.018 2854.29 144.988 2856.8 147.018C2859.99 149.531 2861.35 156.49 2860.67 161.13C2858.74 175.532 2854.97 189.741 2853.03 204.143C2851.87 212.359 2852.84 220.865 2852.84 230.434C2876.91 232.657 2873.33 204.239 2890.34 197.377C2909.19 218.932 2927.94 240.196 2942.54 265.521C2956.26 289.299 2974.53 310.37 2990.86 332.699C3007.1 354.93 3023.34 377.065 3039.48 399.296C3049.73 413.409 3049.63 416.212 3037.55 429.067C3014.54 453.618 2993.18 479.813 2966.22 500.595C2960.9 504.751 2957.71 512.967 2955.68 519.926C2950.46 538.291 2939.06 547.764 2920.31 551.63C2904.84 554.82 2890.34 562.263 2875.17 566.612C2837.76 577.341 2803.16 596.576 2764.02 602.473C2758.41 603.343 2751.84 611.559 2749.52 617.745C2745.46 628.377 2744.78 640.266 2742.17 651.479C2735.5 679.896 2728.25 708.12 2721.87 736.538C2718.97 749.297 2717.24 762.346 2715.59 775.298C2711.82 805.166 2708.73 835.033 2704.77 864.804C2703.9 870.99 2700.51 876.886 2696.16 882.589C2694.72 799.269 2684.57 717.303 2676.74 632.437C2686.4 627.604 2686.31 616.488 2686.11 603.149C2685.82 581.014 2690.17 558.783 2691.43 536.551C2693.84 494.408 2694.23 452.072 2697.71 410.025C2700.61 374.358 2706.8 338.981 2711.24 303.411C2713.56 285.143 2714.72 266.681 2717.24 248.509C2719.17 234.107 2722.36 219.801 2725.35 203.756H2725.16ZM2936.64 480.586C2932.48 474.4 2929.1 468.407 2924.75 463.284C2917.31 454.488 2907.55 447.239 2901.75 437.573C2881.35 403.839 2863.09 368.752 2835.83 339.851C2832.74 336.565 2827.13 332.022 2824.13 332.892C2820.37 334.052 2816.11 339.948 2815.63 344.201C2810.89 390.114 2793.4 432.837 2782.48 477.203C2775.32 506.007 2768.08 534.812 2761.21 563.713C2758.7 574.538 2764.6 579.565 2775.32 576.182C2777.55 575.505 2779.48 574.152 2781.51 573.088C2825.2 549.31 2868.98 525.629 2912.67 501.851C2918.08 498.951 2923.69 496.342 2928.42 492.475C2931.71 489.769 2933.55 485.322 2936.64 480.586Z" fill="white"/>
        <path fill-rule="evenodd" clip-rule="evenodd" d="M2523.64 592.227C2480.53 522.923 2425.34 466.184 2344.73 445.886C2274.08 428.101 2226.33 431.967 2199.56 446.853C2210.38 507.554 2240.73 562.939 2253.3 623.641C2265.67 683.473 2281.13 742.724 2295.82 804.779C2280.55 813.962 2264.99 824.498 2244.89 825.561C2227.2 826.431 2209.51 827.591 2191.92 828.847C2182.25 829.524 2175.3 826.237 2172.2 816.572C2153.55 758.093 2129.68 701.741 2104.55 645.776C2096.14 626.927 2090.34 606.919 2082.99 587.587C2067.53 546.701 2051.58 506.008 2036.5 464.928C2033.5 456.808 2033.12 447.722 2031.57 439.12C2062.89 428.584 2091.01 419.015 2119.24 409.542C2140.11 402.486 2145.14 394.657 2146.59 363.34C2169.5 361.31 2192.89 357.733 2216.28 357.54C2244.69 357.347 2273.21 359.087 2301.53 361.696C2331.97 364.596 2358.94 377.742 2385.13 393.304C2417.61 412.635 2443.61 437.863 2468.06 466.861C2492.51 495.762 2505.95 529.399 2522.57 561.876C2526.83 570.189 2527.31 580.531 2529.53 589.907C2527.5 590.68 2525.57 591.454 2523.54 592.227H2523.64Z" fill="white"/>
        <path fill-rule="evenodd" clip-rule="evenodd" d="M4237.41 489.672C4232 490.156 4225.81 492.476 4221.27 490.736C4212.76 487.546 4205.22 489.189 4196.72 489.866C4173.33 491.799 4149.75 490.832 4126.26 491.509C4103.93 492.186 4081.6 492.766 4059.37 494.505C4038.69 496.149 4018.2 499.145 3997.61 501.465C3979.54 503.591 3979.44 504.655 3977.51 522.053C3973.64 556.367 3968.71 590.584 3964.17 624.801C3962.33 638.43 3960.5 652.059 3958.56 666.848C3908.98 662.981 3860.94 659.308 3811.36 655.539C3810.49 650.706 3808.56 645.583 3808.85 640.653C3812.33 591.551 3816.1 542.448 3819.86 493.346C3819.86 492.572 3820.35 491.799 3820.35 491.122C3819.77 423.945 3831.17 357.347 3829.82 290.169C3829.53 277.99 3831.46 265.715 3832.62 251.023C3841.23 250.249 3849.34 248.703 3857.37 249.089C3894.96 250.926 3932.66 253.149 3970.26 255.469C3977.12 255.855 3985.92 255.275 3990.36 259.142C4011.14 276.83 4034.53 268.131 4056.57 266.101C4076.29 264.361 4095.33 259.335 4115.24 265.811C4122.88 268.324 4131.86 267.358 4140.08 266.875C4176.81 264.555 4211.8 274.897 4247.17 281.47C4267.28 285.24 4287.19 290.169 4307.87 294.712C4306.61 304.571 4299.85 303.508 4294.05 303.218C4270.95 301.962 4247.95 299.738 4224.85 299.448C4199.62 299.062 4174.39 300.512 4149.17 300.705C4131.67 300.898 4113.79 297.902 4096.68 300.608C4072.71 304.378 4046.91 299.352 4024.77 313.464C3996.26 310.854 3996.74 329.413 3996.16 349.904C3995.29 379.772 3991.52 409.446 3989.4 439.217C3988.33 454.102 3991.04 457.292 4005.15 458.742C4019.75 460.192 4034.34 460.868 4048.93 462.221C4079.38 465.025 4109.73 468.311 4140.18 471.017C4166.27 473.434 4192.37 475.174 4218.37 477.59C4224.85 478.17 4231.13 480.297 4237.6 481.746C4237.51 484.356 4237.41 486.966 4237.22 489.576L4237.41 489.672Z" fill="white"/>
        <path fill-rule="evenodd" clip-rule="evenodd" d="M2892.47 1315.43C2894.79 1327.51 2896.43 1334.66 2897.59 1341.91C2903.78 1381.35 2907.06 1421.46 2916.63 1460.03C2929.2 1510.68 2935.77 1562.68 2953.36 1612.46C2966.31 1649.09 2982.84 1683.79 3003.33 1715.69C3022.86 1746.14 3048.08 1773.3 3082.78 1789.83C3114.48 1804.9 3137.97 1830.13 3155.85 1860.58C3171.7 1887.64 3187.75 1914.61 3205.34 1944.29C3193.45 1950.38 3180.69 1959.85 3166.48 1963.52C3111.78 1977.63 3058.13 1971.54 3011.55 1939.74C2984.29 1921.09 2961.48 1894.7 2939.93 1869.09C2922.92 1848.79 2909.48 1825.01 2896.82 1801.52C2877.78 1766.24 2865.21 1728.16 2862.51 1688.04C2859.61 1645.03 2858.45 1601.92 2858.93 1558.81C2859.22 1531.65 2863.76 1504.49 2866.57 1477.33C2869.66 1448.23 2872.66 1419.24 2876.23 1390.24C2878.74 1369.75 2882.13 1349.35 2885.51 1328.96C2886.09 1325.67 2888.6 1322.77 2892.37 1315.62L2892.47 1315.43Z" fill="white"/>
        <path fill-rule="evenodd" clip-rule="evenodd" d="M2431.62 1996.29C2438.97 1996.29 2444.28 1995.13 2448.73 1996.48C2478.21 2005.57 2507.88 2009.72 2538.43 2002.67C2539.88 2002.28 2541.52 2002.67 2543.06 2002.67C2571.48 2004.31 2595.16 1990.59 2618.07 1977.05C2667.56 1947.77 2674.22 1921.48 2666.59 1868.8C2662.24 1838.64 2644.07 1817.66 2618.55 1801.62C2584.72 1780.45 2547.32 1770.59 2508.85 1762.86C2501.99 1761.51 2495.61 1757.74 2487.2 1754.35C2527.02 1719.56 2564.14 1687.08 2604.25 1651.99C2629.38 1654.79 2656.15 1663.98 2682.15 1678.67C2708.63 1693.65 2732.02 1711.24 2751.93 1734.05C2767.21 1751.55 2777.55 1771.85 2787.02 1792.82C2803.84 1829.84 2804.71 1869.67 2805.38 1908.91C2805.67 1923.31 2799.1 1938.58 2793.01 1952.31C2777.93 1986.24 2757.15 2015.23 2722.94 2033.89C2694.91 2049.16 2666.3 2058.15 2634.89 2064.34C2595.26 2072.17 2558.05 2066.17 2520.64 2058.15C2500.05 2053.7 2479.08 2047.42 2463.62 2030.6C2455.88 2022.19 2446.22 2015.72 2437.81 2007.89C2435.39 2005.57 2434.43 2001.7 2431.62 1996.19V1996.29Z" fill="white"/>
        <path fill-rule="evenodd" clip-rule="evenodd" d="M4646.84 598.027C4662.01 591.261 4674.38 585.655 4686.85 580.242C4717.59 566.806 4748.42 553.661 4778.96 539.742C4786.99 536.069 4791.82 539.839 4797.91 543.512C4859.09 580.338 4901.81 645.196 4909.93 716.82C4916.98 779.165 4902.1 836.194 4860.06 883.363C4842.08 903.565 4821.97 920.963 4792.78 929.276C4745.04 942.808 4706.67 942.615 4656.12 929.856C4625.19 922.026 4598.41 908.301 4573.67 891.386C4546.7 873.021 4524.09 848.083 4512 816.185C4511.04 813.769 4512.39 810.483 4512.87 804.49C4531.92 813.092 4549.12 820.825 4566.23 828.751C4604.99 846.826 4646.93 855.719 4687.72 846.343C4739.91 834.454 4780.8 802.653 4773.45 736.829C4769.78 704.255 4751.51 676.61 4726.09 655.249C4707.34 639.493 4687.53 624.898 4667.91 610.109C4662.49 606.05 4656.02 603.247 4646.84 598.027V598.027Z" fill="white"/>
        <path fill-rule="evenodd" clip-rule="evenodd" d="M3494.72 1836.03C3517.72 1845.02 3535.99 1851.01 3553.2 1859.23C3588.28 1876.05 3625.3 1882.42 3663.29 1876.92C3679.23 1874.6 3694.79 1865.9 3709.1 1857.58C3720.21 1851.11 3729.11 1840.96 3738.68 1832.16C3741.38 1829.65 3744.38 1826.17 3744.86 1822.79C3748.63 1795.34 3754.04 1767.79 3745.34 1740.24C3743.99 1735.89 3742.25 1731.25 3739.35 1727.96C3720.12 1705.83 3707.55 1677.8 3678.56 1664.36C3662.8 1657.11 3648.88 1646.09 3634.29 1636.43C3628.68 1632.76 3623.56 1628.31 3616.31 1622.7C3621.92 1618.06 3625.3 1613.04 3629.55 1611.97C3668.7 1602.5 3703.01 1582.2 3738.29 1564.42C3749.21 1558.91 3755.98 1559.01 3764.97 1566.25C3783.91 1581.53 3806.14 1593.61 3822.28 1611.2C3839 1629.47 3851.95 1651.8 3863.26 1674.13C3894.19 1735.31 3891.58 1797.46 3868.77 1861.35C3858.91 1888.9 3839.49 1908.33 3821.99 1928.53C3801.69 1952.02 3770.18 1960.43 3739.45 1964.49C3721.95 1966.81 3703.98 1966.03 3686.29 1965.65C3661.45 1965.16 3637.67 1959.46 3615.73 1947.28C3611.77 1945.06 3606.84 1944.67 3602.59 1942.93C3562.77 1926.69 3528.84 1902.92 3505.74 1865.9C3501.1 1858.45 3499.36 1849.08 3494.62 1836.13L3494.72 1836.03Z" fill="white"/>
        <path fill-rule="evenodd" clip-rule="evenodd" d="M4472.96 1286.04C4481.46 1288.94 4480.4 1296.58 4480.11 1302.96C4478.95 1332.92 4477.89 1362.98 4475.95 1392.85C4472.67 1441.86 4468.8 1490.86 4465.03 1539.87C4463.87 1554.95 4462.42 1569.93 4460.78 1587.62C4452.08 1586.26 4444.73 1585.1 4437.39 1583.85C4417.67 1580.46 4411 1585.2 4410.23 1604.05C4409.55 1620.96 4409.45 1637.88 4408.87 1654.7C4408.29 1672.29 4407.52 1689.88 4406.94 1707.47C4406.36 1724.97 4411.29 1730.86 4427.43 1732.41C4443.38 1733.96 4446.76 1735.7 4446.18 1752.03C4444.64 1799.69 4446.67 1848.4 4437.48 1894.7C4429.46 1935.1 4428.3 1975.31 4423.47 2015.62C4421.92 2028.48 4418.83 2041.33 4415.45 2053.9C4414.48 2057.57 4410.03 2060.37 4403.75 2067.43C4402.98 2050.8 4402.21 2038.92 4402.01 2027.12C4401.63 2001.8 4400.95 1976.86 4397.57 1951.44C4391.77 1907.56 4392.06 1862.9 4389.25 1818.53C4388.48 1806.45 4385.29 1794.56 4383.55 1782.48C4382.39 1774.94 4381.33 1767.3 4381.13 1759.77C4380.65 1741.69 4373.11 1734.15 4354.84 1732.31C4306.9 1727.39 4258.96 1721.97 4209.96 1716.66C4209.96 1688.53 4210.54 1659.72 4209.77 1630.92C4209.09 1602.7 4207.16 1574.57 4205.61 1543.93C4220.69 1543.93 4233.16 1545.67 4244.85 1543.64C4287.77 1536.1 4331.07 1534.26 4374.47 1533C4388.38 1532.62 4396.41 1527.01 4396.99 1515.22C4398.15 1489.31 4410.13 1466.89 4418.25 1443.31C4435.84 1392.17 4464.64 1344.81 4469.48 1289.33C4469.48 1288.27 4471.41 1287.4 4472.96 1285.95V1286.04Z" fill="white"/>
        <path fill-rule="evenodd" clip-rule="evenodd" d="M4009.98 2025.48C4013.17 2011.37 4016.07 1997.16 4019.46 1983.05C4022.35 1971.16 4026.7 1959.56 4028.93 1947.57C4034.05 1919.54 4038.5 1891.51 4042.56 1863.29C4044.97 1846.57 4045.55 1829.65 4047.87 1812.93C4049.13 1803.94 4053.09 1795.34 4054.44 1786.35C4059.86 1750.49 4064.59 1714.63 4069.72 1678.77C4070.78 1671.13 4073.39 1663.78 4074.45 1656.15C4075.71 1647.06 4078.51 1637.11 4076.19 1628.79C4066.24 1593.13 4069.52 1556.69 4067.88 1520.54C4064.69 1449.88 4063.05 1379.22 4060.05 1308.56C4059.37 1293.29 4055.7 1278.21 4053.67 1263.04C4053.19 1259.65 4053.96 1256.17 4054.35 1251.15C4072.23 1258.2 4076.09 1273.48 4082.47 1286.72C4087.5 1296.96 4092.14 1307.4 4096.78 1317.75C4103.35 1332.44 4109.63 1347.23 4116.4 1361.82C4127.8 1386.08 4140.85 1409.57 4150.81 1434.32C4160.28 1457.61 4167.63 1481.97 4174.2 1506.23C4185.7 1548.57 4179.42 1591.19 4174.49 1633.92C4171.88 1657.02 4173.62 1680.7 4173.23 1704.09C4173.23 1709.31 4172.46 1714.53 4171.78 1719.75C4166.47 1759.77 4154.29 1797.27 4133.41 1832.26C4114.95 1863.19 4100.06 1896.15 4081.8 1927.18C4067.88 1950.76 4050.96 1972.51 4035.98 1995.42C4031.05 2003.06 4028.15 2011.95 4023.42 2019.78C4021.29 2023.26 4016.85 2025.29 4013.37 2027.9C4012.21 2027.12 4011.05 2026.25 4009.89 2025.48H4009.98Z" fill="white"/>
        <path fill-rule="evenodd" clip-rule="evenodd" d="M3663.38 117.924C3663.67 124.593 3665.12 131.456 3664.06 137.835C3660.1 162.773 3655.36 187.614 3651.01 212.456C3648.4 227.534 3646.08 242.613 3643.66 257.692C3638.44 291.039 3633.03 324.386 3628.01 357.83C3620.18 409.736 3612.93 461.641 3604.91 513.45C3602.3 530.559 3598.91 547.667 3594.95 564.583C3586.54 600.346 3577.46 636.013 3568.76 671.68C3567.89 675.45 3567.31 679.316 3566.63 683.086C3559.67 720.01 3553 756.933 3545.75 793.857C3544.5 800.236 3541.21 806.229 3538.02 814.638C3520.62 796.853 3505.35 781.098 3489.98 765.536C3479.74 755.193 3469.49 744.948 3458.86 734.992C3449.58 726.292 3446.3 717.496 3450.65 704.158C3463.5 665.011 3475 625.284 3486.7 585.751C3489.31 576.955 3489.89 567.579 3492.11 558.59C3501 522.923 3509.99 487.352 3519.27 451.782C3529.71 411.669 3539.66 371.362 3551.65 331.732C3556.68 315.107 3566.05 299.738 3573.98 284.176C3584.42 263.781 3595.82 243.87 3606.07 223.281C3619.98 195.347 3633.23 167.026 3646.76 138.898C3650.43 131.359 3654.39 124.013 3658.26 116.57C3659.9 117.054 3661.64 117.44 3663.28 117.924H3663.38Z" fill="white"/>
        <path fill-rule="evenodd" clip-rule="evenodd" d="M2181.87 872.634C2201.2 862.291 2215.12 853.399 2234.55 852.722C2252.62 852.045 2270.6 845.473 2288.48 841.026C2356.23 824.498 2417.32 794.63 2465.65 743.788C2494.64 713.244 2517.74 677.673 2530.98 636.787C2532.14 633.307 2533.3 629.731 2537.94 625.961C2540.46 635.337 2544.71 644.616 2545.19 654.089C2546.45 679.51 2547.03 705.124 2546.16 730.545C2544.9 770.079 2530.21 805.359 2508.27 837.836C2502.37 846.632 2495.61 855.042 2490.78 864.418C2482.27 880.946 2467.77 890.322 2453.66 901.148C2430.08 919.416 2409.39 941.551 2385.42 959.143C2358.94 978.475 2333.13 999.74 2300.66 1009.31C2279.68 1015.49 2272.72 1011.73 2263.93 990.847C2259.58 980.505 2252.52 971.225 2245.95 961.946C2225.56 933.142 2204.87 904.531 2181.77 872.537L2181.87 872.634Z" fill="white"/>
        <path fill-rule="evenodd" clip-rule="evenodd" d="M3870.51 1357.47C3858.24 1348.97 3846.16 1340.17 3833.69 1331.96C3798.31 1308.56 3758.2 1301.89 3719.34 1314.07C3695.86 1321.42 3671.02 1335.53 3660.77 1364.43C3652.65 1387.24 3641.05 1408.32 3642.21 1433.93C3642.89 1448.53 3646.47 1460.8 3654.2 1472.69C3666.28 1491.06 3680.97 1505.94 3700.88 1516.09C3707.55 1519.47 3712.1 1527.21 3716.35 1531.75C3712.77 1544.8 3705.04 1548.66 3696.15 1552.82C3684.55 1558.23 3674.11 1566.16 3663.19 1572.93C3643.86 1585.1 3624.72 1597.67 3605 1608.98C3601.62 1610.91 3593.89 1609.56 3590.51 1606.85C3562.38 1583.85 3537.25 1558.43 3525.36 1522.66C3523.43 1516.86 3521.2 1511.06 3518.59 1505.46C3503.9 1474.33 3502.94 1443.69 3513.86 1410.35C3520.43 1390.14 3528.55 1372.26 3541.21 1355.64C3547.01 1348 3553.1 1344.91 3562.67 1346.16C3584.03 1349.06 3605.39 1352.06 3626.85 1353.32C3637.19 1353.9 3647.72 1350.8 3662.32 1348.87C3655.26 1334.37 3649.75 1323.06 3643.57 1310.5C3665.12 1293.49 3685.13 1275.02 3713.84 1269.71C3728.72 1266.9 3742.45 1260.91 3758.49 1260.33C3807.4 1258.59 3853.69 1292.62 3871.86 1336.02C3874.28 1341.72 3873.89 1348.58 3874.76 1354.96C3873.31 1355.73 3871.86 1356.51 3870.42 1357.38L3870.51 1357.47Z" fill="white"/>
        <path fill-rule="evenodd" clip-rule="evenodd" d="M2423.31 1452.49C2432.59 1424.65 2453.56 1410.34 2473.09 1394.3C2507.21 1366.27 2547.22 1357.47 2588.88 1364.82C2619.13 1370.13 2645.9 1386.57 2662.82 1417.01C2654.41 1422.72 2646.77 1420.4 2639.43 1416.34C2619.03 1405.32 2596.13 1403.39 2574.67 1406C2548.28 1409.09 2520.16 1412.86 2498.12 1428.81C2484.49 1438.67 2473.76 1454.52 2465.74 1469.79C2443.03 1513 2445.15 1562 2480.53 1599.51C2497.06 1617 2518.9 1624.44 2541.32 1630.24C2549.35 1632.37 2557.85 1632.76 2569.84 1634.5C2565.97 1641.07 2564.04 1646.58 2560.37 1650.44C2543.26 1667.84 2524.99 1684.08 2508.46 1701.96C2498.7 1712.6 2491.45 1725.45 2483.43 1737.53C2472.99 1753.39 2466.71 1756.96 2452.02 1748.17C2412.29 1724.49 2374.6 1698.39 2348.69 1658.18C2326.17 1623.28 2328.11 1585.59 2331.49 1547.21C2332.07 1541.12 2333.81 1535.13 2334.77 1529.04C2336.32 1519.76 2340.28 1515.12 2350.82 1513C2379.24 1507.2 2407.27 1499.56 2435.2 1491.73C2449.21 1487.87 2450.86 1479.26 2440.9 1467.86C2438.39 1464.96 2435.78 1462.06 2432.88 1459.54C2429.98 1457.03 2426.79 1455.1 2423.12 1452.49H2423.31Z" fill="white"/>
        <path fill-rule="evenodd" clip-rule="evenodd" d="M4757.8 512.194C4755.28 515.19 4753.74 518.96 4751.32 519.54C4716.23 528.433 4689.07 551.534 4659.89 570.962C4629.34 591.261 4627.99 593.097 4604.21 565.163C4585.27 542.932 4565.94 520.507 4557.43 490.253C4549.99 463.961 4543.42 438.637 4547.77 411.379C4552.6 381.802 4560.91 353.771 4580.53 329.993C4587.59 321.487 4595.03 318.974 4606.24 318.49C4627.6 317.62 4647.13 324.387 4667.04 329.219C4679.51 332.313 4689.46 330.476 4699.22 324.29C4704.06 309.984 4695.65 302.058 4684.24 294.036C4687.72 289.106 4689.75 284.177 4693.42 281.18C4710.73 266.971 4729.77 256.532 4752.38 252.183C4771.81 248.51 4791.04 244.74 4810.86 242.227C4843.04 238.167 4866.72 252.473 4887.6 271.611C4905.1 287.656 4916.6 309.211 4924.62 332.023C4925.3 333.859 4924.33 336.276 4923.75 341.978C4914.76 335.019 4907.13 329.799 4900.26 323.71C4885.57 310.758 4869.72 300.802 4850.1 296.742C4821.49 290.749 4793.85 286.206 4763.79 292.972C4733.63 299.739 4715.56 318.49 4700.77 341.688C4691.88 355.511 4686.27 372.232 4682.21 388.374C4673.8 421.722 4684.34 450.236 4709.76 472.757C4721.74 483.39 4735.47 492.186 4748.13 502.045C4751.61 504.751 4754.41 508.521 4757.99 512.194H4757.8Z" fill="white"/>
        <path fill-rule="evenodd" clip-rule="evenodd" d="M3215.49 1902.14C3192.19 1870.83 3168.9 1839.51 3143.19 1805.1C3169.29 1763.44 3196.25 1720.14 3222.93 1677.41C3232.11 1679.83 3239.07 1681.57 3247.96 1683.89C3247.96 1675.48 3248.93 1669.39 3247.77 1663.69C3243.9 1643.49 3253.57 1629.66 3268.16 1617.77C3275.32 1611.97 3281.69 1610.23 3291.26 1613.91C3312.82 1622.22 3317.55 1614.68 3316.97 1591.58C3316.2 1560.94 3309.63 1531.17 3304.99 1501.49C3296.97 1450.55 3300.35 1398.75 3288.75 1348.19C3282.95 1323.06 3285.08 1296.09 3283.34 1270C3282.37 1254.92 3280.83 1239.94 3279.47 1222.92C3293.78 1229.3 3294.07 1239.94 3294.36 1249.6C3295.13 1272.7 3299.48 1294.74 3306.73 1316.88C3312.24 1333.98 3311.56 1353.12 3314.56 1371.2C3320.55 1407.45 3326.83 1443.69 3333.6 1479.84C3335.34 1489.31 3339.49 1498.4 3342.3 1507.68C3343.55 1511.93 3344.33 1516.38 3344.91 1520.73C3345.78 1527.59 3345 1534.94 3347.03 1541.41C3356.22 1570.7 3359.7 1601.15 3365.2 1631.21C3367.72 1644.94 3374.1 1657.98 3377.87 1671.61C3379.99 1679.54 3380.38 1687.95 3382.02 1698.68H3330.02C3325.19 1674.71 3320.36 1650.35 3315.43 1625.99C3313.59 1625.7 3311.75 1625.51 3309.92 1625.22C3296.97 1646 3294.45 1674.51 3265.26 1685.53C3269.61 1690.85 3271.93 1696.16 3275.9 1697.81C3288.56 1703.22 3301.7 1707.96 3314.94 1711.73C3334.47 1717.24 3336.69 1720.23 3334.18 1741.21C3328.48 1788.76 3307.12 1828.49 3273.96 1862.51C3253.18 1883.88 3245.35 1889.67 3215.39 1902.05L3215.49 1902.14Z" fill="white"/>
        <path fill-rule="evenodd" clip-rule="evenodd" d="M4259.06 800.527C4255.68 803.426 4254.61 805.07 4253.36 805.263C4226.97 809.516 4202.71 822.371 4175.07 822.468C4157.57 822.468 4140.27 828.171 4122.78 830.587C4103.06 833.294 4083.34 835.13 4063.63 837.547C4043.23 839.963 4022.93 843.056 4002.44 845.086C3987.17 846.536 3971.61 848.179 3956.34 847.116C3923.38 844.7 3890.62 840.35 3857.75 837.354C3847.22 836.387 3836.49 837.547 3825.86 837.547C3812.52 837.547 3809.72 834.744 3809.72 821.405C3809.72 785.931 3809.72 750.554 3809.72 715.081C3809.72 698.649 3812.81 694.492 3829.63 694.202C3854.18 693.816 3879.4 691.689 3903.08 696.425C3941.17 704.061 3978.28 716.627 4015.78 727.066C4039.46 733.639 4063.43 739.148 4086.73 746.785C4107.7 753.647 4127.9 762.926 4148.78 770.369C4161.73 775.009 4175.16 778.199 4188.5 781.775C4211.12 787.961 4233.74 793.857 4258.96 800.623L4259.06 800.527Z" fill="white"/>
        <path fill-rule="evenodd" clip-rule="evenodd" d="M4731.99 1655.47C4733.34 1655.08 4735.86 1653.34 4737.6 1653.92C4763.02 1662.33 4788.24 1670.94 4813.57 1679.54C4815.69 1680.31 4817.72 1681.67 4819.85 1682.34C4835.83 1687.05 4842.72 1698.16 4840.53 1715.69C4836.09 1751.26 4833.86 1787.31 4826.9 1822.4C4820.23 1855.84 4812.02 1889 4790.56 1918.19C4772.1 1943.32 4759.54 1972.8 4744.07 2000.16C4725.51 2033.12 4706.76 2065.88 4687.91 2098.65C4687.24 2099.81 4685.31 2100.1 4682.02 2101.94C4680.57 2097.01 4678.15 2092.46 4678.15 2087.92C4677.96 2024.9 4676.32 1961.69 4678.93 1898.76C4679.89 1874.31 4684.53 1849.37 4694.68 1825.4C4704.73 1801.91 4707.73 1775.52 4713.91 1750.39C4716.81 1738.6 4720.78 1727.1 4722.9 1715.11C4726.38 1695.58 4728.9 1675.87 4731.89 1655.47H4731.99Z" fill="white"/>
        <path fill-rule="evenodd" clip-rule="evenodd" d="M3472.88 538.485C3463.4 564.486 3453.06 590.68 3444.27 617.455C3435.28 644.616 3423.87 670.134 3403.19 694.491C3394.68 688.982 3386.27 684.342 3378.83 678.543C3360.95 664.431 3342.68 650.898 3334.18 627.797C3331.57 620.644 3322.1 616.295 3317.36 609.529C3296.87 580.144 3276.96 550.47 3255.12 518.283C3264.39 510.454 3271.74 503.108 3280.25 497.308C3307.41 478.75 3335.34 461.158 3362.21 442.213C3370.91 436.123 3377.48 427.134 3385.12 419.498C3398.16 406.352 3404.64 405.482 3414.11 420.561C3426.29 439.893 3436.05 460.771 3446.3 481.263C3455.38 499.628 3463.6 518.476 3472.88 538.485V538.485Z" fill="white"/>
        <path fill-rule="evenodd" clip-rule="evenodd" d="M4851.84 1645.23C4818.69 1650.54 4789.4 1641.36 4760.31 1632.27C4748.61 1628.6 4744.26 1619.22 4747.16 1606.27C4755.38 1569.06 4764.76 1532.13 4772.29 1494.73C4775.58 1478.3 4775.48 1461.28 4777.03 1442.44C4784.38 1442.82 4790.37 1442.53 4796.07 1443.6C4814.05 1446.98 4832.03 1450.84 4850 1454.42C4855.32 1455.48 4860.83 1455.39 4865.95 1456.84C4875.42 1459.45 4880.45 1465.73 4877.65 1475.98C4874.65 1487.09 4868.85 1497.92 4868.27 1509.03C4866.24 1547.41 4857.64 1584.81 4852.03 1622.61C4850.97 1629.95 4851.84 1637.59 4851.84 1645.23V1645.23Z" fill="white"/>
        <path fill-rule="evenodd" clip-rule="evenodd" d="M3137.39 828.364C3131.3 815.025 3125.79 801.396 3119.03 788.54C3105.69 763.216 3097.67 735.378 3079.4 712.277C3069.15 699.228 3062.58 683.086 3054.94 668.104C3034.36 627.894 3013.87 587.587 2993.96 546.99C2990.09 539.064 2989.03 529.689 2986.13 518.67C3005.55 510.26 3023.34 502.528 3041.8 494.505C3088.68 602.183 3119.51 712.953 3145.41 825.174C3142.71 826.237 3140.1 827.3 3137.39 828.267V828.364Z" fill="white"/>
        <path fill-rule="evenodd" clip-rule="evenodd" d="M3111.87 138.995C3125.02 162.676 3138.74 186.068 3151.21 210.136C3172.28 250.732 3192.87 291.619 3213.26 332.602C3231.63 369.526 3249.8 406.546 3267.39 443.856C3273.67 457.195 3271.64 464.928 3260.82 471.211C3249.8 477.687 3237.62 482.23 3223.7 488.802C3214.52 425.588 3186.68 370.589 3167.64 312.691C3148.7 254.889 3126.56 198.15 3105.78 140.928C3107.81 140.252 3109.84 139.575 3111.87 138.898V138.995Z" fill="white"/>
        <path fill-rule="evenodd" clip-rule="evenodd" d="M3175.96 1248.64C3180.11 1266.13 3185.04 1283.53 3188.23 1301.12C3191.9 1321.32 3194.22 1341.81 3196.93 1362.31C3201.57 1397.3 3206.21 1432.19 3210.56 1467.18C3214.62 1499.95 3218.1 1532.81 3221.87 1565.58C3223.9 1582.98 3226.51 1600.38 3228.34 1617.77C3229.5 1628.5 3230.37 1639.33 3230.18 1650.06C3229.99 1663.3 3226.22 1666.68 3213.46 1665.62C3205.14 1664.94 3196.93 1662.82 3189.1 1661.46C3183.88 1522.86 3178.66 1385.31 3173.54 1247.86C3174.31 1248.15 3175.09 1248.44 3175.86 1248.64H3175.96Z" fill="white"/>
        <path fill-rule="evenodd" clip-rule="evenodd" d="M4753.64 1456.55C4731.8 1554.17 4710.63 1648.61 4689.46 1743.04C4688.01 1743.24 4686.46 1743.43 4685.01 1743.53C4683.08 1735.02 4679.89 1726.52 4679.6 1718.01C4678.83 1695.1 4678.83 1672.1 4679.6 1649.19C4680.18 1633.14 4681.83 1617 4684.63 1601.25C4688.59 1578.72 4694.49 1556.49 4698.93 1533.97C4704.15 1508.07 4708.6 1481.97 4713.82 1456.06C4715.36 1448.24 4720.39 1444.18 4728.99 1447.46C4737.5 1450.75 4746.1 1453.84 4753.45 1456.55H4753.64Z" fill="white"/>
        <path fill-rule="evenodd" clip-rule="evenodd" d="M4941.83 1487.96C4939.6 1505.55 4938.64 1519.18 4936.12 1532.52C4930.23 1564.13 4924.72 1595.83 4916.98 1626.96C4905.87 1671.42 4894.08 1715.98 4871.94 1756.67C4868.17 1763.63 4862.09 1769.33 4854.45 1774.46C4857.74 1725.26 4876.87 1680.02 4883.93 1631.89C4890.98 1584.33 4897.94 1536.68 4903.45 1485.93C4915.44 1486.61 4926.36 1487.09 4941.83 1487.96V1487.96Z" fill="white"/>
        <path fill-rule="evenodd" clip-rule="evenodd" d="M3322.48 384.702C3329.25 366.24 3317.55 352.224 3310.4 337.532C3294.36 304.572 3274.25 273.931 3262.17 238.651C3253.28 212.843 3237.81 189.258 3225.83 164.417C3222.74 157.941 3221.77 150.498 3219.84 143.442C3221.58 142.669 3223.22 141.992 3224.96 141.219C3277.25 222.025 3329.54 302.735 3383.66 386.441C3368.88 395.721 3355.73 403.937 3342.78 412.056C3334.95 401.52 3328.48 392.821 3321.9 384.025L3322.48 384.702V384.702Z" fill="white"/>
        <path fill-rule="evenodd" clip-rule="evenodd" d="M4405.4 143.635C4415.25 188.871 4396.89 309.211 4374.85 342.365C4368.38 278.087 4362.19 217.579 4355.81 154.267C4372.63 150.691 4388.48 147.308 4405.49 143.635H4405.4Z" fill="white"/>
        <path fill-rule="evenodd" clip-rule="evenodd" d="M2041.53 320.616C2048 321.583 2053.22 323.323 2058.25 322.839C2078.35 321.1 2086.18 334.148 2093.53 349.517C2101.26 365.562 2095.94 379.868 2089.37 393.69C2084.54 403.936 2069.07 406.352 2064.43 397.363C2054.38 377.935 2046.36 357.346 2038.63 336.855C2037.08 332.699 2040.27 326.802 2041.43 320.616H2041.53Z" fill="white"/>
        <path fill-rule="evenodd" clip-rule="evenodd" d="M3910.72 146.148C3939.81 142.088 3951.99 151.657 3953.83 177.755C3954.79 192.06 3952.28 205.399 3943.58 216.998C3939.04 223.088 3933.82 231.497 3925.22 227.534C3919.03 224.731 3912.56 217.965 3910.33 211.585C3906.47 200.18 3904.15 187.807 3904.15 175.725C3904.15 165.576 3908.4 155.427 3910.62 146.051L3910.72 146.148Z" fill="white"/>
        <path fill-rule="evenodd" clip-rule="evenodd" d="M4425.21 1641.26C4434.2 1618.64 4451.89 1623.28 4467.25 1625.02C4481.27 1626.67 4493.06 1632.66 4496.44 1649.38C4500.02 1666.88 4492.67 1676.25 4474.21 1672.68C4454.5 1668.81 4436.42 1660.79 4425.21 1641.36V1641.26Z" fill="white"/>
        <path fill-rule="evenodd" clip-rule="evenodd" d="M3587.8 1331.57C3570.3 1316.1 3566.63 1295.9 3564.99 1275.6C3564.6 1270.67 3570.59 1263.04 3575.72 1260.33C3584.61 1255.69 3598.53 1261.39 3604.13 1270C3616.99 1289.81 3614.09 1319.2 3587.8 1331.57Z" fill="white"/>
        <path fill-rule="evenodd" clip-rule="evenodd" d="M3321.81 383.928C3321.61 394.657 3321.42 405.483 3321.32 416.212C3321.32 425.974 3316.3 431.387 3306.82 428.874C3290.1 424.428 3275.7 416.115 3267.39 399.876C3260.72 386.731 3264.1 378.032 3278.41 373.102C3295.32 367.302 3309.53 373.779 3322.39 384.508L3321.81 383.831V383.928Z" fill="white"/>
        <path fill-rule="evenodd" clip-rule="evenodd" d="M4860.83 1403C4857.06 1408.99 4853.58 1418.95 4846.72 1424.84C4834.25 1435.57 4817.91 1428.61 4816.08 1412.57C4814.92 1401.94 4815.21 1391.01 4816.27 1380.38C4817.33 1369.36 4825.94 1362.02 4835.99 1361.53C4847.3 1361.05 4852.42 1365.5 4855.8 1379.03C4857.45 1385.7 4858.61 1392.46 4860.83 1403.1V1403Z" fill="white"/>
        <path fill-rule="evenodd" clip-rule="evenodd" d="M2336.23 1429.87C2357.2 1418.27 2367.25 1418.46 2376.53 1429.58C2387.36 1442.73 2390.93 1470.76 2383.01 1481.78C2378.08 1488.64 2371.02 1490.38 2365.51 1484.19C2357.59 1475.2 2350.53 1465.15 2344.63 1454.71C2340.57 1447.56 2339.12 1438.96 2336.13 1429.87H2336.23Z" fill="white"/>
        <path fill-rule="evenodd" clip-rule="evenodd" d="M3036 452.265C3041.32 442.792 3049.92 440.763 3060.84 444.242C3068.09 446.562 3076.01 447.335 3082.88 450.332C3090.32 453.618 3097.96 457.581 3097.86 468.214C3097.86 479.329 3092.54 487.352 3083.94 492.862C3080.94 494.795 3075.05 493.732 3071.09 492.282C3052.33 485.612 3036.58 475.946 3036 452.168V452.265Z" fill="white"/>
        <path fill-rule="evenodd" clip-rule="evenodd" d="M4654.86 265.135C4651.96 276.541 4651.19 285.337 4647.32 292.586C4644.81 297.226 4637.85 302.058 4632.92 301.962C4628.38 301.962 4621.61 296.259 4620.06 291.523C4615.71 279.344 4613.1 266.391 4610.98 253.536C4609.72 245.803 4611.27 236.331 4620.16 234.784C4626.83 233.624 4636.78 235.364 4640.94 239.81C4647.71 247.156 4650.99 257.692 4654.86 265.135V265.135Z" fill="white"/>
        <path fill-rule="evenodd" clip-rule="evenodd" d="M5965.2 1386.08C5961.81 1411.21 5959.79 1437.31 5954.47 1462.64C5950.31 1482.45 5937.55 1495.89 5918.8 1506.91C5890.97 1523.24 5862.36 1515.8 5833.85 1517.93C5791.32 1521.12 5774.79 1490.38 5759.13 1461.19C5741.44 1428.13 5729.56 1391.98 5711.58 1359.12C5695.24 1329.34 5692.34 1296.77 5684.9 1265.16C5676.11 1227.47 5710.22 1158.07 5746.76 1139.31C5748.79 1138.25 5750.53 1135.93 5752.66 1135.74C5771.5 1133.61 5790.54 1128.97 5809.1 1130.71C5825.24 1132.16 5842.06 1138.54 5855.98 1147.05C5871.25 1156.33 5884.3 1169.76 5897.06 1182.71C5904.98 1190.74 5911.65 1200.5 5916.77 1210.55C5932.63 1241.77 5953.89 1270.87 5957.76 1307.11C5960.56 1333.02 5962.68 1359.02 5965.2 1386.18V1386.08ZM5805.62 1176.04C5784.45 1176.04 5761.55 1191.32 5757.97 1203.98C5750.92 1228.72 5751.11 1253.85 5752.17 1279.18C5754.01 1322.48 5776.24 1357.96 5796.44 1394.11C5798.08 1397.1 5805.24 1400.2 5807.65 1399.04C5811.71 1397.01 5816.06 1391.79 5816.74 1387.44C5817.61 1381.64 5815.58 1375.16 5813.74 1369.36C5808.81 1353.7 5812.29 1340.56 5824.37 1329.54C5827.18 1327.03 5829.79 1324.13 5832.01 1321.13C5846.7 1301.7 5871.73 1294.55 5895.12 1302.18C5900.25 1303.83 5906.43 1302.18 5912.04 1302.18C5911.94 1297.06 5912.81 1291.74 5911.46 1287.01C5902.76 1256.95 5882.37 1233.56 5865.74 1207.94C5850.37 1184.26 5824.76 1183.49 5805.43 1176.04H5805.62Z" fill="white"/>
    </g>
    <defs>
        <clipPath id="clip0_278_3">
            <rect width="6358" height="2858" fill="white"/>
        </clipPath>
    </defs>
</svg>
