<?xml version="1.0" encoding="UTF-8"?>
<svg version="1.1" xmlns="http://www.w3.org/2000/svg" width="300" height="118">
<path d="M0 0 C5.91704531 3.35806591 9.20418372 7.90003721 12 14 C12.625 17 12.625 17 12.625 25 C-2.885 25 -18.395 25 -34.375 25 C-34.375 10.91954023 -34.375 10.91954023 -29.375 5 C-20.7233077 -2.19711706 -10.6439895 -4.81321528 0 0 Z " fill="#FFFFFF" transform="translate(34.375,32)"/>
<path d="M0 0 C5.78623324 3.38234928 9.73542812 8.59585623 12.6875 14.5 C12.6875 18.13 12.6875 21.76 12.6875 25.5 C-2.8225 25.5 -18.3325 25.5 -34.3125 25.5 C-34.3125 17.18520518 -33.73175525 11.18107341 -27.9375 4.88671875 C-20.07955345 -1.81898083 -9.69218109 -4.18057327 0 0 Z " fill="#FFFFFF" transform="translate(287.3125,31.5)"/>
<path d="M0 0 C3.96 0 7.92 0 12 0 C14.97 6.93 17.94 13.86 21 21 C23.91937627 14.46413007 23.91937627 14.46413007 26.83374023 7.92602539 C27.19669189 7.11641357 27.55964355 6.30680176 27.93359375 5.47265625 C28.30540771 4.64000244 28.67722168 3.80734863 29.06030273 2.94946289 C30 1 30 1 31 0 C32.85287502 -0.07226502 34.70833878 -0.0838122 36.5625 -0.0625 C37.57441406 -0.05347656 38.58632812 -0.04445313 39.62890625 -0.03515625 C40.41136719 -0.02355469 41.19382813 -0.01195313 42 0 C41.40962728 3.41066433 40.54951786 6.35571818 39.14233398 9.51489258 C38.76201523 10.37540726 38.38169647 11.23592194 37.98985291 12.12251282 C37.57941238 13.0372789 37.16897186 13.95204498 36.74609375 14.89453125 C36.32578384 15.84188644 35.90547394 16.78924164 35.47242737 17.76530457 C34.13219544 20.78317219 32.78495172 23.79785005 31.4375 26.8125 C30.52622831 28.86112161 29.61541561 30.90994746 28.70507812 32.95898438 C26.47536772 37.97503612 24.23989608 42.98848901 22 48 C21.34 48 20.68 48 20 48 C19.64284912 47.175 19.28569824 46.35 18.91772461 45.5 C17.55945908 42.36288148 16.20085798 39.22590861 14.84213257 36.08898926 C13.9416885 34.00967214 13.04175317 31.93013534 12.1418457 29.85058594 C8.38474626 21.17228701 8.38474626 21.17228701 4.578125 12.515625 C4.24949463 11.773125 3.92086426 11.030625 3.58227539 10.265625 C2.74932096 8.38926163 1.91194604 6.51486233 1.07421875 4.640625 C0 2 0 2 0 0 Z " fill="#FFFFFF" transform="translate(59,30)"/>
<path d="M0 0 C3.63 0 7.26 0 11 0 C14.51439747 6.92838358 17.81948542 13.91199607 21 21 C23.97 14.07 26.94 7.14 30 0 C33.96 0 37.92 0 42 0 C40.06237108 6.06415782 37.86732889 11.85251019 35.2421875 17.6484375 C34.8936673 18.42764557 34.54514709 19.20685364 34.18606567 20.00967407 C33.08637943 22.46660101 31.98100635 24.92091251 30.875 27.375 C29.76286739 29.8509508 28.6519565 32.32743993 27.54251099 34.80459595 C26.85539292 36.33792916 26.16655752 37.87049425 25.47579956 39.40219116 C24.19871994 42.24552474 22.98642261 45.04073217 22 48 C21.34 48 20.68 48 20 48 C17.79213898 43.05724511 15.58683955 38.11335792 13.38378906 33.16845703 C12.63577465 31.49041781 11.88709109 29.81267668 11.13769531 28.13525391 C0 3.20166667 0 3.20166667 0 0 Z " fill="#FFFFFF" transform="translate(199,30)"/>
<path d="M0 0 C0 15.51 0 31.02 0 47 C-6.69439384 47 -8.95853619 45.94775782 -14 42 C-19.11391491 36.88608509 -22.04764661 31.25870564 -22.375 24 C-22.08581458 17.29615619 -19.22226189 11.13518338 -15 6 C-10.20183076 2.40622952 -6.1210518 0 0 0 Z " fill="#FFFFFF" transform="translate(135,30)"/>
<path d="M0 0 C3.3 0 6.6 0 10 0 C10 25.41 10 50.82 10 77 C6.7 77 3.4 77 0 77 C0 51.59 0 26.18 0 0 Z " fill="#FFFFFF" transform="translate(175,0)"/>
<path d="M0 0 C7.03524927 1.17254155 12.08328055 3.40753941 16.65234375 9.03515625 C20.81301953 15.48721869 21.77442226 21.36801254 21 29 C18.97099327 36.9609436 13.93243761 41.96694865 7.0625 46.19140625 C5 47 5 47 0 47 C0 31.49 0 15.98 0 0 Z " fill="#FFFFFF" transform="translate(140,30)"/>
<path d="M0 0 C7.47126231 -0.43521916 11.80416273 -0.50606347 18 4 C20.77291246 4.5861441 23.22708754 4.5861441 26 4 C26.9075 3.34 27.815 2.68 28.75 2 C33.63908386 -1.00866699 38.39961586 -0.32623597 44 0 C43.10474477 5.19713103 39.69580821 8.44051259 36 12 C30.22179412 15.51224279 24.75702859 16.79971693 18 16 C10.44335019 14.14335834 5.21254283 10.59578572 1 4 C0.31640625 1.75 0.31640625 1.75 0 0 Z " fill="#FFFFFF" transform="translate(1,62)"/>
<path d="M0 0 C7.47126231 -0.43521916 11.80416273 -0.50606347 18 4 C20.77343485 4.58625452 23.22650884 4.58507724 26 4 C26.928125 3.34 27.85625 2.68 28.8125 2 C33.43689686 -0.90158235 37.67897843 -0.34084836 43 0 C43.495 0.99 43.495 0.99 44 2 C40.05839786 8.51880353 35.42170099 13.05028959 28.0703125 15.49609375 C21.66981494 17.0539507 15.75927274 16.19094841 10 13 C6.05540252 10.05200577 2.73792306 7.10688459 0 3 C0 2.01 0 1.02 0 0 Z " fill="#FFFFFF" transform="translate(255,62)"/>
<path d="M0 0 C1.32 0 2.64 0 4 0 C6.25 3 6.25 3 8 6 C8.33 4.02 8.66 2.04 9 0 C9.99 0 10.98 0 12 0 C12 4.29 12 8.58 12 13 C10.68 13 9.36 13 8 13 C6.25 10.5 6.25 10.5 5 8 C4.67 9.65 4.34 11.3 4 13 C2.68 13 1.36 13 0 13 C0 8.71 0 4.42 0 0 Z " fill="#FFFFFF" transform="translate(224,105)"/>
<path d="M0 0 C1.670625 0.061875 1.670625 0.061875 3.375 0.125 C4.035 1.445 4.695 2.765 5.375 4.125 C2.735 4.125 0.095 4.125 -2.625 4.125 C-2.625 5.775 -2.625 7.425 -2.625 9.125 C-2.295 9.125 -1.965 9.125 -1.625 9.125 C-1.625 8.135 -1.625 7.145 -1.625 6.125 C0.685 6.125 2.995 6.125 5.375 6.125 C5.41754356 8.12454746 5.41580783 10.12541636 5.375 12.125 C3.7961316 13.7038684 2.18207663 13.40819742 0 13.5 C-4.29538811 13.44519441 -4.29538811 13.44519441 -6.8125 11 C-7.85512258 7.3107201 -7.22772533 5.55941142 -5.625 2.125 C-3.625 0.125 -3.625 0.125 0 0 Z " fill="#FFFFFF" transform="translate(211.625,104.875)"/>
<path d="M0 0 C0.99 0 1.98 0 3 0 C3 1.65 3 3.3 3 5 C4.65 5 6.3 5 8 5 C8 3.35 8 1.7 8 0 C9.32 0 10.64 0 12 0 C12 4.29 12 8.58 12 13 C10.68 13 9.36 13 8 13 C8 11.35 8 9.7 8 8 C6.35 8 4.7 8 3 8 C3 9.65 3 11.3 3 13 C2.01 13 1.02 13 0 13 C0 8.71 0 4.42 0 0 Z " fill="#FFFFFF" transform="translate(64,105)"/>
<path d="M0 0 C7.21153846 -0.48076923 7.21153846 -0.48076923 10.5625 1.5625 C12 4 12 4 11.875 7.625 C11 11 11 11 9 13 C5.98173347 13.27240673 3.03629378 13.08675125 0 13 C0 8.71 0 4.42 0 0 Z M3 3 C3 5.64 3 8.28 3 11 C4.65 10.67 6.3 10.34 8 10 C8.67958603 7.60280568 8.67958603 7.60280568 9 5 C8.34 4.34 7.68 3.68 7 3 C5.68 3 4.36 3 3 3 Z " fill="#FFFFFF" transform="translate(141,105)"/>
<path d="M0 0 C6.0546875 -0.1953125 6.0546875 -0.1953125 8 0 C10 2 10 2 10.125 4.375 C10.08375 5.24125 10.0425 6.1075 10 7 C10 8.32 10 9.64 10 11 C10 11.66 10 12.32 10 13 C8.68 13 7.36 13 6 13 C5.34 12.01 4.68 11.02 4 10 C3.67 10.99 3.34 11.98 3 13 C2.01 13 1.02 13 0 13 C0 8.71 0 4.42 0 0 Z M3 3 C3 3.99 3 4.98 3 6 C4.32 5.67 5.64 5.34 7 5 C7 4.34 7 3.68 7 3 C5.68 3 4.36 3 3 3 Z " fill="#FFFFFF" transform="translate(113,105)"/>
<path d="M0 0 C3.3 0 6.6 0 10 0 C10 0.99 10 1.98 10 3 C7.69 3 5.38 3 3 3 C3 3.66 3 4.32 3 5 C4.98 5 6.96 5 9 5 C9.33 5.99 9.66 6.98 10 8 C7.69 8 5.38 8 3 8 C3 8.99 3 9.98 3 11 C5.31 11 7.62 11 10 11 C10 11.66 10 12.32 10 13 C6.7 13 3.4 13 0 13 C0 8.71 0 4.42 0 0 Z " fill="#FFFFFF" transform="translate(160,105)"/>
<path d="M0 0 C1.32 0 2.64 0 4 0 C4.67305018 1.60149886 5.33822227 3.20631029 6 4.8125 C6.37125 5.70582031 6.7425 6.59914063 7.125 7.51953125 C8 10 8 10 8 13 C3.545 12.01 3.545 12.01 -1 11 C-1 11.66 -1 12.32 -1 13 C-2.32 12.67 -3.64 12.34 -5 12 C-3.35 8.04 -1.7 4.08 0 0 Z M1 5 C1 5.99 1 6.98 1 8 C1.66 7.67 2.32 7.34 3 7 C2.34 6.34 1.68 5.68 1 5 Z " fill="#FFFFFF" transform="translate(87,105)"/>
<path d="M0 0 C1.134375 0.020625 2.26875 0.04125 3.4375 0.0625 C3.7675 1.3825 4.0975 2.7025 4.4375 4.0625 C2.7875 4.0625 1.1375 4.0625 -0.5625 4.0625 C0.241875 4.289375 1.04625 4.51625 1.875 4.75 C4.4375 6.0625 4.4375 6.0625 5.3125 8.5625 C5.4375 11.0625 5.4375 11.0625 4.4375 13.0625 C1.4675 13.0625 -1.5025 13.0625 -4.5625 13.0625 C-4.5625 11.7425 -4.5625 10.4225 -4.5625 9.0625 C-1.5925 9.5575 -1.5925 9.5575 1.4375 10.0625 C0.4475 9.4025 -0.5425 8.7425 -1.5625 8.0625 C-2.5525 7.4025 -3.5425 6.7425 -4.5625 6.0625 C-4.8125 3.5 -4.8125 3.5 -4.5625 1.0625 C-3.5625 0.0625 -3.5625 0.0625 0 0 Z " fill="#FFFFFF" transform="translate(181.5625,104.9375)"/>
<path d="M0 0 C0.99 0 1.98 0 3 0 C3 4.29 3 8.58 3 13 C2.01 13 1.02 13 0 13 C0 8.71 0 4.42 0 0 Z " fill="#FFFFFF" transform="translate(194,105)"/>
<path d="M0 0 C0.99 0 1.98 0 3 0 C3 4.29 3 8.58 3 13 C2.01 13 1.02 13 0 13 C0 8.71 0 4.42 0 0 Z " fill="#FFFFFF" transform="translate(102,105)"/>
</svg>
