<?xml version="1.0" encoding="UTF-8"?><svg xmlns="http://www.w3.org/2000/svg" viewBox="0 0 346.06 248.07"><defs><style>.d{fill:#fff;}</style></defs><g id="a"/><g id="b"><g id="c"><g><path class="d" d="M271.89,114.79c-2.04,1.86-3.34,3.73-4.55,5.65-1.69,2.69-3.23,5.47-4.66,8.31-3.83,7.58-7.99,14.99-11.97,22.49-1.07,2.01-2.09,4.05-3,6.14-1.22,2.82-2.98,5.29-5.17,7.44-3.53,3.46-8.58,2.04-9.82-2.76-.29-1.14-.31-2.31-.26-3.5,.26-6.08,1.39-12.07,2.03-18.11,.5-4.68,.8-9.36,.58-14.06-.04-.89-.2-1.79-.46-2.64-.48-1.53-1.35-1.91-2.84-1.31-2.55,1.02-4.61,2.75-6.55,4.64-5.45,5.33-10.36,11.12-14.85,17.27-6.37,8.72-12.13,17.8-16.53,27.7-.73,1.65-1.13,3.4-1.8,5.07-.94,2.31-1.99,4.55-3.5,6.55-3.52,4.69-8.17,3.37-11.09,1.1-2.9-2.26-4.03-5.33-4.12-8.89-.11-4.15,.33-8.28,.64-12.41,.23-3.03,.49-6.06,.73-9.09,.02-.26,.07-.54-.19-.78-.62-.07-.72,.52-.94,.88-4.86,7.9-11.3,14.47-17.82,20.95-5.14,5.11-11.63,6.65-18.68,6.16-2.84-.2-5.07-1.57-6.75-3.92-4-5.61-7.03-11.71-9.31-18.2-1.35-3.84-2.95-7.58-4.54-11.31-.78,.07-.87,.71-1.14,1.13-1.78,2.88-3.55,5.77-5.63,8.45-5.4,6.95-12.37,11.55-20.88,13.74-3.45,.89-6.98,1.08-10.46,.15-6.25-1.67-9.4-6.17-10.75-12.19-1.05-4.72-.79-9.47-.25-14.22,.25-2.2,.49-4.39,.71-6.59,.04-.38,.25-.8-.12-1.13-.36-.11-.52,.17-.68,.36-4.28,4.9-8.94,9.42-13.55,14-.91,.91-1.28,1.78-1.16,3.09,.91,10.11,1.43,20.25,1.97,30.39,.09,1.66,.15,3.32,.14,4.97-.07,6.77,.45,13.53,.1,20.3-.25,4.78-.91,9.48-2.11,14.11-1.19,4.62-3.34,8.76-6.22,12.53-4.2,5.5-9.99,8.37-16.55,9.87-5.26,1.2-10.52,1.39-15.75-.26-8.05-2.53-12.64-8.14-13.64-16.31-1.67-13.55,1.06-26.39,7.46-38.42,2.15-4.04,5.2-7.48,8.03-11.05,4.55-5.75,9.41-11.23,14.91-16.1,1.06-.94,1.16-1.85,.9-3.09-1.76-8.37-3.63-16.73-5.16-25.15-1.85-10.2-4.22-20.26-7.15-30.2-1.01-3.44-2.25-6.81-3.49-10.18-1.86-5.08-3.09-10.31-3.86-15.65-.45-3.1,.35-5.91,2.44-8.28,1.42-1.61,2.99-3.07,4.77-4.29,5.46-3.74,11.63-2.58,16.48,1.3,.87,.7,1.37,1.73,1.87,2.71,1.49,2.91,2.5,5.99,3.28,9.14,2.01,8.03,3.94,16.08,5.89,24.13,1.27,5.25,1.87,10.6,2.45,15.95,.84,7.69,1.55,15.39,2.17,23.1,.06,.75,.21,1.5,.32,2.23,.67,.3,.92-.24,1.2-.56,4.38-4.9,8.57-9.99,11.93-15.63,2.86-4.8,5.15-9.92,7.46-15.02,3.46-7.62,7.49-14.95,11.89-22.05,3.11-5.01,7.7-8.69,12.8-11.57,3.01-1.7,5.53-3.86,7.73-6.47,.67-.79,1.33-1.59,2.04-2.35,4.08-4.34,9.73-5.63,15.15-3.17,5.7,2.58,9.67,6.77,11.09,13.07,1.52,6.78,1.9,13.67,1.79,20.59-.2,12.44-.28,24.87-.04,37.31,.05,2.9,.45,5.76,1.37,8.55,1.52,4.58,2.86,9.23,4.33,13.83,.59,1.84,1.3,3.65,2.53,5.18,1.59,1.97,3.23,2.3,5.47,1.08,1.1-.6,2.09-1.36,2.96-2.25,5.14-5.32,10.09-10.82,14.73-16.57,3.31-4.11,5.5-8.92,7.76-13.66,.38-.79,.31-1.6,.29-2.43-.19-5.94-.58-11.87-.44-17.82,.16-6.98,.49-13.94,1.99-20.79,.68-3.11,1.58-6.16,2.89-9.06,1.68-3.75,4.13-6.85,7.94-8.68,5.94-2.85,12.22-.89,15.51,4.84,1.95,3.4,2.3,7.07,1.7,10.84-1.82,11.45-3.72,22.89-5.57,34.33-.11,.65-.34,1.33-.04,2,.66,.15,.84-.41,1.12-.75,3.03-3.6,6.3-6.98,9.7-10.22,4.74-4.51,10.2-7.78,16.7-9.07,2.99-.6,6.01-.83,9.06-.26,3.63,.68,6.36,2.51,8,5.89,1.38,2.84,2.05,5.85,2.22,8.98,.22,4.23-.25,8.41-1.02,12.57-.14,.74-.38,1.47-.21,2.25,.69,0,.9-.59,1.22-.99,3.37-4.15,6.14-8.69,8.6-13.41,2.63-5.05,5.64-9.8,9.62-13.93,2.27-2.35,3.89-5.18,5.49-8.02,1.79-3.19,3.57-6.39,5.39-9.56,1.31-2.28,2.8-4.44,4.5-6.45,.77-.9,1.62-1.7,2.65-2.29,1.88-1.08,3.8-1.14,5.72-.1,.92,.5,1.74,1.13,2.47,1.87,2.69,2.78,4.65,6.01,5.76,9.71,1.04,3.47,.64,7-.99,10.09-2.84,5.38-3.1,10.84-2,16.68,.94,4.95,1.89,9.89,3.11,14.78,.82,3.25,2.34,6.2,3.81,9.16,2.39,4.83,4.85,9.62,7.29,14.42,1.62,3.2,2.11,6.54,1.33,10.05-1.66,7.38-8.29,11.5-15.66,9.89-5.16-1.12-8.63-3.99-10.48-8.97-1.62-4.37-2.66-8.87-3.26-13.45-1-7.61-2.63-15.09-4.14-22.6-1.01-5.02-1.75-10.06-1.83-15.19-.03-2.04-.3-4.09-.5-6.54Zm-189.1,22.92c.14,3.87-.06,7.75,.52,11.59,.37,2.47,.87,4.89,2.17,7.08,1.37,2.3,3.42,3.3,6.05,3.26,2.28-.03,4.08-1.15,5.78-2.5,3.55-2.82,6.33-6.33,8.95-10,3.08-4.32,4.46-9.05,4.45-14.36-.02-7.58-1.18-14.99-2.77-22.35-.9-4.18-2.02-8.31-2.4-12.59-.18-2.05-.37-4.13-1.04-6.11-.89-2.66-2.77-3.67-5.48-2.97-1.62,.42-2.81,1.45-3.85,2.67-1.68,1.95-2.97,4.15-4.03,6.49-5.73,12.65-8.39,25.93-8.34,39.79Zm-49.63,32.29c-.78,.93-1.27,1.49-1.73,2.08-4.24,5.38-8.15,10.99-11.55,16.93-3.03,5.28-5.75,10.72-7.25,16.66-1.75,6.94-1.61,13.81,1,20.55,1.21,3.11,3.55,4.64,6.82,4.85,2.36,.15,4.66-.22,6.97-.74,3.92-.89,6.43-3.27,7.94-6.88,.45-1.09,.83-2.19,1.14-3.33,1.24-4.66,1.34-9.41,1.3-14.19-.06-8.73-1.32-17.34-2.78-25.92-.54-3.19-1.18-6.36-1.86-10.03Zm164.85-39.24l-.06,.13h.1l-.04-.13Z"/><path class="d" d="M345.36,31.25c0,.62-.01,1.24,0,1.87,.13,6.22-.13,12.43-.43,18.63-.32,6.57,.26,13.11,.65,19.66,.42,6.89,.59,13.8,.4,20.71-.19,6.84-.5,13.67-1.03,20.48-.6,7.71-1.35,15.4-2.31,23.08-.82,6.51-1.47,13.03-2.22,19.55-.44,3.84-.87,7.68-1.38,11.51-.37,2.81-.63,5.62-.72,8.46-.09,2.76-.32,5.51-.8,8.24-.2,1.16-.54,2.28-1.01,3.36-.33,.77-.77,1.47-1.37,2.06-.97,.95-2.11,1.76-3.48,1.48-1.48-.3-1.6-1.79-1.87-2.96-.73-3.19-.69-6.45-.76-9.69-.19-8.42-.74-16.84-.65-25.27,.06-5.94-.66-11.86-.94-17.79-.28-5.86-.7-11.72-1.07-17.58-.61-9.79-1.22-19.57-2.41-29.31-.51-4.18-.87-8.38-1.16-12.58-.41-5.87-1.62-11.62-2.48-17.42-1.77-12.02-3.59-24.03-4.21-36.19-.13-2.55-.28-5.1,.17-7.65,.7-3.95,2.51-7.28,5.35-10.07,1.98-1.95,4.39-3.13,7.08-3.64,3.64-.69,6.82,.34,9.55,2.84,4.57,4.19,6.96,9.39,7.11,15.56,.1,4.21,.02,8.43,.02,12.64h-.03Z"/><path class="d" d="M320.92,223.2c.16-6.18,2.69-11.36,6.93-15.7,2.28-2.34,5.28-2.85,8.43-2.45,1.09,.14,2.16,.45,3.21,.77,4.17,1.3,5.96,4.05,5.68,8.49-.39,6.16-3.22,11.2-8.05,15.04-2.27,1.8-4.93,2.82-7.84,2.8-4.74-.02-8.46-4.07-8.36-8.95Z"/><path class="d" d="M30.6,46.71c.01,2.02-.25,3.72-.76,5.38-1.53,4.93-6.43,7.69-11.4,6.42-1.5-.38-2.8-1.14-3.85-2.3-3.86-4.26-4.47-12.27-1.27-17.03,2-2.99,4.74-4.7,8.41-4.07,4.05,.69,7.31,2.5,8.25,6.99,.34,1.62,.66,3.24,.62,4.63Z"/><polygon class="d" points="198 130.76 198.04 130.9 197.94 130.89 198 130.76"/></g></g></g></svg>