<?xml version="1.0" encoding="UTF-8"?>
<svg version="1.1" xmlns="http://www.w3.org/2000/svg" width="629" height="593">
<path d="M0 0 C16.17 0 32.34 0 49 0 C49 7.92 49 15.84 49 24 C53.455 26.97 53.455 26.97 58 30 C60.00631066 31.65906459 62.00744367 33.32444127 64 35 C64.763125 35.44988281 65.52625 35.89976562 66.3125 36.36328125 C69.33167597 38.20199452 72.00465089 40.27404126 74.75 42.5 C75.71421875 43.2734375 76.6784375 44.046875 77.671875 44.84375 C80 47 80 47 81 50 C82.31872358 50.69511894 83.65493521 51.35733139 85 52 C92.55203714 58.31021077 102.79697654 68.84948954 104 79 C104.99 79.33 105.98 79.66 107 80 C108.28125 81.8203125 108.28125 81.8203125 109.5 84.125 C109.93183594 84.94097656 110.36367188 85.75695312 110.80859375 86.59765625 C112.33723848 89.68000545 113.67278769 92.82623144 115 96 C115.62614308 97.22348829 116.25940565 98.44335017 116.8984375 99.66015625 C131.31761838 128.42281814 132.24206031 169.3684249 122.5625 199.8125 C121.74822177 202.22598594 120.88306188 204.60988299 120 207 C119.55720703 208.28777344 119.55720703 208.28777344 119.10546875 209.6015625 C117.02760342 215.27536829 114.22995054 220.59014726 111.4375 225.9375 C111.04916992 226.68443115 110.66083984 227.4313623 110.26074219 228.20092773 C109.8846582 228.90677002 109.50857422 229.6126123 109.12109375 230.33984375 C108.61727173 231.28911743 108.61727173 231.28911743 108.10327148 232.25756836 C106.92486262 234.11866685 105.55840779 235.45241269 104 237 C103.07353019 238.65441037 102.14803985 240.3093877 101.23046875 241.96875 C97.61898173 247.93056984 93.0404149 253.21160585 88 258 C87.51273438 258.50789063 87.02546875 259.01578125 86.5234375 259.5390625 C81.40819945 264.84824322 75.76091999 269.41244986 70 274 C69.22269531 274.63292969 68.44539063 275.26585937 67.64453125 275.91796875 C53.82257174 287 53.82257174 287 48 287 C47.67 287.99 47.34 288.98 47 290 C44.07663313 291.54766481 41.74310577 292.0270415 38.4375 292.375 C34.94855672 292.66478223 34.94855672 292.66478223 33.0625 295 C30.70989702 297.28131198 29.95970973 297.32367141 26.8125 297.625 C25.554375 297.74875 24.29625 297.8725 23 298 C22.67 298.66 22.34 299.32 22 300 C20.68 300 19.36 300 18 300 C18 298.68 18 297.36 18 296 C17.835 296.94875 17.67 297.8975 17.5 298.875 C16 302 16 302 12.5 303.375 C7.76411636 304.2250304 2.78312477 304.60455852 -2 304 C-2.66 303.34 -3.32 302.68 -4 302 C-5.485 303.485 -5.485 303.485 -7 305 C-7.66 304.67 -8.32 304.34 -9 304 C-9 302.68 -9 301.36 -9 300 C-8.34 300 -7.68 300 -7 300 C-7.99 298.68 -8.98 297.36 -10 296 C-10 299.3 -10 302.6 -10 306 C-11.051875 305.814375 -12.10375 305.62875 -13.1875 305.4375 C-16.57119882 305.04920669 -18.76425888 305.11752515 -22 306 C-22 305.34 -22 304.68 -22 304 C-23.65 303.67 -25.3 303.34 -27 303 C-27.33 304.32 -27.66 305.64 -28 307 C-28.69867188 306.9278125 -29.39734375 306.855625 -30.1171875 306.78125 C-31.02726562 306.6884375 -31.93734375 306.595625 -32.875 306.5 C-33.77992188 306.4071875 -34.68484375 306.314375 -35.6171875 306.21875 C-37.93313211 305.96952705 -37.93313211 305.96952705 -40 306 C-42.33333333 306 -44.66666667 306 -47 306 C-49 299.375 -49 299.375 -49 296 C-48.01 296 -47.02 296 -46 296 C-45.97290556 293.91673869 -45.95356127 291.83337559 -45.9375 289.75 C-45.92589844 288.58984375 -45.91429687 287.4296875 -45.90234375 286.234375 C-45.98285902 283.56770942 -46.35223705 281.54436618 -47 279 C-46.67 278.34 -46.34 277.68 -46 277 C-45.34 277 -44.68 277 -44 277 C-43.67 276.01 -43.34 275.02 -43 274 C-37.22929404 271.11464702 -28.22020059 272.86905444 -22 274 C-21.67 274.99 -21.34 275.98 -21 277 C-20.34 277 -19.68 277 -19 277 C-19 277.99 -19 278.98 -19 280 C-19.66 280 -20.32 280 -21 280 C-21.04898437 280.61488281 -21.09796875 281.22976563 -21.1484375 281.86328125 C-21.26058594 283.07564453 -21.26058594 283.07564453 -21.375 284.3125 C-21.44460938 285.11300781 -21.51421875 285.91351563 -21.5859375 286.73828125 C-22 289 -22 289 -24 292 C-22.88625 292 -21.7725 292 -20.625 292 C-18.75 292 -16.875 292 -15 292 C-14.7215625 290.0509375 -14.7215625 290.0509375 -14.4375 288.0625 C-14.33308594 287.33160156 -14.22867188 286.60070312 -14.12109375 285.84765625 C-14.08113281 285.23792969 -14.04117188 284.62820313 -14 284 C-14.33 283.67 -14.66 283.34 -15 283 C-15.16796875 281.00390625 -15.16796875 281.00390625 -15.1875 278.5625 C-15.20167969 277.75941406 -15.21585937 276.95632813 -15.23046875 276.12890625 C-15 274 -15 274 -13 272 C-11.15815258 271.65520616 -9.29930596 271.39954548 -7.4375 271.1875 C3.97208101 269.57748135 14.81419903 266.38117787 25 261 C30.4 259.7 30.4 259.7 33 261 C33 260.278125 33 259.55625 33 258.8125 C34.36128758 254.98387869 36.51645286 253.97777265 39.89453125 251.91796875 C42 251 42 251 46 251 C46 253.31 46 255.62 46 258 C46.03738281 257.31292969 46.07476562 256.62585938 46.11328125 255.91796875 C46.17902344 255.01691406 46.24476563 254.11585938 46.3125 253.1875 C46.37050781 252.29417969 46.42851562 251.40085937 46.48828125 250.48046875 C47.07421725 247.64024462 47.70924126 246.72487059 50 245 C50.99 244.67 51.98 244.34 53 244 C54.88283469 241.95324848 54.88283469 241.95324848 56.75 239.4375 C59.40490801 236.03314379 62.06894154 232.65656209 64.875 229.375 C65.42929687 228.72273437 65.98359375 228.07046875 66.5546875 227.3984375 C68 226 68 226 70 226 C70.0825 225.443125 70.165 224.88625 70.25 224.3125 C71 222 71 222 72.796875 219.8359375 C75.38194325 216.50834964 77.16193725 213.08759468 79 209.3125 C79.34957764 208.60061523 79.69915527 207.88873047 80.05932617 207.15527344 C93.26483288 179.99846479 95.1264264 150.81121376 86 122 C85.0350278 119.63779376 83.99755265 117.32853012 82.91357422 115.01879883 C82 113 82 113 80.99609375 109.87890625 C79.75985773 106.30594176 78.00369562 103.16196639 76.0625 99.9375 C75.47903809 98.96719849 75.47903809 98.96719849 74.88378906 97.97729492 C69.47370597 89.24293107 63.05913201 81.39413772 55 75 C54.5875 74.21625 54.175 73.4325 53.75 72.625 C51.4103722 69.1155583 48.43575023 67.49146625 44.86328125 65.33203125 C44.24839844 64.89246094 43.63351562 64.45289063 43 64 C43 63.34 43 62.68 43 62 C42.28457031 61.88785156 41.56914062 61.77570313 40.83203125 61.66015625 C37.80884002 60.95543995 35.43677312 59.86712202 32.6875 58.4375 C31.80449219 57.98246094 30.92148437 57.52742188 30.01171875 57.05859375 C29.34785156 56.70925781 28.68398438 56.35992187 28 56 C28 55.34 28 54.68 28 54 C23.40974712 52.46580258 18.8175906 50.93797062 14.21875 49.4296875 C12.64583333 48.91145833 11.07291667 48.39322917 9.5 47.875 C8.69046875 47.61074219 7.8809375 47.34648437 7.046875 47.07421875 C1.11278195 45.11278195 1.11278195 45.11278195 0 44 C-0.0927833 42.61839885 -0.11747043 41.23211962 -0.11352539 39.84741211 C-0.11340454 38.95421265 -0.11328369 38.06101318 -0.11315918 37.14074707 C-0.10804321 36.19582397 -0.10292725 35.25090088 -0.09765625 34.27734375 C-0.09664917 33.41338989 -0.09564209 32.54943604 -0.09460449 31.65930176 C-0.0893555 28.41868775 -0.07539436 25.1780926 -0.0625 21.9375 C-0.0315625 11.0784375 -0.0315625 11.0784375 0 0 Z M77 52 C77 52.66 77 53.32 77 54 C77.66 54 78.32 54 79 54 C79 54.66 79 55.32 79 56 C79.66 56 80.32 56 81 56 C81 54.02 81 52.04 81 50 C79.53774984 49.90754997 79.53774984 49.90754997 77 52 Z M107 110 C108 112 108 112 108 112 Z M106 112 C107 114 107 114 107 114 Z M103 115 C102.67 116.65 102.34 118.3 102 120 C102.66 120 103.32 120 104 120 C104.33 118.35 104.66 116.7 105 115 C104.34 115 103.68 115 103 115 Z M114 165 C113.67 167.64 113.34 170.28 113 173 C113.99 173.495 113.99 173.495 115 174 C115.99 170.7 116.98 167.4 118 164 C116.63106761 163.94729537 116.63106761 163.94729537 114 165 Z M-4 273 C-4 276 -4 276 -4 276 Z M-9 276 C-9.33 276.99 -9.66 277.98 -10 279 C-9.34 279.66 -8.68 280.32 -8 281 C-8 279.35 -8 277.7 -8 276 C-8.33 276 -8.66 276 -9 276 Z M-10 283 C-10.77242269 284.83700789 -10.77242269 284.83700789 -11 287 C-9.64555699 288.77190909 -9.64555699 288.77190909 -8 290 C-8 288.02 -8 286.04 -8 284 C-8.66 283.67 -9.32 283.34 -10 283 Z M-3 288 C-3 289.32 -3 290.64 -3 292 C-3.99 292.33 -4.98 292.66 -6 293 C-5.01 294.32 -4.02 295.64 -3 297 C-1.31369881 293.48966871 -1.31369881 293.48966871 -1.375 289.6875 C-1.58125 289.130625 -1.7875 288.57375 -2 288 C-2.33 288 -2.66 288 -3 288 Z M23 290 C24 293 24 293 24 293 Z M-21 295 C-20 297 -20 297 -20 297 Z M-23 297 C-22.34 298.32 -21.68 299.64 -21 301 C-21 299.68 -21 298.36 -21 297 C-21.66 297 -22.32 297 -23 297 Z M-32 300 C-32.33 300.99 -32.66 301.98 -33 303 C-31.68 302.67 -30.36 302.34 -29 302 C-29.33 301.34 -29.66 300.68 -30 300 C-30.66 300 -31.32 300 -32 300 Z " fill="#FEFEFE" transform="translate(337,174)"/>
<path d="M0 0 C4.33166262 0.55892421 8.51704268 0.5889379 12.875 0.5 C13.205 2.15 13.535 3.8 13.875 5.5 C14.205 3.85 14.535 2.2 14.875 0.5 C17.91886724 0.41773332 19.94675348 0.52391783 22.875 1.5 C25.01755793 1.11067144 25.01755793 1.11067144 26.875 0.5 C29.2742233 5.14849515 29.07457409 9.41086074 28.875 14.5 C29.535 14.5 30.195 14.5 30.875 14.5 C31.01599121 15.09949463 31.15698242 15.69898926 31.30224609 16.31665039 C31.94979218 19.06567178 32.59987704 21.81408693 33.25 24.5625 C33.58257812 25.97692383 33.58257812 25.97692383 33.921875 27.41992188 C34.86711667 31.40939775 35.8317157 35.3548703 37.00390625 39.28515625 C37.88597656 42.5405099 38.23854096 45.51386212 38.4375 48.875 C38.35664357 52.50301642 38.35664357 52.50301642 39.875 55.5 C40.2153125 53.7365625 40.2153125 53.7365625 40.5625 51.9375 C43.69455128 37.88738263 48.87705355 22.09019187 55.875 9.5 C56.535 9.17 57.195 8.84 57.875 8.5 C57.38 6.025 57.38 6.025 56.875 3.5 C64.40627276 -1.78998826 74.28105425 0.32246279 83.046875 1.0859375 C83.65015625 1.22257812 84.2534375 1.35921875 84.875 1.5 C85.37 2.49 85.37 2.49 85.875 3.5 C86.205 2.84 86.535 2.18 86.875 1.5 C88.52074566 1.47311849 90.16661413 1.45365877 91.8125 1.4375 C92.72902344 1.42589844 93.64554687 1.41429687 94.58984375 1.40234375 C96.875 1.5 96.875 1.5 97.875 2.5 C98.01615161 5.17058851 97.91747107 7.82432238 97.875 10.5 C98.49375 10.726875 99.1125 10.95375 99.75 11.1875 C102.60877081 12.95321138 102.90080717 14.29908072 103.875 17.5 C104.2771875 19.2634375 104.2771875 19.2634375 104.6875 21.0625 C105.53322994 24.61856131 106.80260881 27.83238526 108.25 31.1875 C110.96138292 37.48724133 112.97425583 43.91641683 114.875 50.5 C117.82510333 46.2214783 118.92567106 42.1105813 120.06640625 37.12890625 C120.25718246 36.32895737 120.44795868 35.52900848 120.64451599 34.70481873 C121.25022038 32.15920333 121.84439824 29.61107827 122.4375 27.0625 C123.0361872 24.51801911 123.63731902 21.9741472 124.24119568 19.43089294 C124.61532339 17.85233543 124.98615951 16.27299293 125.35316467 14.69276428 C128.02028774 3.35471226 128.02028774 3.35471226 129.875 1.5 C132.46859322 1.41148471 135.03539691 1.38474055 137.62890625 1.40234375 C138.40435287 1.4037587 139.1797995 1.40517365 139.97874451 1.40663147 C142.46503494 1.41224655 144.9512366 1.42480154 147.4375 1.4375 C149.11913933 1.44251306 150.80078006 1.4470763 152.48242188 1.45117188 C156.61331566 1.46222087 160.74414276 1.47949555 164.875 1.5 C164.875 2.16 164.875 2.82 164.875 3.5 C163.885 3.5 162.895 3.5 161.875 3.5 C162.01808594 5.12808594 162.01808594 5.12808594 162.1640625 6.7890625 C162.27668039 8.23432537 162.38862382 9.67964091 162.5 11.125 C162.56445312 11.83785156 162.62890625 12.55070312 162.6953125 13.28515625 C163.02997142 17.84488399 162.65739103 21.18688582 160.875 25.5 C160.215 25.5 159.555 25.5 158.875 25.5 C158.92398438 26.49 158.97296875 27.48 159.0234375 28.5 C159.02127222 32.80458218 157.87903459 36.45586484 156.5 40.5 C156.05388638 41.85390296 155.60856722 43.20806797 155.1640625 44.5625 C154.94645264 45.21621582 154.72884277 45.86993164 154.50463867 46.54345703 C153.88328329 48.47426047 153.32163655 50.41340683 152.77734375 52.3671875 C152.0182873 55.00252636 151.08868758 57.07262484 149.875 59.5 C149.52239881 61.16269699 149.19386668 62.83050519 148.875 64.5 C146.93276105 73.61358275 144.69320956 82.57108685 141.8125 91.4375 C141.56733643 92.21246826 141.32217285 92.98743652 141.06958008 93.78588867 C139.23666011 99.25889326 139.23666011 99.25889326 135.875 101.5 C133.13490315 101.62662835 130.51099062 101.63942095 127.77734375 101.546875 C126.98727432 101.52659241 126.1972049 101.50630981 125.38319397 101.4854126 C123.71454429 101.43986978 122.0460302 101.38910223 120.37768555 101.33349609 C117.81902925 101.25021253 115.2604791 101.1884193 112.70117188 101.12890625 C111.08069138 101.08201734 109.46024635 101.03388262 107.83984375 100.984375 C106.68826027 100.95763702 106.68826027 100.95763702 105.51341248 100.93035889 C100.10508891 100.73008891 100.10508891 100.73008891 97.875 98.5 C97.37736954 96.68206675 96.94995247 94.84455901 96.5625 93 C95.33319271 87.75495556 93.5509982 83.36545127 90.9609375 78.65625 C89.02040455 74.80310543 88.75610155 71.53628194 88.8125 67.25 C88.82152344 66.35796875 88.83054687 65.4659375 88.83984375 64.546875 C88.85144531 63.87140625 88.86304688 63.1959375 88.875 62.5 C87.885 62.5 86.895 62.5 85.875 62.5 C84.43205391 59.42171502 83.75711049 56.79247836 83.5 53.4375 C82.80593289 49.0648772 82.01637834 48.34687412 78.875 45.5 C78.125 42.75 78.125 42.75 77.875 40.5 C76.09785045 44.39280378 74.62047117 48.19810028 73.4375 52.3125 C71.59515244 58.65405422 69.55385132 64.98172302 65.875 70.5 C65.6584375 71.8921875 65.6584375 71.8921875 65.4375 73.3125 C64.81958394 76.81402437 63.57461056 79.39636333 61.875 82.5 C61.215 82.5 60.555 82.5 59.875 82.5 C59.9678125 84.0159375 59.9678125 84.0159375 60.0625 85.5625 C59.79221477 91.2384898 57.37362274 95.5136181 54.875 100.5 C51.58340684 100.55790353 48.29194397 100.59356261 45 100.625 C44.06285156 100.64175781 43.12570312 100.65851563 42.16015625 100.67578125 C41.26425781 100.68222656 40.36835938 100.68867188 39.4453125 100.6953125 C38.61789551 100.70578613 37.79047852 100.71625977 36.93798828 100.72705078 C34.875 100.5 34.875 100.5 32.875 98.5 C32.029375 98.850625 31.18375 99.20125 30.3125 99.5625 C26.41594918 100.62519568 23.8126266 100.1815123 19.875 99.5 C18.885 99.995 18.885 99.995 17.875 100.5 C17.215 100.17 16.555 99.84 15.875 99.5 C15.875 96.86 15.875 94.22 15.875 91.5 C15.215 91.5 14.555 91.5 13.875 91.5 C12.29244803 87.17435795 11.42355348 83.071279 10.875 78.5 C14.625 75.5 14.625 75.5 16.875 75.5 C16.875 74.84 16.875 74.18 16.875 73.5 C17.535 73.5 18.195 73.5 18.875 73.5 C19.535 75.48 20.195 77.46 20.875 79.5 C20.92398438 78.77554688 20.97296875 78.05109375 21.0234375 77.3046875 C21.42905447 72.0596405 21.97136896 67.4494407 23.875 62.5 C23.875 61.84 23.875 61.18 23.875 60.5 C22.885 60.5 21.895 60.5 20.875 60.5 C20.875 62.48 20.875 64.46 20.875 66.5 C20.070625 66.62375 19.26625 66.7475 18.4375 66.875 C17.1690625 67.184375 17.1690625 67.184375 15.875 67.5 C15.545 68.16 15.215 68.82 14.875 69.5 C15.865 69.5 16.855 69.5 17.875 69.5 C17.875 70.49 17.875 71.48 17.875 72.5 C12.61785714 76.5 12.61785714 76.5 9.875 76.5 C6.24629841 68.238041 6.24629841 68.238041 7.875 63.5 C8.535 63.83 9.195 64.16 9.875 64.5 C9.83375 63.571875 9.7925 62.64375 9.75 61.6875 C9.875 58.5 9.875 58.5 11.875 55.5 C11.56659401 53.34725052 11.56659401 53.34725052 10.875 51.5 C8.99108215 54.76545761 8.38212033 57.78111761 7.875 61.5 C7.215 61.5 6.555 61.5 5.875 61.5 C4.5532401 58.69126022 3.86075806 56.82044367 4 53.6875 C3.86094745 50.14165993 2.69325609 48.22562155 1.01953125 45.16796875 C-0.81681487 40.88733939 -1.68464006 36.38912544 -2.64160156 31.8425293 C-3.71658753 26.83647846 -5.25024901 22.26751193 -7.125 17.5 C-8.60523206 12.98139688 -9.35709492 9.25794592 -9.125 4.5 C-8.465 4.5 -7.805 4.5 -7.125 4.5 C-7.455 3.18 -7.785 1.86 -8.125 0.5 C-5.23073238 -0.94713381 -3.15393135 -0.50462902 0 0 Z M1.875 4.5 C2.875 6.5 2.875 6.5 2.875 6.5 Z M82.875 4.5 C82.545 6.15 82.215 7.8 81.875 9.5 C82.535 9.17 83.195 8.84 83.875 8.5 C84.52713292 6.47536745 84.52713292 6.47536745 84.875 4.5 C84.215 4.5 83.555 4.5 82.875 4.5 Z M-2.125 18.5 C-2.125 20.15 -2.125 21.8 -2.125 23.5 C-1.465 23.17 -0.805 22.84 -0.125 22.5 C-0.125 21.18 -0.125 19.86 -0.125 18.5 C-0.785 18.5 -1.445 18.5 -2.125 18.5 Z M26.875 19.5 C27.205 20.16 27.535 20.82 27.875 21.5 C28.535 21.17 29.195 20.84 29.875 20.5 C28.885 20.17 27.895 19.84 26.875 19.5 Z M6.875 35.5 C6.875 36.49 6.875 37.48 6.875 38.5 C7.535 38.17 8.195 37.84 8.875 37.5 C8.215 36.84 7.555 36.18 6.875 35.5 Z M7.875 42.5 C8.205 44.15 8.535 45.8 8.875 47.5 C9.205 46.51 9.535 45.52 9.875 44.5 C9.215 43.84 8.555 43.18 7.875 42.5 Z " fill="#FEFEFE" transform="translate(232.125,287.5)"/>
<path d="M0 0 C15.51 0 31.02 0 47 0 C46.67 3.3 46.34 6.6 46 10 C46.38274271 12.61787808 46.38274271 12.61787808 47 15 C47.11675687 17.49805406 47.17499625 19.99925013 47.1875 22.5 C47.20167969 23.7890625 47.21585937 25.078125 47.23046875 26.40625 C47.0146557 29.77147046 46.46189261 31.99531954 45 35 C45.33 35 45.66 35 46 35 C46 38.63 46 42.26 46 46 C41.95915873 48.13855618 38.08100093 49.68757849 33.6875 50.9375 C28.91008366 52.35766591 24.45080806 54.00781722 19.94140625 56.1171875 C13.60176991 59 13.60176991 59 11 59 C10.67 59.99 10.34 60.98 10 62 C9.13375 62.226875 8.2675 62.45375 7.375 62.6875 C3.17847375 64.31948243 1.58920293 66.55688538 -1.20703125 69.9765625 C-3.31761889 72.35844571 -5.54919197 74.00790419 -8.2265625 75.69921875 C-13.06313648 79.24674988 -16.53402416 83.83243405 -19.9375 88.6875 C-20.37425049 89.30689453 -20.81100098 89.92628906 -21.26098633 90.56445312 C-24.76353497 95.57644117 -28.01635856 100.6604231 -31 106 C-31.57492188 106.91652344 -32.14984375 107.83304687 -32.7421875 108.77734375 C-38.99298389 119.62904822 -40.57684064 131.42379398 -42.47558594 143.6574707 C-42.82939343 145.91258168 -43.20826769 148.16388315 -43.61035156 150.41088867 C-44.7418416 156.94357969 -45.26031641 162.64773732 -44.125 169.1875 C-43.92559814 170.41678223 -43.92559814 170.41678223 -43.72216797 171.67089844 C-42.37928154 179.17273142 -40.31969584 186.45816163 -38.125 193.75 C-37.79773926 194.84465576 -37.47047852 195.93931152 -37.13330078 197.06713867 C-35.1472174 203.35446412 -32.75778128 208.59511571 -29 214 C-27.0625 217.25 -27.0625 217.25 -26 220 C-26.8125 222.375 -26.8125 222.375 -28 224 C-28.66 224 -29.32 224 -30 224 C-30 225.32 -30 226.64 -30 228 C-28.02463255 227.65213292 -28.02463255 227.65213292 -26 227 C-25.67 226.34 -25.34 225.68 -25 225 C-24.01 225 -23.02 225 -22 225 C-22 225.99 -22 226.98 -22 228 C-21.0409375 228.3403125 -21.0409375 228.3403125 -20.0625 228.6875 C-19.381875 229.120625 -18.70125 229.55375 -18 230 C-17.66666667 231.66666667 -17.33333333 233.33333333 -17 235 C-15.13355094 236.18330183 -15.13355094 236.18330183 -13 237 C-11.1875 238.375 -11.1875 238.375 -10 240 C-10.3125 242.1875 -10.3125 242.1875 -11 244 C-9.35 243.67 -7.7 243.34 -6 243 C-5.34 244.32 -4.68 245.64 -4 247 C-3.34 247 -2.68 247 -2 247 C-1.67 247.66 -1.34 248.32 -1 249 C1.01669827 250.13350534 1.01669827 250.13350534 3 251 C3 252.98 3 254.96 3 257 C2.34 257 1.68 257 1 257 C1 255.68 1 254.36 1 253 C-1.35785318 253.89335797 -1.35785318 253.89335797 -2.125 257.0625 C-2.41375 258.031875 -2.7025 259.00125 -3 260 C-4.32 259.34 -5.64 258.68 -7 258 C-7 257.01 -7 256.02 -7 255 C-7.66 255 -8.32 255 -9 255 C-9.33 255.99 -9.66 256.98 -10 258 C-11.32 258 -12.64 258 -14 258 C-14 259.65 -14 261.3 -14 263 C-13.34 263 -12.68 263 -12 263 C-12 264.65 -12 266.3 -12 268 C-12.66 268 -13.32 268 -14 268 C-14 268.99 -14 269.98 -14 271 C-14.99 271 -15.98 271 -17 271 C-17.33 269.68 -17.66 268.36 -18 267 C-21.62793998 268.86566488 -21.62793998 268.86566488 -24 272 C-29.87987063 271.12890805 -34.23525309 266.3025679 -38 262 C-38 258 -38 258 -36.5 256.25 C-35.7575 255.63125 -35.7575 255.63125 -35 255 C-35.33 254.01 -35.66 253.02 -36 252 C-38.475 253.98 -38.475 253.98 -41 256 C-43.86001033 254.71792641 -46.07039412 253.50848764 -48 251 C-48 249.68 -48 248.36 -48 247 C-48.66 247 -49.32 247 -50 247 C-52.61046448 244.15222057 -54.42676569 241.86933162 -55 238 C-55.66 238 -56.32 238 -57 238 C-57.33 235.69 -57.66 233.38 -58 231 C-58.99 231.33 -59.98 231.66 -61 232 C-61.38091797 231.11248047 -61.38091797 231.11248047 -61.76953125 230.20703125 C-63.96292677 225.15296926 -63.96292677 225.15296926 -66.6875 220.375 C-68.66825784 216.79077153 -69 213.05885924 -69 209 C-69.31478446 207.66216607 -69.64587656 206.32796291 -70 205 C-68.35 204.67 -66.7 204.34 -65 204 C-65 206.97 -65 209.94 -65 213 C-63.68 213.33 -62.36 213.66 -61 214 C-61 212.35 -61 210.7 -61 209 C-61.66 209 -62.32 209 -63 209 C-63 208.01 -63 207.02 -63 206 C-61.515 205.01 -61.515 205.01 -60 204 C-59.74969023 201.41619823 -59.74969023 201.41619823 -60 199 C-60.86625 199.433125 -60.86625 199.433125 -61.75 199.875 C-63.83333333 200.91666667 -65.91666667 201.95833333 -68 203 C-68 202.34 -68 201.68 -68 201 C-68.66 201 -69.32 201 -70 201 C-69.33333333 199 -68.66666667 197 -68 195 C-66.35 195 -64.7 195 -63 195 C-63.33 194.01 -63.66 193.02 -64 192 C-64.99 192 -65.98 192 -67 192 C-67.33 191.34 -67.66 190.68 -68 190 C-68.33 191.65 -68.66 193.3 -69 195 C-69.99 195 -70.98 195 -72 195 C-72.495 195.99 -72.495 195.99 -73 197 C-73.66 197 -74.32 197 -75 197 C-74.25 189.25 -74.25 189.25 -72 187 C-71.67 187 -71.34 187 -71 187 C-71 186.01 -71 185.02 -71 184 C-71.99 184.33 -72.98 184.66 -74 185 C-74.33 184.01 -74.66 183.02 -75 182 C-75.66 181.67 -76.32 181.34 -77 181 C-79.72359354 175.4088344 -80.25163077 171.00782769 -79 165 C-79.33 164.67 -79.66 164.34 -80 164 C-80.25710583 160.2367484 -80.19029166 156.45847223 -80.1875 152.6875 C-80.18669434 151.59276367 -80.18588867 150.49802734 -80.18505859 149.37011719 C-80.05243051 131.89961797 -80.05243051 131.89961797 -77.0625 126.21875 C-75.46041562 122.87322086 -74.73303278 119.34738186 -73.875 115.75 C-73.69324219 115.00492187 -73.51148438 114.25984375 -73.32421875 113.4921875 C-72.87852501 111.6624974 -72.43868041 109.83138425 -72 108 C-70.02 107.505 -70.02 107.505 -68 107 C-68.2475 106.21625 -68.495 105.4325 -68.75 104.625 C-69.0983771 99.57353209 -67.53384898 95.36842145 -65 91 C-63.515 90.505 -63.515 90.505 -62 90 C-61.92652344 91.28197266 -61.92652344 91.28197266 -61.8515625 92.58984375 C-61.77679688 93.69457031 -61.70203125 94.79929687 -61.625 95.9375 C-61.55539063 97.03964844 -61.48578125 98.14179688 -61.4140625 99.27734375 C-61.27742188 100.17582031 -61.14078125 101.07429688 -61 102 C-60.34 102.33 -59.68 102.66 -59 103 C-58.375 105.0625 -58.375 105.0625 -58 107 C-56.02 106.505 -56.02 106.505 -54 106 C-54 105.67 -54 105.34 -54 105 C-54.99 105 -55.98 105 -57 105 C-58 102 -58 102 -58 100 C-58.66 99.01 -59.32 98.02 -60 97 C-61.28606088 90.77410265 -62.11251992 84.82199285 -58.75 79.1875 C-57.421875 77.29296875 -57.421875 77.29296875 -56 76 C-55.01 76 -54.02 76 -53 76 C-52.9175 74.9275 -52.835 73.855 -52.75 72.75 C-51.90242979 68.51214896 -51.12961991 67.78188436 -48 65 C-47.18766377 63.86872639 -46.39754228 62.72131343 -45.625 61.5625 C-43.15037701 57.9990429 -40.40385898 55.67963367 -37 53 C-36.2575 52.236875 -35.515 51.47375 -34.75 50.6875 C-33 49 -33 49 -31 49 C-30.34 47.68 -29.68 46.36 -29 45 C-27.68 45.33 -26.36 45.66 -25 46 C-24.8453125 44.824375 -24.8453125 44.824375 -24.6875 43.625 C-24 41 -24 41 -21 39 C-20.01 39 -19.02 39 -18 39 C-17.67 39.66 -17.34 40.32 -17 41 C-17.020625 40.13375 -17.04125 39.2675 -17.0625 38.375 C-15.44534391 33.23815125 -11.53460941 31.59120538 -7 29 C-6.28972656 28.70609375 -5.57945312 28.4121875 -4.84765625 28.109375 C-2.60076057 27.02498363 -1.51868534 25.97580207 0 24 C0.44861125 22.06281703 0.44861125 22.06281703 0.39453125 19.9765625 C0.40411865 19.21835205 0.41370605 18.4601416 0.42358398 17.67895508 C0.3759989 15.36115501 0.27442962 13.05303796 0.1484375 10.73828125 C0 7 0 7 1 5 C0.505 2.525 0.505 2.525 0 0 Z M-14 44 C-13.34 44.66 -12.68 45.32 -12 46 C-12 45.34 -12 44.68 -12 44 C-12.66 44 -13.32 44 -14 44 Z M11 49 C11.33 50.98 11.66 52.96 12 55 C13.32 53.68 14.64 52.36 16 51 C15.67 50.34 15.34 49.68 15 49 C14.34 49.66 13.68 50.32 13 51 C12.34 50.34 11.68 49.68 11 49 Z M-50 71 C-49.67 73.31 -49.34 75.62 -49 78 C-48.01 78 -47.02 78 -46 78 C-46 76.68 -46 75.36 -46 74 C-45.34 73.67 -44.68 73.34 -44 73 C-45.98 72.34 -47.96 71.68 -50 71 Z M-47 80 C-48.83691257 83.78187881 -49.15837626 85.94568308 -48 90 C-47.34 89.67 -46.68 89.34 -46 89 C-46 86.03 -46 83.06 -46 80 C-46.33 80 -46.66 80 -47 80 Z M-39 81 C-38 83 -38 83 -38 83 Z M-57 85 C-56 87 -56 87 -56 87 Z M-51 85 C-50 89 -50 89 -50 89 Z M-42 87 C-42 90 -42 90 -42 90 Z M-64 112 C-63.34 112.66 -62.68 113.32 -62 114 C-62 113.34 -62 112.68 -62 112 C-62.66 112 -63.32 112 -64 112 Z M-62 116 C-62 116.66 -62 117.32 -62 118 C-61.34 117.67 -60.68 117.34 -60 117 C-60.66 116.67 -61.32 116.34 -62 116 Z M-64 120 C-64.66 120.66 -65.32 121.32 -66 122 C-65.01 122 -64.02 122 -63 122 C-63.33 121.34 -63.66 120.68 -64 120 Z M-68 126 C-67 128 -67 128 -67 128 Z M-63 126 C-62 130 -62 130 -62 130 Z M-71 129 C-71 131.31 -71 133.62 -71 136 C-69.25372522 133.38058783 -68.61277612 131.96175123 -68 129 C-68.99 129 -69.98 129 -71 129 Z M-50 133 C-50 133.66 -50 134.32 -50 135 C-49.34 135 -48.68 135 -48 135 C-48 134.34 -48 133.68 -48 133 C-48.66 133 -49.32 133 -50 133 Z M-52 157 C-51 160 -51 160 -51 160 Z M-60 161 C-60 163.31 -60 165.62 -60 168 C-59.01 167.67 -58.02 167.34 -57 167 C-57 166.34 -57 165.68 -57 165 C-55.35 165.33 -53.7 165.66 -52 166 C-52 165.01 -52 164.02 -52 163 C-54.90600261 161.74335022 -56.79604584 161 -60 161 Z M-57 168 C-57 168.99 -57 169.98 -57 171 C-56.01 170.67 -55.02 170.34 -54 170 C-54.99 169.34 -55.98 168.68 -57 168 Z M-52 169 C-52 169.66 -52 170.32 -52 171 C-51.01 170.67 -50.02 170.34 -49 170 C-49.99 169.67 -50.98 169.34 -52 169 Z M-49 171 C-48.67 172.32 -48.34 173.64 -48 175 C-47.67 173.68 -47.34 172.36 -47 171 C-47.66 171 -48.32 171 -49 171 Z M-59 173 C-60.29633621 174.06645115 -60.29633621 174.06645115 -60.0625 176.5625 C-60.041875 177.366875 -60.02125 178.17125 -60 179 C-59.34 179 -58.68 179 -58 179 C-58 177.02 -58 175.04 -58 173 C-58.33 173 -58.66 173 -59 173 Z M-71 181 C-70.67 181.66 -70.34 182.32 -70 183 C-69.67 182.34 -69.34 181.68 -69 181 C-69.66 181 -70.32 181 -71 181 Z M-60 182 C-60.33 183.65 -60.66 185.3 -61 187 C-62.65 186.67 -64.3 186.34 -66 186 C-66 186.99 -66 187.98 -66 189 C-63.525 189.99 -63.525 189.99 -61 191 C-59.47700477 188.06279492 -58.19899698 185.0831351 -57 182 C-57.99 182 -58.98 182 -60 182 Z M-60 215 C-60.76716851 217.85078091 -60.76716851 217.85078091 -61 221 C-59.68681738 222.89958081 -59.68681738 222.89958081 -58 224 C-58 221.36 -58 218.72 -58 216 C-58.66 215.67 -59.32 215.34 -60 215 Z M-23 229 C-22 231 -22 231 -22 231 Z M-31 235 C-30 237 -30 237 -30 237 Z M-24 235 C-23 237 -23 237 -23 237 Z M-31 241 C-30 243 -30 243 -30 243 Z M-34 249 C-33.67 249.66 -33.34 250.32 -33 251 C-32.67 250.34 -32.34 249.68 -32 249 C-32.66 249 -33.32 249 -34 249 Z M-9 249 C-9.33 250.32 -9.66 251.64 -10 253 C-8.35 253 -6.7 253 -5 253 C-5.33 251.68 -5.66 250.36 -6 249 C-6.99 249 -7.98 249 -9 249 Z " fill="#FEFEFE" transform="translate(235,173)"/>
<path d="M0 0 C15.14520163 -0.02359366 30.2904024 -0.04110679 45.4356184 -0.05181217 C52.4713268 -0.0569199 59.50702364 -0.06385408 66.54272461 -0.07543945 C72.69097618 -0.08555848 78.83921936 -0.09189329 84.98747903 -0.09408849 C88.22843701 -0.09536713 91.4693661 -0.09883016 94.71031761 -0.10573006 C108.56712118 -0.13400449 122.40588244 -0.0035697 136.25512695 0.44360352 C137.51774699 0.48245887 138.78036703 0.52131422 140.08124828 0.56134701 C141.81362979 0.62355859 141.81362979 0.62355859 143.58100891 0.68702698 C144.60561376 0.72306314 145.6302186 0.75909929 146.68587208 0.79622746 C149 1 149 1 150 2 C150.1259732 5.00636955 150.18868855 7.9885053 150.203125 10.99609375 C150.20882507 11.8999733 150.21452515 12.80385284 150.22039795 13.73512268 C150.22986229 15.65095849 150.2363876 17.56681069 150.24023438 19.48266602 C150.24994769 22.42167368 150.28096047 25.35998457 150.3125 28.29882812 C150.31902888 30.15624583 150.32427981 32.01366855 150.328125 33.87109375 C150.3404718 34.75445908 150.3528186 35.6378244 150.36553955 36.54795837 C150.35644531 39.02514648 150.35644531 39.02514648 150 43 C144.08192298 46.94538468 135.73005926 45.05979159 128.86614227 44.63275814 C116.48192618 43.88315285 104.12156263 43.87189647 91.71875 43.90234375 C89.44380729 43.90421455 87.16886416 43.90563531 84.8939209 43.90663147 C78.97038618 43.91040807 73.04687688 43.92019327 67.12335205 43.93133545 C61.0653111 43.94164223 55.00726598 43.94615222 48.94921875 43.95117188 C37.60768909 43.96135454 26.26617594 43.9770861 14.92465973 43.99720669 C13.28310795 43.99958912 11.64155351 44 10 44 C9.19304687 44.01160156 8.38609375 44.02320313 7.5546875 44.03515625 C6.22824219 44.04869141 6.22824219 44.04869141 4.875 44.0625 C3.98554688 44.07410156 3.09609375 44.08570313 2.1796875 44.09765625 C0 44 0 44 -1 43 C-1.10113669 40.24679208 -1.13969086 37.51922663 -1.1328125 34.765625 C-1.13376923 33.93544861 -1.13472595 33.10527222 -1.13571167 32.24993896 C-1.13639378 30.48791427 -1.13453738 28.72588709 -1.13037109 26.96386719 C-1.12505014 24.27533244 -1.13030103 21.58696683 -1.13671875 18.8984375 C-1.13605744 17.18749963 -1.1347752 15.47656187 -1.1328125 13.765625 C-1.13483673 12.96336487 -1.13686096 12.16110474 -1.13894653 11.33453369 C-1.13579437 10.57735046 -1.13264221 9.82016724 -1.12939453 9.04003906 C-1.12859894 8.37909241 -1.12780334 7.71814575 -1.12698364 7.03717041 C-0.97697228 4.63057134 -0.48917235 2.35873595 0 0 Z M113 4 C114 6 114 6 114 6 Z M31 5 C32 9 32 9 32 9 Z M123 5 C123.33 6.32 123.66 7.64 124 9 C124.66 8.34 125.32 7.68 126 7 C125.01 6.34 124.02 5.68 123 5 Z M76 8 C76 10.31 76 12.62 76 15 C76.99 14.01 77.98 13.02 79 12 C78.34 10.68 77.68 9.36 77 8 C76.67 8 76.34 8 76 8 Z M113 9 C114 11 114 11 114 11 Z M54 19 C55 21 55 21 55 21 Z M63 30 C63 31.98 63 33.96 63 36 C64.65 35.34 66.3 34.68 68 34 C67.67 32.68 67.34 31.36 67 30 C66.67 30.66 66.34 31.32 66 32 C65.34 32 64.68 32 64 32 C63.67 31.34 63.34 30.68 63 30 Z M31 34 C32 36 32 36 32 36 Z M117 34 C117.33 35.32 117.66 36.64 118 38 C118.99 37.67 119.98 37.34 121 37 C119.68 36.01 118.36 35.02 117 34 Z M62 36 C63 38 63 38 63 38 Z " fill="#FEFEFE" transform="translate(236,110)"/>
<path d="M0 0 C1.9375 0.8125 1.9375 0.8125 4 2 C4.33 2.99 4.66 3.98 5 5 C6.670625 5.7115625 6.670625 5.7115625 8.375 6.4375 C11.90667483 7.95977363 13.19387253 8.70647343 15 12 C15 12.66 15 13.32 15 14 C15.78375 14.268125 16.5675 14.53625 17.375 14.8125 C20 16 20 16 22 19 C22.99 19.33 23.98 19.66 25 20 C25.495 20.99 25.495 20.99 26 22 C26.721875 21.855625 27.44375 21.71125 28.1875 21.5625 C30.0625 21.1875 31.9375 20.8125 33.8125 20.4375 C34.534375 20.293125 35.25625 20.14875 36 20 C36.495 18.515 36.495 18.515 37 17 C38.75 15.82421875 38.75 15.82421875 41 14.6875 C45.23872593 12.47011227 49.08323632 9.93798758 52.95703125 7.13671875 C55 6 55 6 59 6 C57.60912374 12.78476225 56.18440233 18.61791678 52.0859375 24.28125 C50.89330801 26.16886501 50.43004487 27.82110598 50 30 C49.34 30 48.68 30 48 30 C48.495 31.98 48.495 31.98 49 34 C48.34 34 47.68 34 47 34 C46.32434494 36.65716506 46.32434494 36.65716506 47 40 C50.93033787 45.01558041 56.07866696 48.9942638 61 53 C62.0194119 53.98020375 63.02246356 54.97803008 64 56 C64.70125 56.639375 65.4025 57.27875 66.125 57.9375 C68.09142888 60.10057176 68.4309854 61.21879601 69 64 C49.14510166 64.41173752 49.14510166 64.41173752 41.765625 61.8984375 C38.95851929 60.68390168 38.95851929 60.68390168 36 62 C35.14824563 63.99460154 35.14824563 63.99460154 34.625 66.4375 C33.59403022 70.24666202 32.33040298 73.5661015 30.5 77.0625 C27.48970932 82.82013429 25.52597395 88.69829278 24 95 C23.01 95 22.02 95 21 95 C20.7834375 93.2984375 20.7834375 93.2984375 20.5625 91.5625 C20.38828522 88.19222799 20.38828522 88.19222799 19 87 C17.19677596 79.77730372 15.58281048 72.43083364 15 65 C15.33 64.67 15.66 64.34 16 64 C12.85048144 60.23892444 10.57114884 59.3788455 5.75 58.75 C4.67234375 58.60046875 3.5946875 58.4509375 2.484375 58.296875 C1.66453125 58.19890625 0.8446875 58.1009375 0 58 C0 57.34 0 56.68 0 56 C-1.258125 55.896875 -2.51625 55.79375 -3.8125 55.6875 C-6.36524139 55.35767678 -7.79802006 55.12623746 -10 53.75 C-11.42885836 51.24949787 -11.565101 49.825505 -11 47 C-8.89453125 45.60546875 -8.89453125 45.60546875 -6 44 C-3.7275561 42.60669618 -1.45651972 41.21134939 0.8125 39.8125 C1.40998047 39.44447266 2.00746094 39.07644531 2.62304688 38.69726562 C4.08218943 37.79843381 5.54111695 36.89925295 7 36 C6.45879595 32.43111666 5.78619854 29.10242258 4.625 25.6875 C3.12925809 20.86870586 2.18260767 16.02399844 1.3125 11.0625 C1.18117676 10.31637451 1.04985352 9.57024902 0.91455078 8.80151367 C0.40978077 5.83014604 0 3.0195047 0 0 Z M14 22 C15 24 15 24 15 24 Z M42 34 C42.33 35.32 42.66 36.64 43 38 C43.33 37.01 43.66 36.02 44 35 C43.34 34.67 42.68 34.34 42 34 Z M47 56 C48 58 48 58 48 58 Z " fill="#FDFEFE" transform="translate(560,291)"/>
<path d="M0 0 C0.66 0.33 1.32 0.66 2 1 C2.19916016 1.96679688 2.19916016 1.96679688 2.40234375 2.953125 C2.69818359 3.96632813 2.69818359 3.96632813 3 5 C4.89809051 5.93239534 6.80030744 6.85774308 8.7265625 7.73046875 C13.57651736 10.43877687 18.23040908 14.69122724 20 20 C21.31647119 20.69937532 22.65022151 21.36729133 24 22 C24.495 22.99 24.495 22.99 25 24 C25.9075 23.505 26.815 23.01 27.75 22.5 C31 21 31 21 35 21 C35 20.01 35 19.02 35 18 C35.68707031 17.67386719 36.37414063 17.34773438 37.08203125 17.01171875 C38.43361328 16.35623047 38.43361328 16.35623047 39.8125 15.6875 C40.70582031 15.25824219 41.59914062 14.82898438 42.51953125 14.38671875 C44.81866036 13.10137886 46.21567319 11.8920017 48 10 C53.27121824 6.85969977 53.27121824 6.85969977 56.19140625 7.421875 C56.78824219 7.61265625 57.38507813 7.8034375 58 8 C56.88110128 10.79425509 55.75522071 13.58532824 54.625 16.375 C54.30789062 17.1690625 53.99078125 17.963125 53.6640625 18.78125 C53.2 19.92207031 53.2 19.92207031 52.7265625 21.0859375 C52.44377441 21.7876709 52.16098633 22.4894043 51.86962891 23.21240234 C51 25 51 25 49 27 C48.4297902 28.33412724 47.91269425 29.69165167 47.4375 31.0625 C46.09722222 34.90277778 46.09722222 34.90277778 45 36 C44.49758678 38.3295947 44.49758678 38.3295947 45 41 C46.59969122 42.73105273 48.2813432 44.38699833 50 46 C50.49097168 46.46229004 50.98194336 46.92458008 51.48779297 47.40087891 C53.02450517 48.8398497 54.57294382 50.26510437 56.125 51.6875 C56.64964844 52.17283203 57.17429687 52.65816406 57.71484375 53.15820312 C60.06509902 55.31508296 62.33937022 57.22624681 65 59 C65.1875 62.125 65.1875 62.125 65 65 C63.68 65 62.36 65 61 65 C61 64.34 61 63.68 61 63 C60.01 63.495 60.01 63.495 59 64 C56.75254466 64.12389818 54.50083658 64.1756285 52.25 64.1875 C50.43242188 64.20876953 50.43242188 64.20876953 48.578125 64.23046875 C45.02844511 64.00183216 42.31707684 63.22693047 39 62 C36.83545605 61.78802545 36.83545605 61.78802545 35.046875 63.609375 C32.69558515 66.35553795 31.56460224 68.89046095 30.25 72.25 C29.82203125 73.32765625 29.3940625 74.4053125 28.953125 75.515625 C28.63859375 76.33546875 28.3240625 77.1553125 28 78 C27.34 78 26.68 78 26 78 C25.87625 78.680625 25.7525 79.36125 25.625 80.0625 C24.4710411 85.48610681 23.30440682 90.45644063 20 95 C19.34 95 18.68 95 18 95 C16.70756464 90.8803623 15.73747375 87.33168317 16 83 C16.66 83 17.32 83 18 83 C18 82.34 18 81.68 18 81 C16.515 80.505 16.515 80.505 15 80 C13.1422375 76.46526397 12.76779087 73.38621662 12.625 69.4375 C12.34888287 66.17668813 12.17434628 64.3107912 10.5625 61.4375 C7.24935612 59.57890709 4.07803479 59.04307881 0.33984375 58.4921875 C-2 58 -2 58 -5 56 C-5 55.34 -5 54.68 -5 54 C-5.928125 54.04125 -6.85625 54.0825 -7.8125 54.125 C-11 54 -11 54 -14 52 C-14.03515625 49.80078125 -14.03515625 49.80078125 -13 47 C-9.61928309 44.53708914 -5.75465053 42.82027975 -1.99414062 41.01367188 C0.25928172 39.82314866 2.13981215 38.74473187 4 37 C4.94318785 31.41473701 3.61727454 26.65577983 2.0625 21.25 C0.2625941 14.56811449 -1.06297619 7.96516655 -1 1 C-0.67 0.67 -0.34 0.34 0 0 Z M13 24 C14 27 14 27 14 27 Z M40 35 C41 37 41 37 41 37 Z M35 42 C36 44 36 44 36 44 Z M44 56 C44.33 56.99 44.66 57.98 45 59 C45.66 58.67 46.32 58.34 47 58 C46.01 57.34 45.02 56.68 44 56 Z " fill="#FEFEFE" transform="translate(14,298)"/>
<path d="M0 0 C0.350625 0.4125 0.70125 0.825 1.0625 1.25 C2.87649789 2.88844971 4.4960287 3.89528165 6.625 5.0625 C10 7 10 7 11 9 C12.65697379 9.69040574 14.3255761 10.3530635 16 11 C19.38369529 12.80988353 20.83633723 13.75450585 23 17 C26.61795765 19.09037553 29.86594138 20.3920502 34 21 C33.45018084 27.04801071 32.09570426 32.30601106 30 38 C29.48566406 37.66355469 28.97132812 37.32710937 28.44140625 36.98046875 C25.10318292 35.63983826 22.50464319 36.00117205 18.9375 36.3125 C17.70902344 36.41175781 16.48054688 36.51101562 15.21484375 36.61328125 C11.9887019 36.89228685 11.9887019 36.89228685 9 38 C10.69774175 39.32617193 12.40871665 40.63541303 14.125 41.9375 C15.55199219 43.03384766 15.55199219 43.03384766 17.0078125 44.15234375 C20.13182837 46.08140316 22.37654094 46.66130872 26 47 C25.58411954 53.19518473 24.39748106 58.26689311 22 64 C21.01 63.67 20.02 63.34 19 63 C16.96788309 62.90500776 14.93277236 62.86927339 12.8984375 62.8671875 C11.07892578 62.86525391 11.07892578 62.86525391 9.22265625 62.86328125 C7.31806641 62.86908203 7.31806641 62.86908203 5.375 62.875 C4.12847656 62.87113281 2.88195312 62.86726563 1.59765625 62.86328125 C-5.02043564 62.87026973 -11.4414949 63.10371839 -18 64 C-18.37851209 58.06997733 -17.10575375 53.52760359 -15 48 C-14.00871094 48.32742187 -13.01742188 48.65484375 -11.99609375 48.9921875 C-7.98177322 50.13913622 -4.24139756 50.19896279 -0.0625 50.125 C0.96327148 50.11146484 0.96327148 50.11146484 2.00976562 50.09765625 C3.67333287 50.07438958 5.33671631 50.03853167 7 50 C1.51984852 44.55046389 -3.6632703 41.42051943 -11 39 C-11 37.68 -11 36.36 -11 35 C-8.5625 33.375 -8.5625 33.375 -6 32 C-5.67 31.34 -5.34 30.68 -5 30 C-5.99 29.67 -6.98 29.34 -8 29 C-8 27.35 -8 25.7 -8 24 C-7.01 23.67 -6.02 23.34 -5 23 C-4.67 23.66 -4.34 24.32 -4 25 C2.27 24.67 8.54 24.34 15 24 C6.74226957 16.99030111 6.74226957 16.99030111 -3 13 C-3.27429625 7.60550707 -3.36055646 4.48074195 0 0 Z " fill="#FDFEFE" transform="translate(22,192)"/>
<path d="M0 0 C0.12375 1.0725 0.2475 2.145 0.375 3.25 C1.07983158 7.47898947 2.05866553 9.76902415 4.625 13.125 C6 15 6 15 6 17 C5.34 17 4.68 17 4 17 C4.495 18.485 4.495 18.485 5 20 C5.639375 20.12375 6.27875 20.2475 6.9375 20.375 C9 21 9 21 10.25 23.125 C11.53139094 28.03699861 11.68800971 31.53797936 9.5 36.1875 C6.41180606 39.66171818 3.42564857 41.5898234 -1 43 C-3.625 42.875 -3.625 42.875 -6 42 C-7.093125 41.649375 -8.18625 41.29875 -9.3125 40.9375 C-10.199375 40.628125 -11.08625 40.31875 -12 40 C-12.9834496 41.43457328 -13.96160921 42.87277406 -14.9375 44.3125 C-15.48277344 45.11300781 -16.02804687 45.91351563 -16.58984375 46.73828125 C-18.13837326 49.0258143 -18.13837326 49.0258143 -19 52 C-21.5312714 51.00557195 -22.7857988 50.33650744 -24.265625 48.01171875 C-27.54945055 40.25824176 -27.54945055 40.25824176 -27 36 C-26.21625 35.938125 -25.4325 35.87625 -24.625 35.8125 C-23.75875 35.544375 -22.8925 35.27625 -22 35 C-20.68931667 32.55711372 -20.68931667 32.55711372 -20 30 C-19.67 29.67 -19.34 29.34 -19 29 C-18.92851801 27.64756083 -18.91600546 26.29165633 -18.9375 24.9375 C-18.958125 23.638125 -18.97875 22.33875 -19 21 C-20.41719242 21.62380692 -21.8337306 22.2491003 -23.25 22.875 C-24.03890625 23.22304687 -24.8278125 23.57109375 -25.640625 23.9296875 C-27.78868608 24.90413905 -29.89829202 25.92986429 -32 27 C-35.62107449 22.55595403 -37.33060893 18.78565632 -37 13 C-35.9275 12.773125 -34.855 12.54625 -33.75 12.3125 C-26.56572897 10.49752627 -19.79756342 7.46403364 -13.22265625 4.08203125 C-12.59246582 3.75807373 -11.96227539 3.43411621 -11.31298828 3.1003418 C-9.51367902 2.16461666 -7.72340455 1.21158013 -5.93359375 0.2578125 C-3 -1 -3 -1 0 0 Z M-4 11 C-4.598125 11.61875 -5.19625 12.2375 -5.8125 12.875 C-8 15 -8 15 -11 17 C-10.42685824 21.7284195 -8.42313355 26.57686645 -5 30 C-3.33382885 30.04063832 -1.66611905 30.042721 0 30 C1.49828872 26.11764181 0.43110582 23.56550712 -0.9375 19.75 C-1.31777344 18.67234375 -1.69804688 17.5946875 -2.08984375 16.484375 C-2.39019531 15.66453125 -2.69054687 14.8446875 -3 14 C-2.01 13.67 -1.02 13.34 0 13 C-1.32 12.34 -2.64 11.68 -4 11 Z " fill="#FDFEFE" transform="translate(594,172)"/>
<path d="M0 0 C2.00801503 -0.00968068 4.01588859 -0.04087853 6.02368164 -0.07226562 C7.29920898 -0.07742187 8.57473633 -0.08257813 9.88891602 -0.08789062 C11.63555542 -0.10190918 11.63555542 -0.10190918 13.41748047 -0.11621094 C17.80546249 0.35837635 21.24776726 1.74006004 24.35766602 4.92382812 C24.7430957 5.50261719 25.12852539 6.08140625 25.52563477 6.67773438 C25.92395508 7.25394531 26.32227539 7.83015625 26.73266602 8.42382812 C28.86791373 12.37956592 28.9014949 16.23452716 28.96313477 20.67773438 C28.98891602 21.79019531 29.01469727 22.90265625 29.04125977 24.04882812 C28.67710125 27.59070326 27.74509228 29.35954768 25.71313477 32.24023438 C25.15625977 33.10648438 24.59938477 33.97273438 24.02563477 34.86523438 C19.19485302 39.82657779 13.67155063 40.42951258 7.02563477 40.53320312 C4.58796137 40.51343821 2.15037164 40.47792035 -0.28686523 40.42773438 C-1.53854492 40.41419922 -2.79022461 40.40066406 -4.07983398 40.38671875 C-7.14929639 40.35157223 -10.21785032 40.30236663 -13.28686523 40.24023438 C-13.2763916 39.30751709 -13.26591797 38.3747998 -13.25512695 37.41381836 C-13.220879 33.92681365 -13.1958859 30.4399898 -13.17700195 26.95288086 C-13.166994 25.44862025 -13.15338344 23.94437885 -13.13598633 22.44018555 C-13.11150714 20.26801795 -13.10033001 18.09610933 -13.09155273 15.92382812 C-13.0810791 14.61986084 -13.07060547 13.31589355 -13.05981445 11.97241211 C-13.29982235 8.02725006 -14.06499342 4.97561065 -15.28686523 1.24023438 C-10.33338601 -0.41092537 -5.18779418 0.01514132 0 0 Z M1.02563477 10.05273438 C-2.33780096 14.68882146 -1.91265167 18.68736989 -1.28686523 24.24023438 C-0.78439167 26.69348768 -0.12833247 28.87360778 0.71313477 31.24023438 C5.63440511 31.4070571 9.21657373 31.48851489 13.71313477 29.24023438 C13.71313477 28.58023437 13.71313477 27.92023437 13.71313477 27.24023438 C14.37313477 27.24023438 15.03313477 27.24023438 15.71313477 27.24023438 C17.07101579 22.84421667 18.03280639 19.45041982 16.83813477 14.92773438 C14.04498978 11.39522748 10.94915134 9.69209489 6.71313477 8.24023438 C3.58740823 7.96066354 3.58740823 7.96066354 1.02563477 10.05273438 Z " fill="#FDFEFE" transform="translate(295.286865234375,-0.240234375)"/>
<path d="M0 0 C4.15509209 1.3850307 5.62686829 4.34004992 8 7.8125 C8.87469118 9.06922541 9.74968357 10.32574125 10.625 11.58203125 C11.03411621 12.1757251 11.44323242 12.76941895 11.86474609 13.38110352 C12.80487667 14.72174994 13.79133535 16.02977263 14.7890625 17.328125 C16 19 16 19 16.375 20.9375 C17.34001922 24.12206342 19.60183319 25.77730881 22 28 C24 30 24 30 24 33 C23.34 33 22.68 33 22 33 C20.29319053 34.62553283 18.62339805 36.29115995 17 38 C14 37 14 37 13.078125 35.28515625 C12.80484375 34.55167969 12.5315625 33.81820312 12.25 33.0625 C10.25924285 28.21002945 7.51408572 24.25945541 4.390625 20.06640625 C3 18 3 18 3 16 C1.35 16.66 -0.3 17.32 -2 18 C1.24846241 25.59609345 1.24846241 25.59609345 7 31 C6.8125 32.8125 6.8125 32.8125 6 35 C3.09303401 37.14197494 1.64478912 38 -2 38 C-2.67154933 36.71086513 -3.33708859 35.41859796 -4 34.125 C-4.37125 33.40570313 -4.7425 32.68640625 -5.125 31.9453125 C-6 30 -6 30 -6 28 C-6.66 28 -7.32 28 -8 28 C-8.66 27.01 -9.32 26.02 -10 25 C-11.97536745 25.34786708 -11.97536745 25.34786708 -14 26 C-14.33 26.66 -14.66 27.32 -15 28 C-13.72084851 30.48262318 -13.72084851 30.48262318 -11.875 33.1875 C-11.22917969 34.16847656 -10.58335937 35.14945313 -9.91796875 36.16015625 C-9.28503906 37.09730469 -8.65210938 38.03445312 -8 39 C-7.50113281 39.74121094 -7.00226562 40.48242188 -6.48828125 41.24609375 C-4.24299775 44.6581157 -4.24299775 44.6581157 -1 47 C-2.38827146 50.35498935 -3.85585774 52.15050455 -7 54 C-8.32 54 -9.64 54 -11 54 C-11.268125 53.48953125 -11.53625 52.9790625 -11.8125 52.453125 C-16.99689467 42.83470857 -23.21906056 33.90304389 -29.75 25.15625 C-31 23 -31 23 -31 19 C-30.42507813 18.87882812 -29.85015625 18.75765625 -29.2578125 18.6328125 C-19.07334585 15.77834261 -9.73284 7.54963107 -1.69140625 0.96875 C-1.13324219 0.6490625 -0.57507813 0.329375 0 0 Z " fill="#FDFEFE" transform="translate(561,124)"/>
<path d="M0 0 C1.32 0.33 2.64 0.66 4 1 C4.66 3.64 5.32 6.28 6 9 C-0.54425106 13.24458901 -7.12304957 17.31531298 -14 21 C-13.67 23.31 -13.34 25.62 -13 28 C-12.319375 27.2575 -11.63875 26.515 -10.9375 25.75 C-8.90385888 23.69897733 -6.90640284 22.26162831 -4.375 20.875 C-1.61213093 19.34007274 -0.08239299 18.23383975 2 16 C3.00578589 17.28716647 4.00446798 18.57988658 5 19.875 C5.556875 20.59429687 6.11375 21.31359375 6.6875 22.0546875 C8 24 8 24 8 26 C7.32453125 26.25394531 6.6490625 26.50789063 5.953125 26.76953125 C5.06109375 27.11371094 4.1690625 27.45789063 3.25 27.8125 C2.36828125 28.14894531 1.4865625 28.48539063 0.578125 28.83203125 C-1.93039808 29.96846822 -3.87279005 31.26542927 -6 33 C-5.67 34.65 -5.34 36.3 -5 38 C-1.05043892 38 -0.31444515 37.88439107 2.78515625 35.91796875 C3.48060547 35.48033203 4.17605469 35.04269531 4.89257812 34.59179688 C5.96668945 33.89666992 5.96668945 33.89666992 7.0625 33.1875 C7.78244141 32.73568359 8.50238281 32.28386719 9.24414062 31.81835938 C12.48908684 29.75448922 15.34631095 27.80652198 18 25 C21 29.75 21 29.75 21 32 C20.34 32.66 19.68 33.32 19 34 C18.896875 34.61875 18.79375 35.2375 18.6875 35.875 C17.64962058 39.08299095 15.7639969 40.1573354 13 42 C11.0040278 42.67863055 9.00431449 43.34641919 7 44 C6.33484375 44.67482422 6.33484375 44.67482422 5.65625 45.36328125 C3.53034276 47.46411883 1.2463743 48.69581237 -1.375 50.125 C-2.77878906 50.90230469 -2.77878906 50.90230469 -4.2109375 51.6953125 C-6.85514272 52.93223763 -9.12575929 53.57147684 -12 54 C-12.35191406 53.24976563 -12.70382813 52.49953125 -13.06640625 51.7265625 C-16.48732842 44.63462464 -20.39281322 38.36434639 -25 32 C-25.99620396 30.55325153 -26.97695478 29.09566528 -27.9375 27.625 C-28.33839844 27.01914062 -28.73929688 26.41328125 -29.15234375 25.7890625 C-30 24 -30 24 -30 20 C-27.88936386 18.32730565 -25.92437208 16.98669534 -23.625 15.625 C-22.99029785 15.2336084 -22.3555957 14.8422168 -21.70166016 14.43896484 C-19.8099471 13.27721925 -17.90734479 12.13585741 -16 11 C-14.50726563 10.1028125 -14.50726563 10.1028125 -12.984375 9.1875 C-11.35664691 8.21281252 -9.72452933 7.24537377 -8.0859375 6.2890625 C-5.93781539 5.01215859 -5.93781539 5.01215859 -3.8515625 3.3359375 C-2 2 -2 2 0 2 C0 1.34 0 0.68 0 0 Z " fill="#FDFEFE" transform="translate(164,35)"/>
<path d="M0 0 C0.66 0 1.32 0 2 0 C2 1.65 2 3.3 2 5 C2.66 5.33 3.32 5.66 4 6 C4 5.01 4 4.02 4 3 C8.3270992 3.65562109 12.03241834 5.24347841 16 7 C21.67481427 9.44685192 27.08516103 11.43990318 33.1875 12.5078125 C35 13 35 13 37 15 C37.99 14.67 38.98 14.34 40 14 C42.6875 14.4375 42.6875 14.4375 45 15 C45 15.99 45 16.98 45 18 C44.29363403 18.68412964 44.29363403 18.68412964 43.57299805 19.38208008 C41.53472301 21.47856443 41.33481786 23.0260363 40.83203125 25.88671875 C40.57583008 27.2934082 40.57583008 27.2934082 40.31445312 28.72851562 C40.14880859 29.70498047 39.98316406 30.68144531 39.8125 31.6875 C39.63525391 32.67556641 39.45800781 33.66363281 39.27539062 34.68164062 C38.83965178 37.11942279 38.41498181 39.5586135 38 42 C37.360625 42.12375 36.72125 42.2475 36.0625 42.375 C35.381875 42.58125 34.70125 42.7875 34 43 C33.505 43.99 33.505 43.99 33 45 C32.01 45 31.02 45 30 45 C30.8125 41.5625 30.8125 41.5625 32 38 C32.99 37.67 33.98 37.34 35 37 C34.484375 36.38125 33.96875 35.7625 33.4375 35.125 C31.35202207 30.59135232 32.29186601 26.82043015 33 22 C33 19.84365964 32.5534764 18.07553648 32 16 C31.67 16.66 31.34 17.32 31 18 C29.35 18.33 27.7 18.66 26 19 C26 22.96 26 26.92 26 31 C25.34 31 24.68 31 24 31 C24 32.65 24 34.3 24 36 C23.34 36 22.68 36 22 36 C22 36.66 22 37.32 22 38 C22.66 38 23.32 38 24 38 C24 38.66 24 39.32 24 40 C20.535 40.495 20.535 40.495 17 41 C17.33 38.36 17.66 35.72 18 33 C17.34 32.67 16.68 32.34 16 32 C15.731875 32.928125 15.46375 33.85625 15.1875 34.8125 C13.50434783 39.33043478 13.50434783 39.33043478 11 41 C8.4375 41.3125 8.4375 41.3125 6 41 C5.34 40.34 4.68 39.68 4 39 C2.7315625 38.566875 2.7315625 38.566875 1.4375 38.125 C0.633125 37.75375 -0.17125 37.3825 -1 37 C-1.6875 34.9375 -1.6875 34.9375 -2 33 C-2.66 32.67 -3.32 32.34 -4 32 C-4.08728882 28.75017 -4.14048658 25.5006425 -4.1875 22.25 C-4.21263672 21.32960938 -4.23777344 20.40921875 -4.26367188 19.4609375 C-4.27333984 18.57148438 -4.28300781 17.68203125 -4.29296875 16.765625 C-4.3086792 15.94868164 -4.32438965 15.13173828 -4.34057617 14.29003906 C-3.92183229 11.47439922 -2.78841733 10.16917715 -1 8 C-0.43672257 5.88181743 -0.43672257 5.88181743 -0.3125 3.75 C-0.209375 2.5125 -0.10625 1.275 0 0 Z M11 10 C12 12 12 12 12 12 Z M7 33 C7.33 34.32 7.66 35.64 8 37 C8.33 35.68 8.66 34.36 9 33 C8.34 33 7.68 33 7 33 Z M4 34 C4 37 4 37 4 37 Z " fill="#FEFEFE" transform="translate(248,431)"/>
<path d="M0 0 C0.99 0.33 1.98 0.66 3 1 C2.49477778 5.37859255 -0.17827222 7.81651224 -3 11 C-6.3503698 10.42235003 -7.68233772 9.41423154 -10 7 C-13.03187912 5.16109941 -15.22590919 4.77135027 -18.75 4.875 C-19.94882812 4.90207031 -19.94882812 4.90207031 -21.171875 4.9296875 C-22.07679688 4.96449219 -22.07679688 4.96449219 -23 5 C-23 5.66 -23 6.32 -23 7 C-21.35451172 7.79664063 -21.35451172 7.79664063 -19.67578125 8.609375 C-18.22119474 9.32259161 -16.7667765 10.03615148 -15.3125 10.75 C-14.59126953 11.09804688 -13.87003906 11.44609375 -13.12695312 11.8046875 C-3.13352273 16.73295455 -3.13352273 16.73295455 -1 21 C-0.625 24.3125 -0.625 24.3125 -1 28 C-3.3125 30.75 -3.3125 30.75 -6 33 C-6.44859375 33.52851562 -6.8971875 34.05703125 -7.359375 34.6015625 C-10.29951409 37.10768106 -13.39251895 36.635055 -17.11328125 36.56640625 C-25.88106809 35.28868857 -35.06640586 31.96679707 -43 28 C-41.74194623 23.49197399 -40.09592835 20.5087188 -37 17 C-36.38125 17.7425 -35.7625 18.485 -35.125 19.25 C-30.65261304 23.70968131 -24.17521317 26.23719469 -17.875 26.25 C-16.92625 26.1675 -15.9775 26.085 -15 26 C-15.52481019 24.01336975 -15.52481019 24.01336975 -17 22 C-20.14345928 20.56200078 -20.14345928 20.56200078 -23.8125 19.5 C-29.43687016 17.74571805 -33.93831162 16.08335592 -37.31640625 11.03125 C-38.57853603 7.28092151 -38.0461113 3.76184394 -37 0 C-27.69124723 -11.34504244 -11.00884133 -4.18845377 0 0 Z " fill="#FDFEFE" transform="translate(399,12)"/>
<path d="M0 0 C-0.33 3.63 -0.66 7.26 -1 11 C-6 12 -6 12 -9.8125 11.8125 C-14.4795123 11.73264618 -18.17651341 13.38744308 -22 16 C-22.33 16.66 -22.66 17.32 -23 18 C-22.3702124 17.95399658 -21.7404248 17.90799316 -21.09155273 17.8605957 C-18.20779194 17.66008069 -15.32300078 17.48610518 -12.4375 17.3125 C-11.44685547 17.23966797 -10.45621094 17.16683594 -9.43554688 17.09179688 C-3.39133913 16.75042966 0.69171256 16.99245127 6 20 C8.69246541 23.27778398 8.35892176 26.90829194 8 31 C6.1178235 35.39174516 3.17955544 38.70049549 -1 41 C-9.91446648 44.15062113 -18.56622586 45.53413461 -28 46 C-28 42.37 -28 38.74 -28 35 C-27.09378906 35.04640625 -26.18757812 35.0928125 -25.25390625 35.140625 C-17.76461857 35.36252982 -11.3707666 35.33148895 -5 31 C-4.67 30.34 -4.34 29.68 -4 29 C-4.76143311 29.0314209 -5.52286621 29.0628418 -6.30737305 29.09521484 C-9.76711149 29.22016083 -13.22637539 29.2980454 -16.6875 29.375 C-18.48477539 29.45041016 -18.48477539 29.45041016 -20.31835938 29.52734375 C-28.92316639 29.67115668 -28.92316639 29.67115668 -31.93896484 27.79150391 C-33.85610978 25.64601416 -34.88148109 23.52256064 -35.515625 20.7265625 C-34.6988636 14.26453851 -31.91261853 10.24132904 -27 6 C-22.80689761 3.188823 -17.72918436 3.26698543 -12.84375 2.7890625 C-8.29143044 2.29646076 -4.3878863 0 0 0 Z " fill="#FDFEFE" transform="translate(240,9)"/>
<path d="M0 0 C1.39456452 0.00667256 2.78911118 0.01863093 4.18359375 0.03515625 C4.89451172 0.03966797 5.60542969 0.04417969 6.33789062 0.04882812 C8.09899388 0.06064761 9.86005411 0.07858362 11.62109375 0.09765625 C11.74226563 0.79632812 11.8634375 1.495 11.98828125 2.21484375 C12.15585937 3.12492188 12.3234375 4.035 12.49609375 4.97265625 C12.73972656 6.33003906 12.73972656 6.33003906 12.98828125 7.71484375 C13.45154078 10.26271613 13.45154078 10.26271613 15.62109375 12.09765625 C18.44848406 8.17579227 19.64854375 5.96040626 20.62109375 1.09765625 C25.57109375 1.09765625 30.52109375 1.09765625 35.62109375 1.09765625 C36.6527721 4.19269129 36.59492756 5.33433165 36.18359375 8.47265625 C35.21592708 17.64067769 35.53775982 26.89118014 35.62109375 36.09765625 C31.4564063 36.13689948 27.67958552 36.08153304 23.62109375 35.09765625 C23.78609375 33.83953125 23.95109375 32.58140625 24.12109375 31.28515625 C24.73309956 25.87192178 24.69000424 20.54158486 24.62109375 15.09765625 C21.98109375 20.37765625 19.34109375 25.65765625 16.62109375 31.09765625 C15.30109375 31.09765625 13.98109375 31.09765625 12.62109375 31.09765625 C10.31109375 25.81765625 8.00109375 20.53765625 5.62109375 15.09765625 C3.99766314 21.59137871 4.5353905 27.58343675 5.62109375 34.09765625 C3.21563737 35.30038444 1.67112422 35.19837097 -1.00390625 35.16015625 C-2.22980469 35.14662109 -2.22980469 35.14662109 -3.48046875 35.1328125 C-4.10695313 35.12121094 -4.7334375 35.10960937 -5.37890625 35.09765625 C-5.34861328 34.31640381 -5.31832031 33.53515137 -5.28710938 32.73022461 C-5.14965961 29.16525357 -5.01426478 25.60020728 -4.87890625 22.03515625 C-4.83121094 20.80603516 -4.78351563 19.57691406 -4.734375 18.31054688 C-4.44620235 11.05177914 -4.44620235 11.05177914 -4.41015625 3.7890625 C-4.36361958 -0.21890806 -4.10032111 0.11850639 0 0 Z " fill="#FDFEFE" transform="translate(286.37890625,556.90234375)"/>
<path d="M0 0 C2.82398199 0.36156944 3.87991153 0.87518755 5.88671875 2.9609375 C6.48097656 3.75757813 7.07523438 4.55421875 7.6875 5.375 C8.28949219 6.16648437 8.89148438 6.95796875 9.51171875 7.7734375 C11 10 11 10 12 13 C11.34 13.66 10.68 14.32 10 15 C9.5342637 17.55867474 9.16515752 20.04687908 8.875 22.625 C8.78863281 23.33140625 8.70226562 24.0378125 8.61328125 24.765625 C8.40118817 26.50950141 8.19959009 28.2546484 8 30 C9.31886772 28.90344712 10.62990057 27.79746577 11.9375 26.6875 C12.66839844 26.07261719 13.39929688 25.45773437 14.15234375 24.82421875 C16.23820366 23.04024481 16.23820366 23.04024481 17 20 C20.63515926 21.00976646 21.95669389 21.94643718 24.375 24.9375 C24.91125 25.948125 25.4475 26.95875 26 28 C25 31 25 31 21.75 32.875 C21.16734375 33.16117187 20.5846875 33.44734375 19.984375 33.7421875 C17.25712772 35.47087574 15.25186248 37.68861692 13 40 C10.91832831 41.96220416 8.80316538 43.88706456 6.6875 45.8125 C6.13771484 46.31458984 5.58792969 46.81667969 5.02148438 47.33398438 C3.68194761 48.55703968 2.34111008 49.77867008 1 51 C-2.76624721 49.28452508 -4.3227669 47.88411875 -6 44 C-5.73578922 41.98970058 -5.39031691 39.98966425 -5 38 C-4.63695492 35.66803157 -4.28308516 33.33461975 -3.9375 31 C-3.76089844 29.824375 -3.58429688 28.64875 -3.40234375 27.4375 C-3.02937352 24.25095826 -2.92673772 21.20400377 -3 18 C-8.59967378 22.79502751 -8.59967378 22.79502751 -13.875 27.9375 C-16 30 -16 30 -18 30 C-22 25.52941176 -22 25.52941176 -22 23 C-22.99 23 -23.98 23 -25 23 C-25 22.34 -25 21.68 -25 21 C-23.55859375 19.94921875 -23.55859375 19.94921875 -21.4375 18.6875 C-16.60684266 15.58815025 -12.32477513 12.0043846 -8 8.25 C-7.3289624 7.67080811 -6.6579248 7.09161621 -5.96655273 6.49487305 C-2.50952932 3.628251 -2.50952932 3.628251 0 0 Z " fill="#FDFEFE" transform="translate(110,455)"/>
<path d="M0 0 C0.33 0.66 0.66 1.32 1 2 C1.8971875 2.11859375 2.794375 2.2371875 3.71875 2.359375 C7.70601053 3.13784015 9.45084818 4.60389698 12.5 7.25 C13.45003906 8.06082031 14.40007813 8.87164062 15.37890625 9.70703125 C16.24386719 10.46371094 17.10882812 11.22039062 18 12 C22.63748975 16.03948449 22.63748975 16.03948449 28 19 C27.69121904 22.60244452 27.00552268 23.99345998 24.625 26.8125 C22 29 22 29 19 29 C19 28.34 19 27.68 19 27 C15.89525766 27.30694459 12.79133414 27.621514 9.6875 27.9375 C8.80642578 28.02451172 7.92535156 28.11152344 7.01757812 28.20117188 C6.17001953 28.28818359 5.32246094 28.37519531 4.44921875 28.46484375 C3.27879028 28.58267212 3.27879028 28.58267212 2.0847168 28.70288086 C-0.18882001 28.96337997 -0.18882001 28.96337997 -3 30 C-1.576875 31.2065625 -1.576875 31.2065625 -0.125 32.4375 C0.67550781 33.11619141 0.67550781 33.11619141 1.4921875 33.80859375 C3.00594079 35.0878152 3.00594079 35.0878152 5 36 C5 36.66 5 37.32 5 38 C6.98 38.66 8.96 39.32 11 40 C10.42647107 43.87132028 8.51295648 46.08172796 6 49 C2.0679242 48.88084619 0.3023451 47.53529742 -2.3125 44.8125 C-2.90546875 44.18214844 -3.4984375 43.55179687 -4.109375 42.90234375 C-5.98902887 41.01103914 -7.91565128 39.45236022 -10.0625 37.875 C-10.7225 37.38644531 -11.3825 36.89789063 -12.0625 36.39453125 C-13.31598664 35.49232413 -14.58626668 34.61281972 -15.875 33.76171875 C-17.5625 32.5625 -17.5625 32.5625 -20 30 C-20.35714999 25.17847519 -18.95371335 22.62580694 -15.9375 19.0625 C-14.97194223 18.02878522 -13.99716291 17.00326177 -13 16 C-12.44183594 16.16242188 -11.88367188 16.32484375 -11.30859375 16.4921875 C-5.75499724 17.71379079 0.51693163 17.46215157 6 16 C0.75249569 12.0873738 0.75249569 12.0873738 -5 9 C-4.5206753 4.68607774 -3.2542015 2.83430453 0 0 Z " fill="#FDFEFE" transform="translate(514,453)"/>
<path d="M0 0 C0.04898438 0.69867187 0.09796875 1.39734375 0.1484375 2.1171875 C0.22320312 3.02726563 0.29796875 3.93734375 0.375 4.875 C0.47941406 6.23238281 0.47941406 6.23238281 0.5859375 7.6171875 C0.79568132 10.17941903 0.79568132 10.17941903 3 12 C3.72637057 14.1053397 4.38435218 16.23466189 5 18.375 C6.0864785 22.13523418 7.23479733 25.51708891 9 29 C8.9375 31.125 8.9375 31.125 8 33 C4.69647504 34.83529164 1.73859281 35.65425374 -2 35 C-3.66666667 33.33333333 -5.33333333 31.66666667 -7 30 C-9.16406735 28.85171936 -11.35079498 27.91005426 -13.62109375 26.9921875 C-16.48708827 25.7968466 -19.23380298 24.40896942 -22 23 C-21.6390625 24.03640625 -21.278125 25.0728125 -20.90625 26.140625 C-20.4371807 27.51030736 -19.96844834 28.88010514 -19.5 30.25 C-19.26152344 30.93191406 -19.02304687 31.61382813 -18.77734375 32.31640625 C-17.60578713 35.76413003 -17 38.31702904 -17 42 C-20.50776784 43.60355101 -23.14354879 44.22036864 -27 44 C-27.10957031 43.443125 -27.21914063 42.88625 -27.33203125 42.3125 C-28.16735885 38.29206148 -29.1078857 34.54687107 -30.6875 30.75 C-31.99069503 27.02658564 -32.10782052 25.65580771 -31 22 C-31.9592387 21.0407613 -32.97907825 20.14330653 -34 19.25 C-36.21490149 16.75823583 -36.63757989 15.26178098 -37 12 C-35.68 11.67 -34.36 11.34 -33 11 C-32.67 11.66 -32.34 12.32 -32 13 C-31.773125 12.38125 -31.54625 11.7625 -31.3125 11.125 C-29.57851288 8.31759229 -28.15429646 7.82612526 -25 7 C-22.6875 7.375 -22.6875 7.375 -21 8 C-21 8.66 -21 9.32 -21 10 C-18.66785852 11.20628008 -16.50357861 12.1654738 -14 13 C-14 13.66 -14 14.32 -14 15 C-13.195625 15.144375 -12.39125 15.28875 -11.5625 15.4375 C-9 16 -9 16 -8 17 C-8.69660502 12.00766401 -9.34737778 7.65262222 -13 4 C-8.78654111 1.14971899 -5.09630931 0 0 0 Z " fill="#FCFEFE" transform="translate(414,538)"/>
<path d="M0 0 C4.00695297 1.36649195 6.6767174 3.17103527 9.8125 6 C10.60269531 6.70125 11.39289063 7.4025 12.20703125 8.125 C14 10 14 10 14 12 C13.34 12 12.68 12 12 12 C12 17.61 12 23.22 12 29 C12.66 29 13.32 29 14 29 C14.226875 28.484375 14.45375 27.96875 14.6875 27.4375 C16.4975553 24.07596873 18.73996404 21.07088856 21 18 C25.82034262 18.41317222 27.90992611 20.38019915 31 24 C31 24.66 31 25.32 31 26 C30.27941406 26.38929688 29.55882812 26.77859375 28.81640625 27.1796875 C24.55569573 29.93348931 22.39540947 33.88790155 19.66210938 38.08203125 C16.4306225 42.86162579 16.4306225 42.86162579 13.84985352 43.69091797 C12.93417603 43.84391357 12.93417603 43.84391357 12 44 C11.67 45.98 11.34 47.96 11 50 C7.71693434 49.63521493 5.35146317 48.28803026 3.05395508 45.91918945 C0.58302695 41.41977643 1.51354415 35.66263719 1.6875 30.6875 C1.71005859 29.46998047 1.73261719 28.25246094 1.75585938 26.99804688 C1.8146947 23.99744518 1.8968586 20.99935203 2 18 C0.35 18.33 -1.3 18.66 -3 19 C-3.12375 19.78375 -3.2475 20.5675 -3.375 21.375 C-4 24 -4 24 -6 26 C-6.99 26 -7.98 26 -9 26 C-9.2165625 27.1446875 -9.2165625 27.1446875 -9.4375 28.3125 C-10 31 -10 31 -11 34 C-12.9375 33.1875 -12.9375 33.1875 -15 32 C-15.33 31.01 -15.66 30.02 -16 29 C-18.00016466 27.79117904 -18.00016466 27.79117904 -20 27 C-20 26.34 -20 25.68 -20 25 C-18.865625 24.4225 -17.73125 23.845 -16.5625 23.25 C-13.67405572 21.68207702 -13.67405572 21.68207702 -12.125 18.875 C-12.08375 18.25625 -12.0425 17.6375 -12 17 C-11.67 16.34 -11.34 15.68 -11 15 C-10.01 15 -9.02 15 -8 15 C-7.9175 14.278125 -7.835 13.55625 -7.75 12.8125 C-6.84092732 9.40347744 -5.272193 7.67316824 -3 5 C-1.9731657 3.3497306 -0.96432076 1.68756133 0 0 Z M10 39 C9.67 39.66 9.34 40.32 9 41 C9.66 41 10.32 41 11 41 C10.67 40.34 10.34 39.68 10 39 Z M11 41 C12 43 12 43 12 43 Z " fill="#FDFEFE" transform="translate(142,491)"/>
<path d="M0 0 C2.99033088 2.34025895 3.29306574 2.75839444 3.875 6.25 C5.84172915 7.4000831 5.84172915 7.4000831 7.875 8.25 C9.72246521 11.94493043 9.2169438 16.20884604 8.875 20.25 C6.62062359 26.65717507 2.57123362 29.5321908 -3.3125 32.5 C-8.99854057 34.88020303 -14.47328099 35.42533813 -20.39453125 33.51953125 C-25.67251617 31.1204472 -28.52111564 27.99951604 -31.4375 23 C-32.67194322 18.06222714 -31.96031012 13.31370735 -30.0625 8.625 C-22.66845003 -0.43867415 -11.46469117 -6.04028151 0 0 Z M-19.125 10.25 C-20.72635272 13.45270544 -20.61361584 16.77463384 -20.125 20.25 C-18.07631497 23.32302755 -16.71615184 24.07391222 -13.1875 25.125 C-9.08534986 25.2924347 -6.69637673 24.27952268 -3.3125 22.0625 C-1.40527112 19.15146645 -1.8281143 16.63449696 -2.125 13.25 C-3.14236771 10.48857335 -3.48670741 9.56914629 -6.125 8.25 C-8.20064676 8.05241769 -8.20064676 8.05241769 -10.5 8.0625 C-11.27085937 8.04832031 -12.04171875 8.03414062 -12.8359375 8.01953125 C-15.3827759 8.27595355 -16.96451509 8.89374846 -19.125 10.25 Z " fill="#FDFEFD" transform="translate(364.125,555.75)"/>
<path d="M0 0 C7.15137705 2.43294271 11.3070913 13.90708525 14.58984375 20.46484375 C16.12601296 23.60366786 17.54771875 26.58846875 18.65234375 29.90234375 C13.02734375 32.90234375 13.02734375 32.90234375 9.65234375 32.90234375 C9.50539062 32.35707031 9.3584375 31.81179688 9.20703125 31.25 C7.41291164 25.21804613 4.92769764 19.61191327 0.65234375 14.90234375 C-0.33765625 14.90234375 -1.32765625 14.90234375 -2.34765625 14.90234375 C-0.98376939 18.99400433 1.05875735 21.93230097 3.7265625 25.25390625 C4.03207031 25.79789062 4.33757812 26.341875 4.65234375 26.90234375 C3.65234375 29.90234375 3.65234375 29.90234375 1.83984375 31.08984375 C-0.34765625 31.90234375 -0.34765625 31.90234375 -4.34765625 31.90234375 C-5.18556414 30.1128119 -6.01785021 28.3206468 -6.84765625 26.52734375 C-7.31171875 25.52960938 -7.77578125 24.531875 -8.25390625 23.50390625 C-9.34765625 20.90234375 -9.34765625 20.90234375 -9.34765625 18.90234375 C-11.82265625 20.38734375 -11.82265625 20.38734375 -14.34765625 21.90234375 C-12.38990439 26.74520362 -10.11850702 31.25128773 -7.53125 35.7890625 C-6.40534058 37.79934962 -5.36107701 39.83347095 -4.34765625 41.90234375 C-8.97265625 45.90234375 -8.97265625 45.90234375 -12.34765625 45.90234375 C-12.91613281 44.814375 -13.48460938 43.72640625 -14.0703125 42.60546875 C-14.84959739 41.12074556 -15.62959528 39.63639646 -16.41015625 38.15234375 C-16.81484131 37.3826123 -17.21952637 36.61288086 -17.63647461 35.81982422 C-20.62680716 30.17056952 -23.78695873 24.67010072 -27.1328125 19.22265625 C-28.34765625 16.90234375 -28.34765625 16.90234375 -28.34765625 13.90234375 C-27.70699219 13.74378906 -27.06632812 13.58523438 -26.40625 13.421875 C-21.18209552 12.01267685 -17.19368112 10.44732561 -12.94140625 7.09765625 C-10.59897881 5.34083567 -7.9603507 4.20869098 -5.34765625 2.90234375 C-4.83203125 2.32484375 -4.31640625 1.74734375 -3.78515625 1.15234375 C-2.34765625 -0.09765625 -2.34765625 -0.09765625 0 0 Z " fill="#FCFEFE" transform="translate(88.34765625,418.09765625)"/>
<path d="M0 0 C0.70471436 0.0014502 1.40942871 0.00290039 2.13549805 0.00439453 C9.45241113 0.29418966 14.66422729 3.40986893 20.5 7.6875 C21.49 8.3475 22.48 9.0075 23.5 9.6875 C22.00902342 13.4827131 19.74299151 15.29792731 16.5 17.6875 C15.943125 16.90375 15.38625 16.12 14.8125 15.3125 C10.76711763 10.72044433 6.41387621 10.38325014 0.5 9.6875 C2.78045073 13.10817609 4.82860139 15.03074431 8.5 16.75 C14.4898078 19.5884537 14.4898078 19.5884537 16.5 22.6875 C17.42327072 27.365405 17.12657853 30.62879834 14.6875 34.75 C9.92854643 37.64269727 5.92945241 37.46110825 0.5 36.6875 C-5.52142784 35.15293172 -10.39390472 33.52716682 -14.5 28.6875 C-14.5 28.0275 -14.5 27.3675 -14.5 26.6875 C-16.15 26.3575 -17.8 26.0275 -19.5 25.6875 C-18.42598892 22.77232708 -17.72189824 20.90939824 -15.5 18.6875 C-14.18 18.6875 -12.86 18.6875 -11.5 18.6875 C-10.901875 19.450625 -10.30375 20.21375 -9.6875 21 C-5.77869315 25.80224841 -0.46279442 26.96032995 5.5 27.6875 C3.22785832 24.27928748 1.24546362 22.4000234 -2.4375 20.75 C-6.80052678 18.70304725 -8.9509372 16.82972705 -11.5 12.6875 C-12.16064158 9.65907222 -11.96206134 7.87058926 -11.5 4.6875 C-8.39495737 0.32805112 -5.06196413 -0.04902339 0 0 Z " fill="#FCFEFE" transform="translate(206.5,535.3125)"/>
<path d="M0 0 C3 1 3 1 4.1875 2.9375 C5.32196046 7.21354325 5.87402772 11.6298614 5 16 C1.84415584 19 1.84415584 19 -1 19 C-1.144375 19.61875 -1.28875 20.2375 -1.4375 20.875 C-2 23 -2 23 -3 25 C0.3 26.32 3.6 27.64 7 29 C7.33 28.34 7.66 27.68 8 27 C10.62875405 32.37180176 11.6083965 37.04492601 12 43 C10 44 10 44 8.09570312 43.39501953 C7.33193359 43.06099121 6.56816406 42.72696289 5.78125 42.3828125 C4.50507812 41.84333984 4.50507812 41.84333984 3.203125 41.29296875 C1.43021342 40.52692747 -0.34070305 39.75624851 -2.109375 38.98046875 C-7.97162608 36.51446193 -13.57286168 34.80113241 -20 35 C-23.36878771 36.30719263 -23.36878771 36.30719263 -26 38 C-26.99 38 -27.98 38 -29 38 C-29.50471197 36.23050388 -30.00360685 34.45934777 -30.5 32.6875 C-30.7784375 31.70136719 -31.056875 30.71523437 -31.34375 29.69921875 C-32 27 -32 27 -32 24 C-30.89591797 23.85304687 -30.89591797 23.85304687 -29.76953125 23.703125 C-20.90200742 22.34429704 -17.14683958 19.49730617 -11.54296875 12.7265625 C-10.08044018 11.09001154 -8.60112769 9.7853579 -6.875 8.4375 C-3.7602532 5.79673641 -2.09308384 3.46163866 0 0 Z " fill="#FDFEFE" transform="translate(610,218)"/>
<path d="M0 0 C3.52581048 0.57526381 6.24141978 1.48876967 9.375 3.1875 C14.4827352 5.83795866 19.72494639 7.95984984 25.08544922 10.03198242 C29.90591518 11.90591518 29.90591518 11.90591518 31 13 C33.32817964 13.36760731 35.6618385 13.70241581 38 14 C37.50269348 18.97306516 36.44697666 22.63799813 34 27 C33.34 27 32.68 27 32 27 C31.34 26.01 30.68 25.02 30 24 C27.59027402 22.98675674 27.59027402 22.98675674 24.875 22.3125 C23.96492188 22.06113281 23.05484375 21.80976562 22.1171875 21.55078125 C21.41851562 21.36902344 20.71984375 21.18726562 20 21 C19.6596875 22.918125 19.6596875 22.918125 19.3125 24.875 C18.28821195 29.56167048 16.41048953 33.40608172 14.17578125 37.625 C12.65350713 40.69989257 11.79609423 43.67087866 11 47 C9.58194169 46.71517632 8.16559621 46.42181856 6.75 46.125 C5.96109375 45.96257813 5.1721875 45.80015625 4.359375 45.6328125 C2.03168856 45.00849925 0.10968048 44.15161458 -2 43 C-2 42.01 -2 41.02 -2 40 C-1.34 40 -0.68 40 0 40 C0.17208984 38.96166016 0.17208984 38.96166016 0.34765625 37.90234375 C1.08344438 34.62874745 2.19985639 31.68048049 3.4375 28.5625 C5.08125025 24.40651056 6.6212169 20.2517823 8 16 C4.34666857 13.36620292 1.51478398 11.53115106 -3 11 C-2.53199289 6.94393835 -2.12046792 3.53411321 0 0 Z " fill="#FCFEFE" transform="translate(413,15)"/>
<path d="M0 0 C3.87970622 0.47026742 6.65559151 1.79931094 9.9609375 3.8671875 C12.26254473 5.14585818 14.64375952 6.15588225 17.06933594 7.17480469 C20.39654349 8.59690402 23.66321203 10.14835973 26.9375 11.6875 C27.62134766 12.00783203 28.30519531 12.32816406 29.00976562 12.65820312 C30.67365316 13.43778679 32.33689538 14.21874751 34 15 C33.20377399 18.79003581 32.11570612 20.57667302 29 23 C26.2163181 23.35688229 24.11364739 23.02435301 21.375 22.4375 C18.86351334 21.77723945 18.86351334 21.77723945 16 23 C15.67 23.99 15.34 24.98 15 26 C13.12382302 27.84499398 11.07262391 29.3683599 9 31 C9.350625 31.5775 9.70125 32.155 10.0625 32.75 C11 35 11 35 11 37 C9.44095148 40.11809704 6.96380281 41.3063984 4 43 C3.34 43 2.68 43 2 43 C-0.26354366 37.39503474 -1.8360341 31.83717856 -3.2421875 25.9609375 C-3.92085433 23.30923927 -4.71787504 20.76796226 -5.625 18.1875 C-6.92800445 14.44903697 -7.58153922 10.93353137 -8 7 C-7.05125 6.401875 -6.1025 5.80375 -5.125 5.1875 C-1.86035803 3.18437474 -1.86035803 3.18437474 0 0 Z M3 12 C3.28241641 13.46015291 3.57626614 14.91809793 3.875 16.375 C4.11863281 17.59316406 4.11863281 17.59316406 4.3671875 18.8359375 C4.86658932 21.18673923 4.86658932 21.18673923 7 23 C9.97 20.525 9.97 20.525 13 18 C9.98112756 14.51668565 7.43090471 13.20842856 3 12 Z " fill="#FDFEFE" transform="translate(473,497)"/>
<path d="M0 0 C4.42769017 1.47589672 8.6336865 3.73069841 12 7 C12 7.99 12 8.98 12 10 C11.01 10 10.02 10 9 10 C8.90203125 10.74636719 8.8040625 11.49273437 8.703125 12.26171875 C7.91096976 15.34672332 6.94243424 16.54857334 4.75 18.8125 C1.25736133 22.59319134 -1.43251167 26.55126446 -4 31 C1.18768934 36.52237898 7.07121382 41.81055874 14 45 C13.73334769 48.91090062 13.40818918 50.581069 10.625 53.4375 C9.325625 54.2109375 9.325625 54.2109375 8 55 C4.55288522 53.85096174 3.52388343 52.56847501 1 50 C-1.10748975 48.3009385 -3.22132616 46.6375861 -5.375 45 C-6.20257813 44.36191406 -6.20257813 44.36191406 -7.046875 43.7109375 C-9.73762525 41.65181877 -12.4415178 39.70635898 -15.265625 37.828125 C-17.85853163 36.09458171 -19.88382234 34.27896056 -22 32 C-21 29 -21 29 -18.6484375 27.140625 C-15.8354404 24.86699313 -14.44250784 22.85306216 -12.625 19.75 C-10.38616585 16.07086554 -8.11473478 12.84599241 -5.1875 9.6875 C-2.39590171 6.65179334 -0.92252695 4.10011978 0 0 Z " fill="#FDFEFE" transform="translate(487,53)"/>
<path d="M0 0 C2.01822917 0.26041667 4.03645833 0.52083333 6.0546875 0.78125 C8.00498344 1.0372485 8.00498344 1.0372485 10 1 C12.03439731 1.1380497 14.06816214 1.28547007 16.1015625 1.4375 C17.91914062 1.57285156 17.91914062 1.57285156 19.7734375 1.7109375 C21.04445313 1.80632812 22.31546875 1.90171875 23.625 2 C24.90375 2.09539062 26.1825 2.19078125 27.5 2.2890625 C30.66671635 2.52538462 33.83337985 2.7623929 37 3 C36.37432896 7.38577176 35.49790735 10.30744131 33 14 C30.69 13.67 28.38 13.34 26 13 C24.9615789 14.71866217 23.94485365 16.45044598 22.9375 18.1875 C22.36902344 19.15042969 21.80054688 20.11335938 21.21484375 21.10546875 C19.85677204 24.3412602 19.80069745 25.73812882 21 29 C21.66 29.33 22.32 29.66 23 30 C22.43454163 33.95820859 21.19097652 36.6659053 19 40 C15.72099681 38.60908229 14.02291166 37.10777983 11.90625 34.26171875 C11.35066406 33.52373047 10.79507813 32.78574219 10.22265625 32.02539062 C9.65417969 31.25388672 9.08570313 30.48238281 8.5 29.6875 C7.36497842 28.17027728 6.22957112 26.65334301 5.09375 25.13671875 C4.55878906 24.4204834 4.02382813 23.70424805 3.47265625 22.96630859 C-0.23913 17.94667004 -0.23913 17.94667004 -5 14 C-5.97680178 9.1159911 -3.49109494 6.00084946 -1 2 C-0.67 1.34 -0.34 0.68 0 0 Z M7 11 C6.67 11.66 6.34 12.32 6 13 C6.763125 13.598125 7.52625 14.19625 8.3125 14.8125 C10.3483575 16.46959332 12.1978279 18.10297674 14 20 C16.91171789 16.33019796 16.91171789 16.33019796 18 12 C14.37 11.67 10.74 11.34 7 11 Z " fill="#FDFEFE" transform="translate(532,421)"/>
<path d="M0 0 C2.5284958 1.1735847 3.42453507 2.53887759 4.9609375 4.84765625 C7.05954561 7.98986568 8.56806833 9.31390481 11.9609375 10.91015625 C13.89104984 12.77931768 15.33636191 14.74405547 16.9609375 16.91015625 C16.9609375 17.57015625 16.9609375 18.23015625 16.9609375 18.91015625 C17.6209375 18.91015625 18.2809375 18.91015625 18.9609375 18.91015625 C18.9609375 19.57015625 18.9609375 20.23015625 18.9609375 20.91015625 C22.2291721 17.76296737 25.0920034 14.41663126 27.9609375 10.91015625 C29.2809375 11.24015625 30.6009375 11.57015625 31.9609375 11.91015625 C31.7134375 11.20890625 31.4659375 10.50765625 31.2109375 9.78515625 C30.86134498 5.76484223 32.56911563 4.02677263 34.9609375 0.91015625 C39.21815048 1.38317991 41.29039832 3.72034556 43.9609375 6.91015625 C43.9609375 8.23015625 43.9609375 9.55015625 43.9609375 10.91015625 C42.203125 12.55078125 42.203125 12.55078125 39.8359375 14.16015625 C35.89974739 17.04464557 33.21829343 19.88325572 30.42578125 23.8515625 C22.86337652 34.47926194 22.86337652 34.47926194 16.9609375 35.91015625 C16.9609375 34.59015625 16.9609375 33.27015625 16.9609375 31.91015625 C16.4040625 31.82765625 15.8471875 31.74515625 15.2734375 31.66015625 C11.31092511 30.3750171 8.69747278 27.88343501 6.2109375 24.59765625 C3.48777064 21.34498472 0.39221787 19.06069765 -3.015625 16.55859375 C-5.0390625 14.91015625 -5.0390625 14.91015625 -7.0390625 11.91015625 C-9.09831389 11.18633158 -9.09831389 11.18633158 -11.0390625 10.91015625 C-9.82432628 6.32115276 -7.30881254 4.00601202 -3.890625 0.94921875 C-2.0390625 -0.08984375 -2.0390625 -0.08984375 0 0 Z " fill="#FDFEFE" transform="translate(83.0390625,102.08984375)"/>
<path d="M0 0 C1.125 2.0625 1.125 2.0625 2 4 C2.66 4.33 3.32 4.66 4 5 C4 5.99 4 6.98 4 8 C3.05125 8.061875 2.1025 8.12375 1.125 8.1875 C0.09375 8.455625 -0.9375 8.72375 -2 9 C-3.13545562 11.29534258 -3.13545562 11.29534258 -4 14 C-7.63763541 18.05336517 -11.83288896 21.50539103 -16 25 C-9.25163975 34.83176929 -9.25163975 34.83176929 0 42 C-0.29539188 45.54470259 -0.77626519 46.78215295 -3.375 49.3125 C-6 51 -6 51 -9 51 C-10.37535339 49.02866014 -11.70211044 47.02318078 -13 45 C-14.63753572 43.30470288 -16.30979641 41.64279255 -18 40 C-20.23329975 37.79583322 -22.45990783 35.58493289 -24.6875 33.375 C-25.55858398 32.51648438 -25.55858398 32.51648438 -26.44726562 31.640625 C-27.28354492 30.80917969 -27.28354492 30.80917969 -28.13671875 29.9609375 C-28.63905029 29.46384277 -29.14138184 28.96674805 -29.65893555 28.45458984 C-32.00845007 25.90618141 -33 24.51068645 -33 21 C-32.071875 20.5875 -31.14375 20.175 -30.1875 19.75 C-27.04943076 18.02713845 -25.98851034 16.84072906 -24 14 C-23.01 13.67 -22.02 13.34 -21 13 C-21 12.34 -21 11.68 -21 11 C-19.42578125 9.44921875 -19.42578125 9.44921875 -17.3125 7.6875 C-14.80756312 5.57133639 -12.52327402 3.50160465 -10.25 1.125 C-6.65755784 -2.26786204 -4.15632907 -2.90943035 0 0 Z " fill="#FDFEFE" transform="translate(533,89)"/>
<path d="M0 0 C0.9375 1.875 0.9375 1.875 1 4 C-0.3125 6.25 -0.3125 6.25 -2 8 C-2.66 8 -3.32 8 -4 8 C-4.103125 8.53625 -4.20625 9.0725 -4.3125 9.625 C-5.47848678 13.65295432 -7.23382472 17.05505049 -9.875 20.3125 C-12.28674599 23.36264934 -13.92889447 26.5395007 -15.65625 30.01171875 C-17.19578582 32.28969471 -18.47503496 32.99964309 -21 34 C-21.495 31.525 -21.495 31.525 -22 29 C-22.7425 28.896875 -23.485 28.79375 -24.25 28.6875 C-27.23008479 27.9424788 -28.60879792 26.86812663 -31 25 C-31.77601562 24.70867187 -32.55203125 24.41734375 -33.3515625 24.1171875 C-36.16515497 22.93033286 -38.0436279 21.5193376 -40.375 19.5625 C-44.12514411 16.54730876 -47.48830414 14.63188999 -52 13 C-50.58832253 7.73829306 -48.25149768 4.27828642 -45 0 C-42.10688328 1.32311027 -39.91418867 2.80305739 -37.5625 4.9375 C-34.84494978 7.32547498 -32.15987729 9.21750512 -29 11 C-27.96875 11.721875 -26.9375 12.44375 -25.875 13.1875 C-23.14347787 15.26665046 -23.14347787 15.26665046 -20 15 C-17.73233504 12.99023204 -17.73233504 12.99023204 -15.5 10.375 C-14.7265625 9.51648438 -13.953125 8.65796875 -13.15625 7.7734375 C-10.98016792 4.97449135 -9.55800908 2.17052577 -8 -1 C-4.85209853 -2.62472334 -2.81730798 -2.04011957 0 0 Z " fill="#FCFEFE" transform="translate(95,141)"/>
<path d="M0 0 C1.5 1.375 1.5 1.375 3 3 C3 3.66 3 4.32 3 5 C3.99 5.33 4.98 5.66 6 6 C6 7.32 6 8.64 6 10 C2.04 11.98 2.04 11.98 -2 14 C-1.63245518 20.9833515 2.51235237 26.78678848 6.6875 32.1796875 C8 34 8 34 8.125 36 C6.33720042 39.17831037 3.31970171 40.63732768 0 42 C-0.99 42 -1.98 42 -3 42 C-6.33333333 35.33333333 -9.66666667 28.66666667 -13 22 C-15.95969382 22.41106859 -17.72304065 22.78820755 -20.125 24.625 C-21.053125 25.305625 -21.053125 25.305625 -22 26 C-22.99 25.67 -23.98 25.34 -25 25 C-24.67 24.34 -24.34 23.68 -24 23 C-25.32 23 -26.64 23 -28 23 C-28.33 21.02 -28.66 19.04 -29 17 C-25.02864583 15.01432292 -21.05729167 13.02864583 -17.0859375 11.04296875 C-16.39097168 10.69387451 -15.69600586 10.34478027 -14.97998047 9.98510742 C-13.23544664 9.11714269 -11.47799893 8.27523759 -9.71875 7.4375 C-7.18363016 6.09709181 -5.24762567 4.7228631 -3.125 2.8125 C-2.52945312 2.28269531 -1.93390625 1.75289062 -1.3203125 1.20703125 C-0.88460938 0.80871094 -0.44890625 0.41039062 0 0 Z " fill="#FDFEFE" transform="translate(448,516)"/>
<path d="M0 0 C0.24621094 0.55558594 0.49242188 1.11117187 0.74609375 1.68359375 C2.24004406 4.44344588 4.05058408 6.65316859 6.0625 9.0625 C6.85785156 10.02414063 7.65320313 10.98578125 8.47265625 11.9765625 C10.1618446 13.99732259 11.85720369 16.01293993 13.55859375 18.0234375 C14.36425781 18.98507813 15.16992188 19.94671875 16 20.9375 C16.7425 21.81277344 17.485 22.68804687 18.25 23.58984375 C19.88758385 25.84517687 20.59599463 27.27927636 21 30 C21.99 30 22.98 30 24 30 C22.40768051 34.29926263 19.60686641 36.35005733 16 39 C15.01 39 14.02 39 13 39 C13 38.01 13 37.02 13 36 C11.515 35.505 11.515 35.505 10 35 C10 34.34 10 33.68 10 33 C9.4328125 32.79117188 8.865625 32.58234375 8.28125 32.3671875 C5.15429906 30.49315868 3.61134484 28.08232891 1.5 25.125 C-0.64750854 22.13172611 -2.66170946 19.33481495 -5.28125 16.7421875 C-7 15 -7 15 -7 13 C-9.475 12.01 -9.475 12.01 -12 11 C-10.17574465 6.07451056 -6.1068348 3.16430344 -1.625 0.6875 C-0.820625 0.3471875 -0.820625 0.3471875 0 0 Z " fill="#FDFEFE" transform="translate(120,66)"/>
<path d="M0 0 C4.27878027 2.03751441 8.11282869 4.31600076 12 7 C10.59836068 10.01318597 8.92637935 12.53095903 6.9375 15.1875 C3.5820607 19.90630727 0.81950799 24.82469136 -1.875 29.9375 C-2.26824463 30.68346436 -2.66148926 31.42942871 -3.06665039 32.19799805 C-4.58875716 35.12702694 -5.95336611 37.86009832 -7 41 C-11.09792005 40.34433279 -14.66609682 38.41015167 -18 36 C-19.4375 33.75 -19.4375 33.75 -20 32 C-19.34 32 -18.68 32 -18 32 C-17.77441406 31.34386719 -17.54882812 30.68773438 -17.31640625 30.01171875 C-15.57083173 26.01813431 -13.28254088 22.4776629 -10.9375 18.8125 C-10.02924044 17.38195935 -9.12165606 15.95098974 -8.21484375 14.51953125 C-7.81386475 13.89151611 -7.41288574 13.26350098 -6.99975586 12.61645508 C-5.94563325 10.96637627 -5.94563325 10.96637627 -5 9 C-4.34 9 -3.68 9 -3 9 C-3.061875 8.2575 -3.12375 7.515 -3.1875 6.75 C-2.96905704 3.54616994 -2.09749995 2.35968744 0 0 Z " fill="#FCFEFE" transform="translate(463,38)"/>
<path d="M0 0 C1.91635217 -0.05423638 3.83314925 -0.09289963 5.75 -0.125 C7.35101563 -0.15980469 7.35101563 -0.15980469 8.984375 -0.1953125 C11.92470106 -0.00487687 13.52361878 0.47329896 16 2 C15.79503906 3.15113281 15.59007812 4.30226563 15.37890625 5.48828125 C13.4048407 17.00224111 12.37903738 28.3282626 12 40 C7.38 40 2.76 40 -2 40 C-2 36 -2 36 -1 33 C-0.55990486 28.71576645 -0.29621927 24.41835578 -0.01513672 20.12109375 C0.12452156 18.00724161 0.27477753 15.89431829 0.42578125 13.78125 C0.51627079 12.43754333 0.6061356 11.09379442 0.6953125 9.75 C0.77797363 8.52796875 0.86063477 7.3059375 0.94580078 6.046875 C1.16998368 2.95486654 1.16998368 2.95486654 0 0 Z " fill="#FDFEFE" transform="translate(335,1)"/>
<path d="M0 0 C0.99 0 1.98 0 3 0 C3.680625 0.7425 4.36125 1.485 5.0625 2.25 C8.03741095 5.46072706 11.52985829 6.59129118 15.59765625 8.0078125 C18.09728211 9.0401783 19.87930123 10.3416758 22 12 C23.64797236 12.71162443 25.31165408 13.39031953 27 14 C27 14.66 27 15.32 27 16 C29.64 16.33 32.28 16.66 35 17 C34.57202798 22.70629354 32.15654048 26.41078616 29 31 C28.45730469 30.57847656 27.91460937 30.15695313 27.35546875 29.72265625 C26.64003906 29.17480469 25.92460938 28.62695312 25.1875 28.0625 C24.47980469 27.51722656 23.77210937 26.97195312 23.04296875 26.41015625 C20.95874948 24.83143752 20.95874948 24.83143752 18 24 C18 23.34 18 22.68 18 22 C16.88625 21.87625 15.7725 21.7525 14.625 21.625 C11 21 11 21 9 19 C4.40964096 16.83983104 -0.10164532 15.29956349 -5 14 C-4.60025786 8.20373893 -3.89748407 4.58527537 0 0 Z " fill="#FDFEFE" transform="translate(35,167)"/>
<path d="M0 0 C4.87362847 0.45336079 7.39042389 1.7089159 11 5 C10.40543867 8.16638474 9.44361157 9.93027723 7.375 12.375 C2.9447071 18.04663101 0.08740931 24.53872073 -3 31 C-3.66321915 32.33505153 -4.32806849 33.66931211 -5 35 C-12.30627306 32.88929889 -12.30627306 32.88929889 -14 30 C-14 24.67345529 -12.3897801 21.71658744 -9.2578125 17.671875 C-7.45648511 15.27756406 -6.27436777 12.7080315 -5 10 C-4.10740412 8.20671826 -3.21135342 6.41515344 -2.3125 4.625 C-1.87550781 3.75101563 -1.43851563 2.87703125 -0.98828125 1.9765625 C-0.66214844 1.32429687 -0.33601562 0.67203125 0 0 Z " fill="#FBFEFE" transform="translate(181,521)"/>
<path d="M0 0 C3.54185522 3.4486485 4.87091266 6.32186454 5.25 11.25 C4.87568771 16.8646844 3.51521188 20.62573807 -0.6875 24.4375 C-1.8321875 25.2109375 -1.8321875 25.2109375 -3 26 C-3.80967438 23.08517222 -4.21845993 21.53886783 -3.0625 18.6875 C-2.711875 18.130625 -2.36125 17.57375 -2 17 C-1.34 17 -0.68 17 0 17 C-0.33 16.34 -0.66 15.68 -1 15 C-2.27875 14.896875 -3.5575 14.79375 -4.875 14.6875 C-8.08193666 14.34719557 -8.74707036 14.25292964 -11.125 11.875 C-12.32146977 7.94374218 -11.5557747 5.7480027 -10 2 C-6.26744552 -0.48836965 -4.41559065 -0.54226552 0 0 Z " fill="#FCFEFE" transform="translate(187,18)"/>
<path d="M0 0 C2.9375 0.5625 2.9375 0.5625 4.8125 2.6875 C6.12454198 6.04049617 6.5315136 7.99841841 5.9375 11.5625 C2.8495039 15.46790684 -0.4480773 17.73595768 -5.0625 19.5625 C-7.9375 19.75 -7.9375 19.75 -10.0625 19.5625 C-10.0625 18.5725 -10.0625 17.5825 -10.0625 16.5625 C-8.0825 15.9025 -6.1025 15.2425 -4.0625 14.5625 C-4.5575 14.02625 -5.0525 13.49 -5.5625 12.9375 C-7.50530469 9.86139257 -7.58474493 8.14360811 -7.0625 4.5625 C-4.92684737 1.44116153 -3.7306905 0.68522887 0 0 Z " fill="#FCFEFF" transform="translate(238.0625,568.4375)"/>
<path d="M0 0 C1.98 0 3.96 0 6 0 C5.979375 1.11375 5.95875 2.2275 5.9375 3.375 C5.73619282 6.83215921 5.73619282 6.83215921 7 9 C7.09813199 11.49082076 7.13905548 13.94733789 7.125 16.4375 C7.12886719 17.11876953 7.13273438 17.80003906 7.13671875 18.50195312 C7.1306374 21.60648046 6.98890312 24.03329065 6 27 C3.53199953 25.84826645 1.95216435 24.95216435 0 23 C0.3125 20.625 0.3125 20.625 1 18 C1.2784375 16.8553125 1.2784375 16.8553125 1.5625 15.6875 C1.706875 15.130625 1.85125 14.57375 2 14 C1.67 14.66 1.34 15.32 1 16 C0.01 16 -0.98 16 -2 16 C-1.67 14.35 -1.34 12.7 -1 11 C-2.32 10.67 -3.64 10.34 -5 10 C-5 9.34 -5 8.68 -5 8 C-4.0409375 7.690625 -4.0409375 7.690625 -3.0625 7.375 C-0.65074923 6.10461791 -0.65074923 6.10461791 -0.25 2.875 C-0.1675 1.92625 -0.085 0.9775 0 0 Z " fill="#FCFEFE" transform="translate(232,436)"/>
<path d="M0 0 C-0.33 1.32 -0.66 2.64 -1 4 C-2.9375 3.6875 -2.9375 3.6875 -5 3 C-5.33 2.01 -5.66 1.02 -6 0 C-3.50907189 -1.24546405 -2.58919267 -0.7767578 0 0 Z " fill="#FDFEFF" transform="translate(288,475)"/>
<path d="M0 0 C0.66 0 1.32 0 2 0 C2 2.31 2 4.62 2 7 C1.01 7.33 0.02 7.66 -1 8 C-1.125 2.25 -1.125 2.25 0 0 Z " fill="#F8FFFE" transform="translate(245,430)"/>
<path d="M0 0 C1.32 0 2.64 0 4 0 C4.33 0.99 4.66 1.98 5 3 C3.35 3.33 1.7 3.66 0 4 C0 2.68 0 1.36 0 0 Z " fill="#F2FFFF" transform="translate(539,344)"/>
<path d="M0 0 C0 1.65 0 3.3 0 5 C-0.99 4.67 -1.98 4.34 -3 4 C-3 3.01 -3 2.02 -3 1 C-1 0 -1 0 0 0 Z " fill="#FDFDFF" transform="translate(219,446)"/>
<path d="M0 0 C0.66 0 1.32 0 2 0 C2 1.32 2 2.64 2 4 C1.34 4 0.68 4 0 4 C0 2.68 0 1.36 0 0 Z " fill="#F2FFFF" transform="translate(262,470)"/>
<path d="M0 0 C0.99 0 1.98 0 3 0 C2.67 0.99 2.34 1.98 2 3 C1.34 2.67 0.68 2.34 0 2 C0 1.34 0 0.68 0 0 Z " fill="#FBFFFE" transform="translate(275,451)"/>
<path d="M0 0 C0.66 0 1.32 0 2 0 C2 0.99 2 1.98 2 3 C1.34 3 0.68 3 0 3 C0 2.01 0 1.02 0 0 Z " fill="#FAFFFE" transform="translate(220,445)"/>
<path d="M0 0 C0.33 1.32 0.66 2.64 1 4 C0.34 4 -0.32 4 -1 4 C-0.67 2.68 -0.34 1.36 0 0 Z " fill="#FAFEFF" transform="translate(216,442)"/>
<path d="M0 0 C0.66 0 1.32 0 2 0 C2 0.99 2 1.98 2 3 C1.34 3 0.68 3 0 3 C0 2.01 0 1.02 0 0 Z " fill="#F9FFFF" transform="translate(396,293)"/>
<path d="M0 0 C0.66 0 1.32 0 2 0 C2 0.66 2 1.32 2 2 C1.01 1.67 0.02 1.34 -1 1 C-0.67 0.67 -0.34 0.34 0 0 Z " fill="#F9FFFF" transform="translate(277,468)"/>
<path d="M0 0 C2 1 2 1 2 1 Z " fill="#F9FFFF" transform="translate(265,473)"/>
<path d="" fill="#FBFEFF" transform="translate(0,0)"/>
<path d="" fill="#FBFFFF" transform="translate(0,0)"/>
<path d="" fill="#F9FFFF" transform="translate(0,0)"/>
</svg>
